M48
; DRILL file {KiCad (6.0.5)} date Fri Aug 12 23:05:57 2022
; FORMAT={-:-/ absolute / inch / decimal}
; #@! TF.CreationDate,2022-08-12T23:05:57+08:00
; #@! TF.GenerationSoftware,Kicad,Pcbnew,(6.0.5)
; #@! TF.FileFunction,NonPlated,1,4,NPTH
FMAT,2
INCH
; #@! TA.AperFunction,NonPlated,NPTH,ComponentDrill
T1C0.0256
; #@! TA.AperFunction,NonPlated,NPTH,ComponentDrill
T2C0.0433
; #@! TA.AperFunction,NonPlated,NPTH,ComponentDrill
T3C0.0630
; #@! TA.AperFunction,NonPlated,NPTH,ComponentDrill
T4C0.0670
; #@! TA.AperFunction,NonPlated,NPTH,ComponentDrill
T5C0.0748
; #@! TA.AperFunction,NonPlated,NPTH,ComponentDrill
T6C0.1200
; #@! TA.AperFunction,NonPlated,NPTH,ComponentDrill
T7C0.1201
; #@! TA.AperFunction,NonPlated,NPTH,ComponentDrill
T8C0.1570
; #@! TA.AperFunction,NonPlated,NPTH,ComponentDrill
T9C0.1988
%
G90
G05
T1
X6.5842Y-2.7618
X6.8118Y-2.7618
X10.144Y-2.7598
X10.3716Y-2.7598
T2
X7.6609Y-7.0521
X7.7667Y-6.9463
X9.179Y-6.9424
X9.2848Y-7.0482
T3
X1.4967Y-3.9571
X1.4967Y-6.2071
X1.4967Y-4.7071
X1.4967Y-5.4571
X1.8511Y-6.9571
X2.2467Y-6.2071
X2.2467Y-3.9571
X2.2467Y-4.7071
X2.2467Y-5.4571
X2.6011Y-6.9571
X2.9967Y-5.8321
X2.9967Y-4.3321
X2.9967Y-5.0821
X2.9967Y-3.5821
X3.3511Y-6.6028
X3.7467Y-4.1444
X3.7467Y-5.6444
X3.7467Y-4.8944
X3.7467Y-3.3944
X4.1011Y-6.6028
X4.4967Y-5.0821
X4.4967Y-5.8321
X4.4967Y-4.3321
X4.4967Y-3.5821
X4.9909Y-6.646
X5.2467Y-5.9261
X5.2467Y-3.6761
X5.2467Y-4.4261
X5.2467Y-5.1761
X5.8152Y-6.9324
X5.9967Y-3.9829
X5.9967Y-4.7329
X5.9967Y-5.4829
X6.1902Y-6.2829
X6.5348Y-7.4242
X7.0651Y-6.8939
X9.607Y-7.1637
X10.1373Y-7.694
X10.421Y-6.4731
X10.563Y-3.9829
X10.563Y-5.4829
X10.563Y-4.7329
X10.796Y-7.1227
X11.313Y-3.6761
X11.313Y-5.9261
X11.313Y-4.4261
X11.313Y-5.1761
X11.5819Y-6.7453
X12.063Y-3.5821
X12.063Y-4.3321
X12.063Y-5.0821
X12.063Y-5.8321
X12.4587Y-6.6028
X12.8169Y-4.8944
X12.8169Y-4.1444
X12.8169Y-3.3944
X12.8169Y-5.6444
X13.2087Y-6.6028
X13.563Y-5.8321
X13.563Y-5.0821
X13.563Y-4.3321
X13.563Y-3.5821
X13.9587Y-6.9571
X14.313Y-6.2071
X14.313Y-3.9571
X14.313Y-4.7071
X14.313Y-5.4571
X14.7087Y-6.9571
X15.063Y-4.7071
X15.063Y-3.9571
X15.063Y-5.4571
X15.063Y-6.2071
T4
X1.4887Y-4.1589
X1.4887Y-6.4089
X1.4887Y-4.9089
X1.4887Y-5.6589
X1.843Y-7.1589
X1.8887Y-4.1589
X1.8887Y-6.4089
X1.8887Y-4.9089
X1.8887Y-5.6589
X2.2387Y-6.4089
X2.2387Y-4.1589
X2.2387Y-4.9089
X2.2387Y-5.6589
X2.243Y-7.1589
X2.593Y-7.1589
X2.6387Y-6.4089
X2.6387Y-4.1589
X2.6387Y-4.9089
X2.6387Y-5.6589
X2.9887Y-6.0339
X2.9887Y-4.5339
X2.9887Y-5.2839
X2.9887Y-3.7839
X2.993Y-7.1589
X3.343Y-6.8046
X3.3887Y-6.0339
X3.3887Y-4.5339
X3.3887Y-5.2839
X3.3887Y-3.7839
X3.7387Y-4.3462
X3.7387Y-5.8462
X3.7387Y-5.0962
X3.7387Y-3.5962
X3.743Y-6.8046
X4.093Y-6.8046
X4.1387Y-4.3462
X4.1387Y-5.8462
X4.1387Y-5.0962
X4.1387Y-3.5962
X4.4887Y-5.2839
X4.4887Y-6.0339
X4.4887Y-4.5339
X4.4887Y-3.7839
X4.493Y-6.8046
X4.8887Y-5.2839
X4.8887Y-6.0339
X4.8887Y-4.5339
X4.8887Y-3.7839
X4.9309Y-6.8388
X5.2387Y-6.1279
X5.2387Y-3.8779
X5.2387Y-4.6279
X5.2387Y-5.3779
X5.3173Y-6.9423
X5.6387Y-6.1279
X5.6387Y-3.8779
X5.6387Y-4.6279
X5.6387Y-5.3779
X5.7073Y-7.1031
X5.9887Y-4.1847
X5.9887Y-4.9347
X5.9887Y-5.6847
X6.0537Y-7.3031
X6.0823Y-6.4536
X6.3864Y-7.5612
X6.3887Y-4.1847
X6.3887Y-4.9347
X6.3887Y-5.6847
X6.4287Y-6.6536
X6.6693Y-7.8441
X6.9168Y-7.0309
X7.1996Y-7.3137
X9.744Y-7.312
X10.0268Y-7.0292
X10.2743Y-7.8424
X10.5149Y-6.6519
X10.5549Y-4.1847
X10.5549Y-5.6847
X10.5549Y-4.9347
X10.5571Y-7.5595
X10.8613Y-6.4519
X10.8899Y-7.3014
X10.9549Y-4.1847
X10.9549Y-5.6847
X10.9549Y-4.9347
X11.2363Y-7.1014
X11.3049Y-3.8779
X11.3049Y-6.1279
X11.3049Y-4.6279
X11.3049Y-5.3779
X11.6263Y-6.9423
X11.7049Y-3.8779
X11.7049Y-6.1279
X11.7049Y-4.6279
X11.7049Y-5.3779
X12.0127Y-6.8388
X12.0549Y-3.7839
X12.0549Y-4.5339
X12.0549Y-5.2839
X12.0549Y-6.0339
X12.4506Y-6.8046
X12.4549Y-3.7839
X12.4549Y-4.5339
X12.4549Y-5.2839
X12.4549Y-6.0339
X12.8089Y-5.0962
X12.8089Y-4.3462
X12.8089Y-3.5962
X12.8089Y-5.8462
X12.8506Y-6.8046
X13.2006Y-6.8046
X13.2089Y-5.0962
X13.2089Y-4.3462
X13.2089Y-3.5962
X13.2089Y-5.8462
X13.5549Y-6.0339
X13.5549Y-5.2839
X13.5549Y-4.5339
X13.5549Y-3.7839
X13.6006Y-6.8046
X13.9506Y-7.1589
X13.9549Y-6.0339
X13.9549Y-5.2839
X13.9549Y-4.5339
X13.9549Y-3.7839
X14.3049Y-6.4089
X14.3049Y-4.1589
X14.3049Y-4.9089
X14.3049Y-5.6589
X14.3506Y-7.1589
X14.7006Y-7.1589
X14.7049Y-6.4089
X14.7049Y-4.1589
X14.7049Y-4.9089
X14.7049Y-5.6589
X15.0549Y-4.9089
X15.0549Y-4.1589
X15.0549Y-5.6589
X15.0549Y-6.4089
X15.1006Y-7.1589
X15.4549Y-4.9089
X15.4549Y-4.1589
X15.4549Y-5.6589
X15.4549Y-6.4089
T5
X1.477Y-4.1599
X1.477Y-6.4099
X1.477Y-4.9099
X1.477Y-5.6599
X1.8314Y-7.1599
X1.9101Y-4.1599
X1.9101Y-6.4099
X1.9101Y-4.9099
X1.9101Y-5.6599
X2.227Y-6.4099
X2.227Y-4.1599
X2.227Y-4.9099
X2.227Y-5.6599
X2.2644Y-7.1599
X2.5814Y-7.1599
X2.6601Y-6.4099
X2.6601Y-4.1599
X2.6601Y-4.9099
X2.6601Y-5.6599
X2.977Y-6.0349
X2.977Y-4.5349
X2.977Y-5.2849
X2.977Y-3.7849
X3.0144Y-7.1599
X3.3314Y-6.8056
X3.4101Y-6.0349
X3.4101Y-4.5349
X3.4101Y-5.2849
X3.4101Y-3.7849
X3.727Y-4.3472
X3.727Y-5.8472
X3.727Y-5.0972
X3.727Y-3.5972
X3.7644Y-6.8056
X4.0814Y-6.8056
X4.1601Y-4.3472
X4.1601Y-5.8472
X4.1601Y-5.0972
X4.1601Y-3.5972
X4.477Y-5.2849
X4.477Y-6.0349
X4.477Y-4.5349
X4.477Y-3.7849
X4.5144Y-6.8056
X4.9101Y-5.2849
X4.9101Y-6.0349
X4.9101Y-4.5349
X4.9101Y-3.7849
X4.9194Y-6.8368
X5.227Y-6.1288
X5.227Y-3.8788
X5.227Y-4.6288
X5.227Y-5.3788
X5.3377Y-6.9488
X5.6601Y-6.1288
X5.6601Y-3.8788
X5.6601Y-4.6288
X5.6601Y-5.3788
X5.6968Y-7.0982
X5.977Y-4.1857
X5.977Y-4.9357
X5.977Y-5.6857
X6.0718Y-6.4486
X6.0718Y-7.3147
X6.3775Y-7.5537
X6.4101Y-4.1857
X6.4101Y-4.9357
X6.4101Y-5.6857
X6.4468Y-6.6652
X6.6838Y-7.8599
X6.9079Y-7.0234
X7.2141Y-7.3296
X9.7365Y-7.3209
X10.0427Y-7.0147
X10.2668Y-7.8513
X10.5053Y-6.6586
X10.5433Y-4.1857
X10.5433Y-5.6857
X10.5433Y-4.9357
X10.573Y-7.545
X10.8803Y-7.3081
X10.8803Y-6.442
X10.9764Y-4.1857
X10.9764Y-5.6857
X10.9764Y-4.9357
X11.2553Y-7.0916
X11.2933Y-3.8788
X11.2933Y-6.1288
X11.2933Y-4.6288
X11.2933Y-5.3788
X11.6153Y-6.9463
X11.7264Y-3.8788
X11.7264Y-6.1288
X11.7264Y-4.6288
X11.7264Y-5.3788
X12.0336Y-6.8342
X12.0433Y-3.7849
X12.0433Y-4.5349
X12.0433Y-5.2849
X12.0433Y-6.0349
X12.439Y-6.8056
X12.4764Y-3.7849
X12.4764Y-4.5349
X12.4764Y-5.2849
X12.4764Y-6.0349
X12.7972Y-5.0972
X12.7972Y-4.3472
X12.7972Y-3.5972
X12.7972Y-5.8472
X12.872Y-6.8056
X13.189Y-6.8056
X13.2303Y-5.0972
X13.2303Y-4.3472
X13.2303Y-3.5972
X13.2303Y-5.8472
X13.5433Y-6.0349
X13.5433Y-5.2849
X13.5433Y-4.5349
X13.5433Y-3.7849
X13.622Y-6.8056
X13.939Y-7.1599
X13.9764Y-6.0349
X13.9764Y-5.2849
X13.9764Y-4.5349
X13.9764Y-3.7849
X14.2933Y-6.4099
X14.2933Y-4.1599
X14.2933Y-4.9099
X14.2933Y-5.6599
X14.372Y-7.1599
X14.689Y-7.1599
X14.7264Y-6.4099
X14.7264Y-4.1599
X14.7264Y-4.9099
X14.7264Y-5.6599
X15.0433Y-4.9099
X15.0433Y-4.1599
X15.0433Y-5.6599
X15.0433Y-6.4099
X15.122Y-7.1599
X15.4764Y-4.9099
X15.4764Y-4.1599
X15.4764Y-5.6599
X15.4764Y-6.4099
T6
X1.5387Y-4.2589
X1.5387Y-6.5089
X1.5387Y-5.0089
X1.5387Y-5.7589
X1.7887Y-4.3589
X1.7887Y-6.6089
X1.7887Y-5.1089
X1.7887Y-5.8589
X1.893Y-7.2589
X2.143Y-7.3589
X2.2887Y-6.5089
X2.2887Y-4.2589
X2.2887Y-5.0089
X2.2887Y-5.7589
X2.5387Y-6.6089
X2.5387Y-4.3589
X2.5387Y-5.1089
X2.5387Y-5.8589
X2.643Y-7.2589
X2.893Y-7.3589
X3.0387Y-6.1339
X3.0387Y-4.6339
X3.0387Y-5.3839
X3.0387Y-3.8839
X3.2887Y-6.2339
X3.2887Y-4.7339
X3.2887Y-5.4839
X3.2887Y-3.9839
X3.393Y-6.9046
X3.643Y-7.0046
X3.7887Y-4.4462
X3.7887Y-5.9462
X3.7887Y-5.1962
X3.7887Y-3.6962
X4.0387Y-4.5462
X4.0387Y-6.0462
X4.0387Y-5.2962
X4.0387Y-3.7962
X4.143Y-6.9046
X4.393Y-7.0046
X4.5387Y-5.3839
X4.5387Y-6.1339
X4.5387Y-4.6339
X4.5387Y-3.8839
X4.7887Y-5.4839
X4.7887Y-6.2339
X4.7887Y-4.7339
X4.7887Y-3.9839
X4.9533Y-6.9483
X5.1689Y-7.1096
X5.2887Y-6.2279
X5.2887Y-3.9779
X5.2887Y-4.7279
X5.2887Y-5.4779
X5.5387Y-6.3279
X5.5387Y-4.0779
X5.5387Y-4.8279
X5.5387Y-5.5779
X5.7006Y-7.2147
X5.8671Y-7.4263
X6.0387Y-4.2847
X6.0387Y-5.0347
X6.0387Y-5.7847
X6.0756Y-6.5652
X6.2421Y-6.7768
X6.2887Y-4.3847
X6.2887Y-5.1347
X6.2887Y-5.8847
X6.3511Y-7.6673
X6.4571Y-7.9148
X6.8814Y-7.1369
X6.9875Y-7.3844
X9.85Y-7.3474
X10.0975Y-7.2413
X10.3804Y-7.8777
X10.6049Y-4.2847
X10.6049Y-5.7847
X10.6049Y-5.0347
X10.6082Y-6.7135
X10.6279Y-7.7717
X10.8549Y-4.3847
X10.8549Y-5.8847
X10.8549Y-5.1347
X10.8747Y-6.6751
X10.9832Y-7.363
X11.2497Y-7.3246
X11.3549Y-3.9779
X11.3549Y-6.2279
X11.3549Y-4.7279
X11.3549Y-5.4779
X11.6049Y-4.0779
X11.6049Y-6.3279
X11.6049Y-4.8279
X11.6049Y-5.5779
X11.7005Y-7.026
X11.9678Y-7.0579
X12.1049Y-3.8839
X12.1049Y-4.6339
X12.1049Y-5.3839
X12.1049Y-6.1339
X12.3549Y-3.9839
X12.3549Y-4.7339
X12.3549Y-5.4839
X12.3549Y-6.2339
X12.5006Y-6.9046
X12.7506Y-7.0046
X12.8589Y-5.1962
X12.8589Y-4.4462
X12.8589Y-3.6962
X12.8589Y-5.9462
X13.1089Y-5.2962
X13.1089Y-4.5462
X13.1089Y-3.7962
X13.1089Y-6.0462
X13.2506Y-6.9046
X13.5006Y-7.0046
X13.6049Y-6.1339
X13.6049Y-5.3839
X13.6049Y-4.6339
X13.6049Y-3.8839
X13.8549Y-6.2339
X13.8549Y-5.4839
X13.8549Y-4.7339
X13.8549Y-3.9839
X14.0006Y-7.2589
X14.2506Y-7.3589
X14.3549Y-6.5089
X14.3549Y-4.2589
X14.3549Y-5.0089
X14.3549Y-5.7589
X14.6049Y-6.6089
X14.6049Y-4.3589
X14.6049Y-5.1089
X14.6049Y-5.8589
X14.7506Y-7.2589
X15.0006Y-7.3589
X15.1049Y-5.0089
X15.1049Y-4.2589
X15.1049Y-5.7589
X15.1049Y-6.5089
X15.3549Y-5.1089
X15.3549Y-4.3589
X15.3549Y-5.8589
X15.3549Y-6.6089
T7
X1.6936Y-4.3922
X1.6936Y-6.6422
X1.6936Y-5.1422
X1.6936Y-5.8922
X1.8904Y-4.3095
X1.8904Y-6.5595
X1.8904Y-5.0595
X1.8904Y-5.8095
X2.0479Y-7.3922
X2.2448Y-7.3095
X2.4436Y-6.6422
X2.4436Y-4.3922
X2.4436Y-5.1422
X2.4436Y-5.8922
X2.6404Y-6.5595
X2.6404Y-4.3095
X2.6404Y-5.0595
X2.6404Y-5.8095
X2.7979Y-7.3922
X2.9948Y-7.3095
X3.1936Y-6.2672
X3.1936Y-4.7672
X3.1936Y-5.5172
X3.1936Y-4.0172
X3.3904Y-6.1845
X3.3904Y-4.6845
X3.3904Y-5.4345
X3.3904Y-3.9345
X3.5479Y-7.0379
X3.7448Y-6.9552
X3.9436Y-4.5795
X3.9436Y-6.0795
X3.9436Y-5.3295
X3.9436Y-3.8295
X4.1404Y-4.4968
X4.1404Y-5.9968
X4.1404Y-5.2468
X4.1404Y-3.7468
X4.2979Y-7.0379
X4.4948Y-6.9552
X4.6936Y-5.5172
X4.6936Y-6.2672
X4.6936Y-4.7672
X4.6936Y-4.0172
X4.8904Y-5.4345
X4.8904Y-6.1845
X4.8904Y-4.6845
X4.8904Y-3.9345
X5.0685Y-7.1172
X5.28Y-7.0883
X5.4436Y-6.3611
X5.4436Y-4.1111
X5.4436Y-4.8611
X5.4436Y-5.6111
X5.6404Y-6.2784
X5.6404Y-4.0284
X5.6404Y-4.7784
X5.6404Y-5.5284
X5.7681Y-7.4076
X5.98Y-7.4344
X6.1431Y-6.7581
X6.1936Y-4.418
X6.1936Y-5.168
X6.1936Y-5.918
X6.355Y-6.7849
X6.3664Y-7.8711
X6.3904Y-4.3353
X6.3904Y-5.0853
X6.3904Y-5.8353
X6.564Y-7.9518
X6.8967Y-7.3407
X7.0944Y-7.4215
X10.0538Y-7.3321
X10.1345Y-7.1344
X10.5841Y-7.8624
X10.6649Y-7.6647
X10.7598Y-4.418
X10.7598Y-5.918
X10.7598Y-5.168
X10.809Y-6.7515
X10.9381Y-6.5814
X10.9567Y-4.3353
X10.9567Y-5.8353
X10.9567Y-5.0853
X11.184Y-7.401
X11.3131Y-7.231
X11.5098Y-4.1111
X11.5098Y-6.3611
X11.5098Y-4.8611
X11.5098Y-5.6111
X11.7067Y-4.0284
X11.7067Y-6.2784
X11.7067Y-4.7784
X11.7067Y-5.5284
X11.8846Y-7.1146
X12.0534Y-6.9838
X12.2598Y-4.0172
X12.2598Y-4.7672
X12.2598Y-5.5172
X12.2598Y-6.2672
X12.4567Y-3.9345
X12.4567Y-4.6845
X12.4567Y-5.4345
X12.4567Y-6.1845
X12.6555Y-7.0379
X12.8524Y-6.9552
X13.0138Y-5.3295
X13.0138Y-4.5795
X13.0138Y-3.8295
X13.0138Y-6.0795
X13.2106Y-5.2468
X13.2106Y-4.4968
X13.2106Y-3.7468
X13.2106Y-5.9968
X13.4055Y-7.0379
X13.6024Y-6.9552
X13.7598Y-6.2672
X13.7598Y-5.5172
X13.7598Y-4.7672
X13.7598Y-4.0172
X13.9567Y-6.1845
X13.9567Y-5.4345
X13.9567Y-4.6845
X13.9567Y-3.9345
X14.1555Y-7.3922
X14.3524Y-7.3095
X14.5098Y-6.6422
X14.5098Y-4.3922
X14.5098Y-5.1422
X14.5098Y-5.8922
X14.7067Y-6.5595
X14.7067Y-4.3095
X14.7067Y-5.0595
X14.7067Y-5.8095
X14.9055Y-7.3922
X15.1024Y-7.3095
X15.2598Y-5.1422
X15.2598Y-4.3922
X15.2598Y-5.8922
X15.2598Y-6.6422
X15.4567Y-5.0595
X15.4567Y-4.3095
X15.4567Y-5.8095
X15.4567Y-6.5595
T8
X1.6887Y-4.1589
X1.6887Y-6.4089
X1.6887Y-4.9089
X1.6887Y-5.6589
X2.043Y-7.1589
X2.4387Y-6.4089
X2.4387Y-4.1589
X2.4387Y-4.9089
X2.4387Y-5.6589
X2.793Y-7.1589
X3.1887Y-6.0339
X3.1887Y-4.5339
X3.1887Y-5.2839
X3.1887Y-3.7839
X3.543Y-6.8046
X3.9387Y-4.3462
X3.9387Y-5.8462
X3.9387Y-5.0962
X3.9387Y-3.5962
X4.293Y-6.8046
X4.6887Y-5.2839
X4.6887Y-6.0339
X4.6887Y-4.5339
X4.6887Y-3.7839
X5.1241Y-6.8906
X5.4387Y-6.1279
X5.4387Y-3.8779
X5.4387Y-4.6279
X5.4387Y-5.3779
X5.8805Y-7.2031
X6.1887Y-4.1847
X6.1887Y-4.9347
X6.1887Y-5.6847
X6.2555Y-6.5536
X6.5279Y-7.7026
X7.0582Y-7.1723
X9.8854Y-7.1706
X10.4157Y-7.7009
X10.6881Y-6.5519
X10.7549Y-4.1847
X10.7549Y-5.6847
X10.7549Y-4.9347
X11.0631Y-7.2014
X11.5049Y-3.8779
X11.5049Y-6.1279
X11.5049Y-4.6279
X11.5049Y-5.3779
X11.8195Y-6.8906
X12.2549Y-3.7839
X12.2549Y-4.5339
X12.2549Y-5.2839
X12.2549Y-6.0339
X12.6506Y-6.8046
X13.0089Y-5.0962
X13.0089Y-4.3462
X13.0089Y-3.5962
X13.0089Y-5.8462
X13.4006Y-6.8046
X13.7549Y-6.0339
X13.7549Y-5.2839
X13.7549Y-4.5339
X13.7549Y-3.7839
X14.1506Y-7.1589
X14.5049Y-6.4089
X14.5049Y-4.1589
X14.5049Y-4.9089
X14.5049Y-5.6589
X14.9006Y-7.1589
X15.2549Y-4.9089
X15.2549Y-4.1589
X15.2549Y-5.6589
X15.2549Y-6.4089
T9
X1.6936Y-4.1599
X1.6936Y-6.4099
X1.6936Y-4.9099
X1.6936Y-5.6599
X2.0479Y-7.1599
X2.4436Y-6.4099
X2.4436Y-4.1599
X2.4436Y-4.9099
X2.4436Y-5.6599
X2.7979Y-7.1599
X3.1936Y-6.0349
X3.1936Y-4.5349
X3.1936Y-5.2849
X3.1936Y-3.7849
X3.5479Y-6.8056
X3.9436Y-4.3472
X3.9436Y-5.8472
X3.9436Y-5.0972
X3.9436Y-3.5972
X4.2979Y-6.8056
X4.6936Y-5.2849
X4.6936Y-6.0349
X4.6936Y-4.5349
X4.6936Y-3.7849
X5.1286Y-6.8928
X5.4436Y-6.1288
X5.4436Y-3.8788
X5.4436Y-4.6288
X5.4436Y-5.3788
X5.8843Y-7.2064
X6.1936Y-4.1857
X6.1936Y-4.9357
X6.1936Y-5.6857
X6.2593Y-6.5569
X6.5306Y-7.7068
X7.061Y-7.1765
X9.8896Y-7.1678
X10.4199Y-7.6982
X10.6928Y-6.5503
X10.7598Y-4.1857
X10.7598Y-5.6857
X10.7598Y-4.9357
X11.0678Y-7.1998
X11.5098Y-3.8788
X11.5098Y-6.1288
X11.5098Y-4.6288
X11.5098Y-5.3788
X11.8245Y-6.8902
X12.2598Y-3.7849
X12.2598Y-4.5349
X12.2598Y-5.2849
X12.2598Y-6.0349
X12.6555Y-6.8056
X13.0138Y-5.0972
X13.0138Y-4.3472
X13.0138Y-3.5972
X13.0138Y-5.8472
X13.4055Y-6.8056
X13.7598Y-6.0349
X13.7598Y-5.2849
X13.7598Y-4.5349
X13.7598Y-3.7849
X14.1555Y-7.1599
X14.5098Y-6.4099
X14.5098Y-4.1599
X14.5098Y-4.9099
X14.5098Y-5.6599
X14.9055Y-7.1599
X15.2598Y-4.9099
X15.2598Y-4.1599
X15.2598Y-5.6599
X15.2598Y-6.4099
T0
M30
