%TF.GenerationSoftware,KiCad,Pcbnew,(6.0.5)*%
%TF.CreationDate,2022-08-12T23:05:56+08:00*%
%TF.ProjectId,ChunkyXiao,4368756e-6b79-4586-9961-6f2e6b696361,rev?*%
%TF.SameCoordinates,Original*%
%TF.FileFunction,Soldermask,Top*%
%TF.FilePolarity,Negative*%
%FSLAX46Y46*%
G04 Gerber Fmt 4.6, Leading zero omitted, Abs format (unit mm)*
G04 Created by KiCad (PCBNEW (6.0.5)) date 2022-08-12 23:05:56*
%MOMM*%
%LPD*%
G01*
G04 APERTURE LIST*
G04 Aperture macros list*
%AMRoundRect*
0 Rectangle with rounded corners*
0 $1 Rounding radius*
0 $2 $3 $4 $5 $6 $7 $8 $9 X,Y pos of 4 corners*
0 Add a 4 corners polygon primitive as box body*
4,1,4,$2,$3,$4,$5,$6,$7,$8,$9,$2,$3,0*
0 Add four circle primitives for the rounded corners*
1,1,$1+$1,$2,$3*
1,1,$1+$1,$4,$5*
1,1,$1+$1,$6,$7*
1,1,$1+$1,$8,$9*
0 Add four rect primitives between the rounded corners*
20,1,$1+$1,$2,$3,$4,$5,0*
20,1,$1+$1,$4,$5,$6,$7,0*
20,1,$1+$1,$6,$7,$8,$9,0*
20,1,$1+$1,$8,$9,$2,$3,0*%
%AMRotRect*
0 Rectangle, with rotation*
0 The origin of the aperture is its center*
0 $1 length*
0 $2 width*
0 $3 Rotation angle, in degrees counterclockwise*
0 Add horizontal line*
21,1,$1,$2,0,0,$3*%
G04 Aperture macros list end*
%ADD10C,1.701800*%
%ADD11C,3.987800*%
%ADD12C,1.600000*%
%ADD13C,3.050000*%
%ADD14C,1.900000*%
%ADD15C,3.048000*%
%ADD16C,5.050000*%
%ADD17R,1.700000X1.000000*%
%ADD18RoundRect,0.252500X1.134500X1.010000X-1.134500X1.010000X-1.134500X-1.010000X1.134500X-1.010000X0*%
%ADD19RoundRect,0.250000X1.025000X1.000000X-1.025000X1.000000X-1.025000X-1.000000X1.025000X-1.000000X0*%
%ADD20RoundRect,0.254000X1.016000X1.016000X-1.016000X1.016000X-1.016000X-1.016000X1.016000X-1.016000X0*%
%ADD21R,0.400000X0.900000*%
%ADD22RoundRect,0.250000X-0.400000X-0.625000X0.400000X-0.625000X0.400000X0.625000X-0.400000X0.625000X0*%
%ADD23RoundRect,0.140000X-0.140000X-0.170000X0.140000X-0.170000X0.140000X0.170000X-0.140000X0.170000X0*%
%ADD24RoundRect,0.150000X-0.512500X-0.150000X0.512500X-0.150000X0.512500X0.150000X-0.512500X0.150000X0*%
%ADD25RoundRect,0.160000X0.197500X0.160000X-0.197500X0.160000X-0.197500X-0.160000X0.197500X-0.160000X0*%
%ADD26RoundRect,0.100000X0.100000X-0.637500X0.100000X0.637500X-0.100000X0.637500X-0.100000X-0.637500X0*%
%ADD27RoundRect,0.140000X-0.036244X-0.217224X0.206244X-0.077224X0.036244X0.217224X-0.206244X0.077224X0*%
%ADD28C,0.650000*%
%ADD29R,0.570000X2.450000*%
%ADD30R,0.300000X2.450000*%
%ADD31RoundRect,0.500000X0.550000X0.500000X-0.550000X0.500000X-0.550000X-0.500000X0.550000X-0.500000X0*%
%ADD32O,1.000000X2.100000*%
%ADD33O,1.000000X1.600000*%
%ADD34RoundRect,0.525000X0.525000X0.725000X-0.525000X0.725000X-0.525000X-0.725000X0.525000X-0.725000X0*%
%ADD35RoundRect,0.140000X0.021213X-0.219203X0.219203X-0.021213X-0.021213X0.219203X-0.219203X0.021213X0*%
%ADD36RoundRect,0.140000X-0.170000X0.140000X-0.170000X-0.140000X0.170000X-0.140000X0.170000X0.140000X0*%
%ADD37C,1.700000*%
%ADD38RotRect,1.700000X1.000000X30.000000*%
%ADD39RoundRect,0.252500X0.477506X1.441936X-1.487506X0.307436X-0.477506X-1.441936X1.487506X-0.307436X0*%
%ADD40RoundRect,0.250000X0.387676X1.378525X-1.387676X0.353525X-0.387676X-1.378525X1.387676X-0.353525X0*%
%ADD41RoundRect,0.254000X0.371882X1.387882X-1.387882X0.371882X-0.371882X-1.387882X1.387882X-0.371882X0*%
%ADD42C,0.265000*%
%ADD43RotRect,1.700000X1.000000X45.000000*%
%ADD44RoundRect,0.250000X0.017678X1.431891X-1.431891X-0.017678X-0.017678X-1.431891X1.431891X0.017678X0*%
%ADD45RoundRect,0.252500X0.088035X1.516390X-1.516390X-0.088035X-0.088035X-1.516390X1.516390X0.088035X0*%
%ADD46RoundRect,0.254000X0.000000X1.436841X-1.436841X0.000000X0.000000X-1.436841X1.436841X0.000000X0*%
%ADD47O,3.454400X1.778000*%
%ADD48RoundRect,0.087500X-0.087500X0.912500X-0.087500X-0.912500X0.087500X-0.912500X0.087500X0.912500X0*%
%ADD49RoundRect,0.250000X-0.625000X0.400000X-0.625000X-0.400000X0.625000X-0.400000X0.625000X0.400000X0*%
%ADD50RoundRect,0.050800X1.000000X1.000000X-1.000000X1.000000X-1.000000X-1.000000X1.000000X-1.000000X0*%
%ADD51RoundRect,0.135000X-0.135000X-0.185000X0.135000X-0.185000X0.135000X0.185000X-0.135000X0.185000X0*%
%ADD52RotRect,1.700000X1.000000X150.000000*%
%ADD53RoundRect,0.252500X1.487506X0.307436X-0.477506X1.441936X-1.487506X-0.307436X0.477506X-1.441936X0*%
%ADD54RoundRect,0.250000X1.387676X0.353525X-0.387676X1.378525X-1.387676X-0.353525X0.387676X-1.378525X0*%
%ADD55RoundRect,0.254000X1.387882X0.371882X-0.371882X1.387882X-1.387882X-0.371882X0.371882X-1.387882X0*%
%ADD56R,1.000000X1.000000*%
%ADD57RoundRect,0.140000X-0.091230X-0.200442X0.179229X-0.127973X0.091230X0.200442X-0.179229X0.127973X0*%
%ADD58RoundRect,0.150000X0.150000X-0.512500X0.150000X0.512500X-0.150000X0.512500X-0.150000X-0.512500X0*%
%ADD59RoundRect,0.237500X0.300000X0.237500X-0.300000X0.237500X-0.300000X-0.237500X0.300000X-0.237500X0*%
%ADD60RoundRect,0.050800X1.000000X-1.000000X1.000000X1.000000X-1.000000X1.000000X-1.000000X-1.000000X0*%
%ADD61RoundRect,0.135000X-0.185000X0.135000X-0.185000X-0.135000X0.185000X-0.135000X0.185000X0.135000X0*%
%ADD62RoundRect,0.140000X0.170000X-0.140000X0.170000X0.140000X-0.170000X0.140000X-0.170000X-0.140000X0*%
%ADD63RoundRect,0.135000X0.226274X0.035355X0.035355X0.226274X-0.226274X-0.035355X-0.035355X-0.226274X0*%
%ADD64RoundRect,0.250000X-0.250000X-0.475000X0.250000X-0.475000X0.250000X0.475000X-0.250000X0.475000X0*%
%ADD65R,0.950000X0.450000*%
%ADD66RoundRect,0.250000X0.325000X0.450000X-0.325000X0.450000X-0.325000X-0.450000X0.325000X-0.450000X0*%
%ADD67RoundRect,0.150000X-0.825000X-0.150000X0.825000X-0.150000X0.825000X0.150000X-0.825000X0.150000X0*%
%ADD68O,2.748280X1.998980*%
%ADD69O,1.016000X2.032000*%
%ADD70C,1.143000*%
%ADD71R,0.280000X1.250000*%
%ADD72R,1.800000X2.000000*%
%ADD73RoundRect,0.250000X-0.375000X-0.625000X0.375000X-0.625000X0.375000X0.625000X-0.375000X0.625000X0*%
%ADD74RoundRect,0.150000X-0.150000X0.512500X-0.150000X-0.512500X0.150000X-0.512500X0.150000X0.512500X0*%
%ADD75RoundRect,0.160000X-0.197500X-0.160000X0.197500X-0.160000X0.197500X0.160000X-0.197500X0.160000X0*%
%ADD76O,1.778000X3.454400*%
%ADD77C,1.100000*%
%ADD78RotRect,1.300000X1.000000X45.000000*%
%ADD79RotRect,3.000000X0.900000X45.000000*%
%ADD80R,1.300000X0.800000*%
%ADD81R,0.800000X1.300000*%
%ADD82RoundRect,0.237500X-0.300000X-0.237500X0.300000X-0.237500X0.300000X0.237500X-0.300000X0.237500X0*%
%ADD83RoundRect,0.160000X-0.160000X0.197500X-0.160000X-0.197500X0.160000X-0.197500X0.160000X0.197500X0*%
%ADD84R,1.000000X1.700000*%
%ADD85RoundRect,0.237500X0.237500X-0.300000X0.237500X0.300000X-0.237500X0.300000X-0.237500X-0.300000X0*%
%ADD86RoundRect,0.150000X0.150000X-0.587500X0.150000X0.587500X-0.150000X0.587500X-0.150000X-0.587500X0*%
%ADD87RoundRect,0.250000X0.625000X-0.400000X0.625000X0.400000X-0.625000X0.400000X-0.625000X-0.400000X0*%
%ADD88RoundRect,0.250000X0.450000X-0.325000X0.450000X0.325000X-0.450000X0.325000X-0.450000X-0.325000X0*%
%ADD89RoundRect,0.140000X0.206244X0.077224X-0.036244X0.217224X-0.206244X-0.077224X0.036244X-0.217224X0*%
%ADD90RotRect,1.700000X1.000000X225.000000*%
%ADD91RoundRect,0.140000X0.219203X0.021213X0.021213X0.219203X-0.219203X-0.021213X-0.021213X-0.219203X0*%
%ADD92RotRect,1.700000X1.000000X315.000000*%
%ADD93RoundRect,0.252500X1.516390X-0.088035X-0.088035X1.516390X-1.516390X0.088035X0.088035X-1.516390X0*%
%ADD94RoundRect,0.250000X1.431891X-0.017678X-0.017678X1.431891X-1.431891X0.017678X0.017678X-1.431891X0*%
%ADD95RoundRect,0.254000X1.436841X0.000000X0.000000X1.436841X-1.436841X0.000000X0.000000X-1.436841X0*%
%ADD96RoundRect,0.135000X0.185000X-0.135000X0.185000X0.135000X-0.185000X0.135000X-0.185000X-0.135000X0*%
%ADD97RoundRect,0.150000X-0.587500X-0.150000X0.587500X-0.150000X0.587500X0.150000X-0.587500X0.150000X0*%
%ADD98RotRect,1.700000X1.000000X195.000000*%
%ADD99RoundRect,0.252500X0.834436X1.269215X-1.357250X0.681955X-0.834436X-1.269215X1.357250X-0.681955X0*%
%ADD100RoundRect,0.250000X0.731255X1.231215X-1.248893X0.700636X-0.731255X-1.231215X1.248893X-0.700636X0*%
%ADD101RoundRect,0.254000X0.718420X1.244341X-1.244341X0.718420X-0.718420X-1.244341X1.244341X-0.718420X0*%
%ADD102RotRect,1.700000X1.000000X330.000000*%
%ADD103RotRect,1.700000X1.000000X345.000000*%
%ADD104RoundRect,0.252500X1.357250X0.681955X-0.834436X1.269215X-1.357250X-0.681955X0.834436X-1.269215X0*%
%ADD105RoundRect,0.250000X1.248893X0.700636X-0.731255X1.231215X-1.248893X-0.700636X0.731255X-1.231215X0*%
%ADD106RoundRect,0.254000X1.244341X0.718420X-0.718420X1.244341X-1.244341X-0.718420X0.718420X-1.244341X0*%
%ADD107RotRect,1.300000X1.000000X135.000000*%
%ADD108RotRect,3.000000X0.900000X135.000000*%
%ADD109RoundRect,0.160000X0.160000X-0.197500X0.160000X0.197500X-0.160000X0.197500X-0.160000X-0.197500X0*%
%ADD110RotRect,1.700000X1.000000X210.000000*%
%ADD111RotRect,1.700000X1.000000X135.000000*%
%ADD112RoundRect,0.250000X0.475000X-0.250000X0.475000X0.250000X-0.475000X0.250000X-0.475000X-0.250000X0*%
%ADD113C,2.100000*%
%ADD114O,2.200000X2.100000*%
%ADD115C,0.800000*%
%ADD116C,0.600000*%
G04 APERTURE END LIST*
D10*
%TO.C,SW18*%
X105121889Y-129443492D03*
X94961889Y-129443492D03*
D11*
X100041889Y-129443492D03*
D12*
X95166889Y-124318492D03*
D13*
X100166889Y-135368492D03*
D14*
X105666889Y-129468492D03*
D15*
X102581889Y-134523492D03*
D13*
X105166889Y-133268492D03*
D14*
X94666889Y-129468492D03*
D15*
X96231889Y-131983492D03*
D16*
X100166889Y-129468492D03*
D17*
X97291889Y-123663492D03*
X97291889Y-125063492D03*
X102791889Y-125063492D03*
X102791889Y-123663492D03*
D18*
X106254889Y-134530992D03*
D19*
X108666889Y-133268492D03*
X96666889Y-135468492D03*
D20*
X92675889Y-131983492D03*
%TD*%
D16*
%TO.C,SW62*%
X349499888Y-134236497D03*
D10*
X344294888Y-134211497D03*
D14*
X354999888Y-134236497D03*
D12*
X344499888Y-129086497D03*
D15*
X345564888Y-136751497D03*
D13*
X354499888Y-138036497D03*
D15*
X351914888Y-139291497D03*
D13*
X349499888Y-140136497D03*
D11*
X349374888Y-134211497D03*
D14*
X343999888Y-134236497D03*
D10*
X354454888Y-134211497D03*
D17*
X352124888Y-129831497D03*
X352124888Y-128431497D03*
X346624888Y-128431497D03*
X346624888Y-129831497D03*
D19*
X357999888Y-138036497D03*
D18*
X355587888Y-139298997D03*
D20*
X342008888Y-136751497D03*
D19*
X345999888Y-140236497D03*
%TD*%
D11*
%TO.C,SW19*%
X100041888Y-148493491D03*
D10*
X105121888Y-148493491D03*
D13*
X100166888Y-154418491D03*
D14*
X105666888Y-148518491D03*
X94666888Y-148518491D03*
D15*
X102581888Y-153573491D03*
X96231888Y-151033491D03*
D12*
X95166888Y-143368491D03*
D10*
X94961888Y-148493491D03*
D13*
X105166888Y-152318491D03*
D16*
X100166888Y-148518491D03*
D17*
X102791888Y-144113491D03*
X102791888Y-142713491D03*
X97291888Y-142713491D03*
X97291888Y-144113491D03*
D19*
X108666888Y-152318491D03*
D18*
X106254888Y-153580991D03*
D20*
X92675888Y-151033491D03*
D19*
X96666888Y-154518491D03*
%TD*%
D21*
%TO.C,RN10*%
X315800002Y-86100004D03*
X315000002Y-86100004D03*
X314200002Y-86100004D03*
X313400002Y-86100004D03*
X313400002Y-87800004D03*
X314200002Y-87800004D03*
X315000002Y-87800004D03*
X315800002Y-87800004D03*
%TD*%
D22*
%TO.C,R6*%
X150700000Y-76050000D03*
X153800000Y-76050000D03*
%TD*%
D21*
%TO.C,RN5*%
X90350000Y-81490000D03*
X89550000Y-81490000D03*
X88750000Y-81490000D03*
X87950000Y-81490000D03*
X87950000Y-83190000D03*
X88750000Y-83190000D03*
X89550000Y-83190000D03*
X90350000Y-83190000D03*
%TD*%
D14*
%TO.C,SW21*%
X124716892Y-96136493D03*
D12*
X114216892Y-90986493D03*
D11*
X119091892Y-96111493D03*
D13*
X119216892Y-102036493D03*
D15*
X121631892Y-101191493D03*
D10*
X124171892Y-96111493D03*
D13*
X124216892Y-99936493D03*
D15*
X115281892Y-98651493D03*
D14*
X113716892Y-96136493D03*
D10*
X114011892Y-96111493D03*
D16*
X119216892Y-96136493D03*
D17*
X116341892Y-90331493D03*
X116341892Y-91731493D03*
X121841892Y-91731493D03*
X121841892Y-90331493D03*
D19*
X127716892Y-99936493D03*
D18*
X125304892Y-101198993D03*
D20*
X111725892Y-98651493D03*
D19*
X115716892Y-102136493D03*
%TD*%
D23*
%TO.C,C98*%
X93261890Y-170456494D03*
X94221890Y-170456494D03*
%TD*%
D24*
%TO.C,U1*%
X160802500Y-77060000D03*
X160802500Y-78010000D03*
X160802500Y-78960000D03*
X163077500Y-78960000D03*
X163077500Y-77060000D03*
%TD*%
D25*
%TO.C,R5*%
X153347500Y-94850000D03*
X152152500Y-94850000D03*
%TD*%
D26*
%TO.C,U17*%
X73935000Y-167992500D03*
X74585000Y-167992500D03*
X75235000Y-167992500D03*
X75885000Y-167992500D03*
X76535000Y-167992500D03*
X77185000Y-167992500D03*
X77835000Y-167992500D03*
X78485000Y-167992500D03*
X78485000Y-162267500D03*
X77835000Y-162267500D03*
X77185000Y-162267500D03*
X76535000Y-162267500D03*
X75885000Y-162267500D03*
X75235000Y-162267500D03*
X74585000Y-162267500D03*
X73935000Y-162267500D03*
%TD*%
D27*
%TO.C,C62*%
X274234308Y-177240000D03*
X275065692Y-176760000D03*
%TD*%
D28*
%TO.C,J2*%
X263438407Y-70099801D03*
X257658407Y-70099801D03*
D29*
X263773407Y-72044801D03*
X262998407Y-72044801D03*
D30*
X261798407Y-72044801D03*
X260798407Y-72044801D03*
X260298407Y-72044801D03*
X259298407Y-72044801D03*
D29*
X257323407Y-72044801D03*
X258098407Y-72044801D03*
D30*
X258798407Y-72044801D03*
X259798407Y-72044801D03*
X261298407Y-72044801D03*
X262298407Y-72044801D03*
D31*
X265398407Y-66449801D03*
D32*
X264868407Y-70629801D03*
D33*
X264868407Y-66449801D03*
X256228407Y-66449801D03*
D32*
X256228407Y-70629801D03*
D31*
X255698407Y-66449801D03*
D34*
X255698407Y-70629801D03*
X265398407Y-70629801D03*
%TD*%
D10*
%TO.C,SW50*%
X316354890Y-96111495D03*
D14*
X305899890Y-96136495D03*
D11*
X311274890Y-96111495D03*
D13*
X316399890Y-99936495D03*
D15*
X307464890Y-98651495D03*
D14*
X316899890Y-96136495D03*
D16*
X311399890Y-96136495D03*
D15*
X313814890Y-101191495D03*
D12*
X306399890Y-90986495D03*
D10*
X306194890Y-96111495D03*
D13*
X311399890Y-102036495D03*
D17*
X314024890Y-91731495D03*
X314024890Y-90331495D03*
X308524890Y-90331495D03*
X308524890Y-91731495D03*
D19*
X319899890Y-99936495D03*
D18*
X317487890Y-101198995D03*
D20*
X303908890Y-98651495D03*
D19*
X307899890Y-102136495D03*
%TD*%
D23*
%TO.C,C30*%
X365194889Y-97856493D03*
X366154889Y-97856493D03*
%TD*%
D10*
%TO.C,SW15*%
X76021890Y-181836494D03*
D14*
X65566890Y-181861494D03*
D13*
X71066890Y-187761494D03*
X76066890Y-185661494D03*
D10*
X65861890Y-181836494D03*
D12*
X66066890Y-176711494D03*
D14*
X76566890Y-181861494D03*
D11*
X70941890Y-181836494D03*
D15*
X67131890Y-184376494D03*
D16*
X71066890Y-181861494D03*
D15*
X73481890Y-186916494D03*
D17*
X68191890Y-176056494D03*
X68191890Y-177456494D03*
X73691890Y-177456494D03*
X73691890Y-176056494D03*
D19*
X79566890Y-185661494D03*
D18*
X77154890Y-186923994D03*
D19*
X67566890Y-187861494D03*
D20*
X63575890Y-184376494D03*
%TD*%
D13*
%TO.C,SW12*%
X86116888Y-118986493D03*
D15*
X77181888Y-117701493D03*
D12*
X76116888Y-110036493D03*
D10*
X75911888Y-115161493D03*
D14*
X86616888Y-115186493D03*
D11*
X80991888Y-115161493D03*
D10*
X86071888Y-115161493D03*
D16*
X81116888Y-115186493D03*
D13*
X81116888Y-121086493D03*
D15*
X83531888Y-120241493D03*
D14*
X75616888Y-115186493D03*
D17*
X83741888Y-110781493D03*
X83741888Y-109381493D03*
X78241888Y-109381493D03*
X78241888Y-110781493D03*
D18*
X87204888Y-120248993D03*
D19*
X89616888Y-118986493D03*
D20*
X73625888Y-117701493D03*
D19*
X77616888Y-121186493D03*
%TD*%
D35*
%TO.C,C64*%
X251300589Y-178479411D03*
X251979411Y-177800589D03*
%TD*%
D36*
%TO.C,C7*%
X314200000Y-77920000D03*
X314200000Y-78880000D03*
%TD*%
D37*
%TO.C,J5*%
X313430000Y-70750000D03*
%TD*%
D26*
%TO.C,U18*%
X352450000Y-169112500D03*
X353100000Y-169112500D03*
X353750000Y-169112500D03*
X354400000Y-169112500D03*
X355050000Y-169112500D03*
X355700000Y-169112500D03*
X356350000Y-169112500D03*
X357000000Y-169112500D03*
X357000000Y-163387500D03*
X356350000Y-163387500D03*
X355700000Y-163387500D03*
X355050000Y-163387500D03*
X354400000Y-163387500D03*
X353750000Y-163387500D03*
X353100000Y-163387500D03*
X352450000Y-163387500D03*
%TD*%
D23*
%TO.C,C97*%
X74211890Y-179456494D03*
X75171890Y-179456494D03*
%TD*%
%TO.C,C58*%
X359530000Y-173630000D03*
X360490000Y-173630000D03*
%TD*%
D13*
%TO.C,SW66*%
X373549889Y-128511492D03*
D16*
X368549889Y-124711492D03*
D10*
X363344889Y-124686492D03*
D14*
X363049889Y-124711492D03*
D10*
X373504889Y-124686492D03*
D12*
X363549889Y-119561492D03*
D13*
X368549889Y-130611492D03*
D15*
X364614889Y-127226492D03*
X370964889Y-129766492D03*
D14*
X374049889Y-124711492D03*
D11*
X368424889Y-124686492D03*
D17*
X365674889Y-118906492D03*
X365674889Y-120306492D03*
X371174889Y-120306492D03*
X371174889Y-118906492D03*
D18*
X374637889Y-129773992D03*
D19*
X377049889Y-128511492D03*
X365049889Y-130711492D03*
D20*
X361058889Y-127226492D03*
%TD*%
D14*
%TO.C,SW43*%
X276360780Y-163627643D03*
D11*
X271476887Y-166418492D03*
D10*
X267077478Y-168958492D03*
D14*
X266834500Y-169127643D03*
D15*
X269447330Y-170523197D03*
D10*
X275876296Y-163878492D03*
D12*
X264692513Y-164417612D03*
D13*
X274547640Y-171487193D03*
X277827767Y-167168539D03*
D16*
X271597640Y-166377643D03*
D15*
X276216592Y-169547901D03*
D38*
X266205317Y-162787865D03*
X266905317Y-164000301D03*
X271668457Y-161250301D03*
X270968457Y-160037865D03*
D39*
X279401253Y-167717896D03*
D40*
X280858856Y-165418539D03*
X271566551Y-173323795D03*
D41*
X266367744Y-172301197D03*
%TD*%
D42*
%TO.C,IC1*%
X159600000Y-92250000D03*
X159600000Y-92750000D03*
X159600000Y-93250000D03*
X159100000Y-92250000D03*
X159100000Y-92750000D03*
X159100000Y-93250000D03*
X158600000Y-92250000D03*
X158600000Y-92750000D03*
X158600000Y-93250000D03*
%TD*%
D14*
%TO.C,SW20*%
X95616890Y-172861494D03*
D10*
X84911890Y-172836494D03*
D12*
X85116890Y-167711494D03*
D11*
X89991890Y-172836494D03*
D13*
X90116890Y-178761494D03*
D16*
X90116890Y-172861494D03*
D10*
X95071890Y-172836494D03*
D13*
X95116890Y-176661494D03*
D15*
X86181890Y-175376494D03*
X92531890Y-177916494D03*
D14*
X84616890Y-172861494D03*
D17*
X87241890Y-167056494D03*
X87241890Y-168456494D03*
X92741890Y-168456494D03*
X92741890Y-167056494D03*
D18*
X96204890Y-177923994D03*
D19*
X98616890Y-176661494D03*
X86616890Y-178861494D03*
D20*
X82625890Y-175376494D03*
%TD*%
D22*
%TO.C,R7*%
X150800000Y-81100000D03*
X153900000Y-81100000D03*
%TD*%
D21*
%TO.C,RN8*%
X342950000Y-81900000D03*
X342150000Y-81900000D03*
X341350000Y-81900000D03*
X340550000Y-81900000D03*
X340550000Y-83600000D03*
X341350000Y-83600000D03*
X342150000Y-83600000D03*
X342950000Y-83600000D03*
%TD*%
D15*
%TO.C,SW38*%
X256477042Y-183929544D03*
D11*
X251088888Y-182133493D03*
D10*
X247496786Y-185725595D03*
D14*
X247305867Y-185951870D03*
D12*
X244017820Y-181956716D03*
D13*
X257417494Y-181214254D03*
D10*
X254680990Y-178541391D03*
D13*
X255366884Y-186234712D03*
D14*
X255084041Y-178173695D03*
D16*
X251194954Y-182062782D03*
D15*
X250190862Y-186623621D03*
D43*
X245057267Y-179990959D03*
X246047217Y-180980909D03*
X249936304Y-177091822D03*
X248946354Y-176101872D03*
D44*
X259892367Y-178739380D03*
D45*
X259079548Y-181337644D03*
D44*
X252962721Y-188780297D03*
D46*
X247676391Y-189138093D03*
%TD*%
D23*
%TO.C,C33*%
X308044890Y-88331495D03*
X309004890Y-88331495D03*
%TD*%
D47*
%TO.C,J9*%
X167425000Y-99450000D03*
%TD*%
D11*
%TO.C,SW13*%
X80991888Y-134211495D03*
D14*
X75616888Y-134236495D03*
D10*
X86071888Y-134211495D03*
D12*
X76116888Y-129086495D03*
D10*
X75911888Y-134211495D03*
D13*
X86116888Y-138036495D03*
D14*
X86616888Y-134236495D03*
D16*
X81116888Y-134236495D03*
D15*
X77181888Y-136751495D03*
D13*
X81116888Y-140136495D03*
D15*
X83531888Y-139291495D03*
D17*
X78241888Y-128431495D03*
X78241888Y-129831495D03*
X83741888Y-129831495D03*
X83741888Y-128431495D03*
D18*
X87204888Y-139298995D03*
D19*
X89616888Y-138036495D03*
X77616888Y-140236495D03*
D20*
X73625888Y-136751495D03*
%TD*%
D37*
%TO.C,J3*%
X165510000Y-79650000D03*
%TD*%
D48*
%TO.C,J16*%
X183641890Y-109836492D03*
X184341890Y-109836492D03*
X185041890Y-109836492D03*
X185741890Y-109836492D03*
X186441890Y-109836492D03*
X187141890Y-109836492D03*
X187841890Y-109836492D03*
X188541890Y-109836492D03*
X189241890Y-109836492D03*
X189941890Y-109836492D03*
X190641890Y-109836492D03*
X191341890Y-109836492D03*
%TD*%
D49*
%TO.C,R12*%
X302625000Y-76100000D03*
X302625000Y-79200000D03*
%TD*%
D50*
%TO.C,TP2*%
X275486889Y-94036492D03*
%TD*%
D10*
%TO.C,SW10*%
X56971889Y-181836494D03*
D13*
X57016889Y-185661494D03*
D15*
X54431889Y-186916494D03*
X48081889Y-184376494D03*
D11*
X51891889Y-181836494D03*
D16*
X52016889Y-181861494D03*
D12*
X47016889Y-176711494D03*
D10*
X46811889Y-181836494D03*
D14*
X46516889Y-181861494D03*
D13*
X52016889Y-187761494D03*
D14*
X57516889Y-181861494D03*
D17*
X49141889Y-176056494D03*
X49141889Y-177456494D03*
X54641889Y-177456494D03*
X54641889Y-176056494D03*
D18*
X58104889Y-186923994D03*
D19*
X60516889Y-185661494D03*
D20*
X44525889Y-184376494D03*
D19*
X48516889Y-187861494D03*
%TD*%
D51*
%TO.C,R1*%
X58240000Y-89280000D03*
X59260000Y-89280000D03*
%TD*%
D11*
%TO.C,SW31*%
X157191888Y-106291491D03*
D16*
X157316888Y-106316491D03*
D10*
X162271888Y-106291491D03*
X152111888Y-106291491D03*
D13*
X162316888Y-110116491D03*
D14*
X151816888Y-106316491D03*
D12*
X152316888Y-101166491D03*
D15*
X153381888Y-108831491D03*
X159731888Y-111371491D03*
D13*
X157316888Y-112216491D03*
D14*
X162816888Y-106316491D03*
D17*
X154441888Y-100511491D03*
X154441888Y-101911491D03*
X159941888Y-101911491D03*
X159941888Y-100511491D03*
D19*
X165816888Y-110116491D03*
D18*
X163404888Y-111378991D03*
D20*
X149825888Y-108831491D03*
D19*
X153816888Y-112316491D03*
%TD*%
D21*
%TO.C,RN3*%
X53050000Y-96250000D03*
X52250000Y-96250000D03*
X51450000Y-96250000D03*
X50650000Y-96250000D03*
X50650000Y-97950000D03*
X51450000Y-97950000D03*
X52250000Y-97950000D03*
X53050000Y-97950000D03*
%TD*%
D36*
%TO.C,C23*%
X260491891Y-79436494D03*
X260491891Y-80396494D03*
%TD*%
D21*
%TO.C,RN18*%
X353175000Y-171225000D03*
X352375000Y-171225000D03*
X351575000Y-171225000D03*
X350775000Y-171225000D03*
X350775000Y-172925000D03*
X351575000Y-172925000D03*
X352375000Y-172925000D03*
X353175000Y-172925000D03*
%TD*%
D23*
%TO.C,C45*%
X346144888Y-126431497D03*
X347104888Y-126431497D03*
%TD*%
%TO.C,C83*%
X46161892Y-141356491D03*
X47121892Y-141356491D03*
%TD*%
D36*
%TO.C,C59*%
X333250000Y-166680000D03*
X333250000Y-167640000D03*
%TD*%
%TO.C,C4*%
X88340000Y-73240000D03*
X88340000Y-74200000D03*
%TD*%
D10*
%TO.C,SW34*%
X163289296Y-169001492D03*
D15*
X154320330Y-166756197D03*
D10*
X154490478Y-163921492D03*
D16*
X158985640Y-166545643D03*
D14*
X154222500Y-163795643D03*
X163748780Y-169295643D03*
D12*
X157230513Y-159585612D03*
D11*
X158889887Y-166461492D03*
D15*
X158549592Y-172130901D03*
D13*
X156035640Y-171655193D03*
X161415767Y-172336539D03*
D52*
X163461457Y-164043301D03*
X164161457Y-162830865D03*
X159398317Y-160080865D03*
X158698317Y-161293301D03*
D53*
X161726753Y-173973896D03*
D54*
X164446856Y-174086539D03*
D55*
X151240744Y-164978197D03*
D54*
X152954551Y-169991795D03*
%TD*%
D47*
%TO.C,J11*%
X167425001Y-89289999D03*
%TD*%
D14*
%TO.C,SW7*%
X67566889Y-124711493D03*
D11*
X61941889Y-124686493D03*
D15*
X58131889Y-127226493D03*
D10*
X67021889Y-124686493D03*
D12*
X57066889Y-119561493D03*
D10*
X56861889Y-124686493D03*
D15*
X64481889Y-129766493D03*
D13*
X67066889Y-128511493D03*
D16*
X62066889Y-124711493D03*
D13*
X62066889Y-130611493D03*
D14*
X56566889Y-124711493D03*
D17*
X64691889Y-120306493D03*
X64691889Y-118906493D03*
X59191889Y-118906493D03*
X59191889Y-120306493D03*
D19*
X70566889Y-128511493D03*
D18*
X68154889Y-129773993D03*
D20*
X54575889Y-127226493D03*
D19*
X58566889Y-130711493D03*
%TD*%
D15*
%TO.C,SW45*%
X294764889Y-103577496D03*
D10*
X297304889Y-98497496D03*
D15*
X288414889Y-101037496D03*
D13*
X292349889Y-104422496D03*
X297349889Y-102322496D03*
D11*
X292224889Y-98497496D03*
D12*
X287349889Y-93372496D03*
D14*
X286849889Y-98522496D03*
D10*
X287144889Y-98497496D03*
D14*
X297849889Y-98522496D03*
D16*
X292349889Y-98522496D03*
D17*
X294974889Y-94117496D03*
X294974889Y-92717496D03*
X289474889Y-92717496D03*
X289474889Y-94117496D03*
D19*
X300849889Y-102322496D03*
D18*
X298437889Y-103584996D03*
D20*
X284858889Y-101037496D03*
D19*
X288849889Y-104522496D03*
%TD*%
D36*
%TO.C,C24*%
X170111892Y-79456493D03*
X170111892Y-80416493D03*
%TD*%
D23*
%TO.C,C31*%
X346144891Y-88331494D03*
X347104891Y-88331494D03*
%TD*%
D56*
%TO.C,TP11*%
X319450000Y-71950000D03*
%TD*%
D21*
%TO.C,RN11*%
X125300000Y-86750000D03*
X124500000Y-86750000D03*
X123700000Y-86750000D03*
X122900000Y-86750000D03*
X122900000Y-88450000D03*
X123700000Y-88450000D03*
X124500000Y-88450000D03*
X125300000Y-88450000D03*
%TD*%
%TO.C,RN16*%
X262375000Y-160400000D03*
X261575000Y-160400000D03*
X260775000Y-160400000D03*
X259975000Y-160400000D03*
X259975000Y-162100000D03*
X260775000Y-162100000D03*
X261575000Y-162100000D03*
X262375000Y-162100000D03*
%TD*%
D56*
%TO.C,TP9*%
X306700000Y-72000000D03*
%TD*%
D42*
%TO.C,IC2*%
X275310000Y-85160000D03*
X275810000Y-85160000D03*
X276310000Y-85160000D03*
X275310000Y-85660000D03*
X275810000Y-85660000D03*
X276310000Y-85660000D03*
X275310000Y-86160000D03*
X275810000Y-86160000D03*
X276310000Y-86160000D03*
%TD*%
D23*
%TO.C,C67*%
X154060000Y-88320000D03*
X155020000Y-88320000D03*
%TD*%
D57*
%TO.C,C61*%
X294936356Y-167904233D03*
X295863644Y-167655767D03*
%TD*%
D14*
%TO.C,SW27*%
X143766888Y-117572495D03*
D16*
X138266888Y-117572495D03*
D12*
X133266888Y-112422495D03*
D13*
X143266888Y-121372495D03*
D14*
X132766888Y-117572495D03*
D15*
X140681888Y-122627495D03*
D10*
X143221888Y-117547495D03*
D13*
X138266888Y-123472495D03*
D15*
X134331888Y-120087495D03*
D10*
X133061888Y-117547495D03*
D11*
X138141888Y-117547495D03*
D17*
X140891888Y-113167495D03*
X140891888Y-111767495D03*
X135391888Y-111767495D03*
X135391888Y-113167495D03*
D19*
X146766888Y-121372495D03*
D18*
X144354888Y-122634995D03*
D20*
X130775888Y-120087495D03*
D19*
X134766888Y-123572495D03*
%TD*%
D23*
%TO.C,C32*%
X327194890Y-83563493D03*
X328154890Y-83563493D03*
%TD*%
D58*
%TO.C,U14*%
X310950000Y-74887500D03*
X311900000Y-74887500D03*
X312850000Y-74887500D03*
X312850000Y-72612500D03*
X310950000Y-72612500D03*
%TD*%
D13*
%TO.C,SW48*%
X292349889Y-161572496D03*
D15*
X288414889Y-158187496D03*
D10*
X297304889Y-155647496D03*
D15*
X294764889Y-160727496D03*
D13*
X297349889Y-159472496D03*
D12*
X287349889Y-150522496D03*
D10*
X287144889Y-155647496D03*
D11*
X292224889Y-155647496D03*
D14*
X297849889Y-155672496D03*
X286849889Y-155672496D03*
D16*
X292349889Y-155672496D03*
D17*
X289474889Y-149867496D03*
X289474889Y-151267496D03*
X294974889Y-151267496D03*
X294974889Y-149867496D03*
D19*
X300849889Y-159472496D03*
D18*
X298437889Y-160734996D03*
D19*
X288849889Y-161672496D03*
D20*
X284858889Y-158187496D03*
%TD*%
D59*
%TO.C,C21*%
X307650001Y-78200000D03*
X305925001Y-78200000D03*
%TD*%
D15*
%TO.C,SW6*%
X58131889Y-108176494D03*
D13*
X62066889Y-111561494D03*
D10*
X56861889Y-105636494D03*
D14*
X56566889Y-105661494D03*
X67566889Y-105661494D03*
D15*
X64481889Y-110716494D03*
D13*
X67066889Y-109461494D03*
D12*
X57066889Y-100511494D03*
D16*
X62066889Y-105661494D03*
D11*
X61941889Y-105636494D03*
D10*
X67021889Y-105636494D03*
D17*
X59191889Y-99856494D03*
X59191889Y-101256494D03*
X64691889Y-101256494D03*
X64691889Y-99856494D03*
D18*
X68154889Y-110723994D03*
D19*
X70566889Y-109461494D03*
D20*
X54575889Y-108176494D03*
D19*
X58566889Y-111661494D03*
%TD*%
D56*
%TO.C,TP8*%
X162800000Y-66800000D03*
%TD*%
D11*
%TO.C,SW54*%
X321324889Y-172836495D03*
D13*
X326449889Y-176661495D03*
D10*
X316244889Y-172836495D03*
D16*
X321449889Y-172861495D03*
D15*
X323864889Y-177916495D03*
D10*
X326404889Y-172836495D03*
D14*
X326949889Y-172861495D03*
D13*
X321449889Y-178761495D03*
D14*
X315949889Y-172861495D03*
D12*
X316449889Y-167711495D03*
D15*
X317514889Y-175376495D03*
D17*
X324074889Y-168456495D03*
X324074889Y-167056495D03*
X318574889Y-167056495D03*
X318574889Y-168456495D03*
D19*
X329949889Y-176661495D03*
D18*
X327537889Y-177923995D03*
D20*
X313958889Y-175376495D03*
D19*
X317949889Y-178861495D03*
%TD*%
D13*
%TO.C,SW53*%
X311399894Y-159186493D03*
D12*
X306399894Y-148136493D03*
D11*
X311274894Y-153261493D03*
D14*
X316899894Y-153286493D03*
D10*
X316354894Y-153261493D03*
D16*
X311399894Y-153286493D03*
D13*
X316399894Y-157086493D03*
D10*
X306194894Y-153261493D03*
D14*
X305899894Y-153286493D03*
D15*
X307464894Y-155801493D03*
X313814894Y-158341493D03*
D17*
X308524894Y-147481493D03*
X308524894Y-148881493D03*
X314024894Y-148881493D03*
X314024894Y-147481493D03*
D19*
X319899894Y-157086493D03*
D18*
X317487894Y-158348993D03*
D20*
X303908894Y-155801493D03*
D19*
X307899894Y-159286493D03*
%TD*%
D16*
%TO.C,SW57*%
X330549887Y-129468491D03*
D15*
X332964887Y-134523491D03*
D14*
X336049887Y-129468491D03*
D13*
X330549887Y-135368491D03*
D14*
X325049887Y-129468491D03*
D11*
X330424887Y-129443491D03*
D13*
X335549887Y-133268491D03*
D10*
X335504887Y-129443491D03*
X325344887Y-129443491D03*
D12*
X325549887Y-124318491D03*
D15*
X326614887Y-131983491D03*
D17*
X333174887Y-125063491D03*
X333174887Y-123663491D03*
X327674887Y-123663491D03*
X327674887Y-125063491D03*
D19*
X339049887Y-133268491D03*
D18*
X336637887Y-134530991D03*
D19*
X327049887Y-135468491D03*
D20*
X323058887Y-131983491D03*
%TD*%
D13*
%TO.C,SW24*%
X124216889Y-157086493D03*
D14*
X124716889Y-153286493D03*
D15*
X115281889Y-155801493D03*
D12*
X114216889Y-148136493D03*
D13*
X119216889Y-159186493D03*
D14*
X113716889Y-153286493D03*
D10*
X124171889Y-153261493D03*
D11*
X119091889Y-153261493D03*
D15*
X121631889Y-158341493D03*
D16*
X119216889Y-153286493D03*
D10*
X114011889Y-153261493D03*
D17*
X121841889Y-148881493D03*
X121841889Y-147481493D03*
X116341889Y-147481493D03*
X116341889Y-148881493D03*
D18*
X125304889Y-158348993D03*
D19*
X127716889Y-157086493D03*
D20*
X111725889Y-155801493D03*
D19*
X115716889Y-159286493D03*
%TD*%
D13*
%TO.C,SW69*%
X383599888Y-185661494D03*
D14*
X384099888Y-181861494D03*
D15*
X381014888Y-186916494D03*
D12*
X373599888Y-176711494D03*
D10*
X373394888Y-181836494D03*
D16*
X378599888Y-181861494D03*
D10*
X383554888Y-181836494D03*
D13*
X378599888Y-187761494D03*
D15*
X374664888Y-184376494D03*
D14*
X373099888Y-181861494D03*
D11*
X378474888Y-181836494D03*
D17*
X381224888Y-177456494D03*
X381224888Y-176056494D03*
X375724888Y-176056494D03*
X375724888Y-177456494D03*
D18*
X384687888Y-186923994D03*
D19*
X387099888Y-185661494D03*
D20*
X371108888Y-184376494D03*
D19*
X375099888Y-187861494D03*
%TD*%
D60*
%TO.C,TP3*%
X166790000Y-91830003D03*
%TD*%
D15*
%TO.C,SW32*%
X153381888Y-127881495D03*
D16*
X157316888Y-125366495D03*
D12*
X152316888Y-120216495D03*
D15*
X159731888Y-130421495D03*
D13*
X162316888Y-129166495D03*
D14*
X151816888Y-125366495D03*
D11*
X157191888Y-125341495D03*
D14*
X162816888Y-125366495D03*
D13*
X157316888Y-131266495D03*
D10*
X162271888Y-125341495D03*
X152111888Y-125341495D03*
D17*
X159941888Y-120961495D03*
X159941888Y-119561495D03*
X154441888Y-119561495D03*
X154441888Y-120961495D03*
D19*
X165816888Y-129166495D03*
D18*
X163404888Y-130428995D03*
D19*
X153816888Y-131366495D03*
D20*
X149825888Y-127881495D03*
%TD*%
D61*
%TO.C,R15*%
X243800000Y-157290000D03*
X243800000Y-158310000D03*
%TD*%
D13*
%TO.C,SW56*%
X335549889Y-114218494D03*
D16*
X330549889Y-110418494D03*
D15*
X326614889Y-112933494D03*
D14*
X336049889Y-110418494D03*
D13*
X330549889Y-116318494D03*
D10*
X335504889Y-110393494D03*
D12*
X325549889Y-105268494D03*
D11*
X330424889Y-110393494D03*
D10*
X325344889Y-110393494D03*
D15*
X332964889Y-115473494D03*
D14*
X325049889Y-110418494D03*
D17*
X327674889Y-104613494D03*
X327674889Y-106013494D03*
X333174889Y-106013494D03*
X333174889Y-104613494D03*
D18*
X336637889Y-115480994D03*
D19*
X339049889Y-114218494D03*
X327049889Y-116418494D03*
D20*
X323058889Y-112933494D03*
%TD*%
D62*
%TO.C,C15*%
X161400000Y-92780000D03*
X161400000Y-91820000D03*
%TD*%
D23*
%TO.C,C46*%
X327194887Y-121663491D03*
X328154887Y-121663491D03*
%TD*%
D11*
%TO.C,SW59*%
X340374890Y-172836495D03*
D13*
X345499890Y-176661495D03*
D15*
X336564890Y-175376495D03*
D13*
X340499890Y-178761495D03*
D10*
X345454890Y-172836495D03*
D15*
X342914890Y-177916495D03*
D12*
X335499890Y-167711495D03*
D14*
X345999890Y-172861495D03*
D16*
X340499890Y-172861495D03*
D10*
X335294890Y-172836495D03*
D14*
X334999890Y-172861495D03*
D17*
X343124890Y-168456495D03*
X343124890Y-167056495D03*
X337624890Y-167056495D03*
X337624890Y-168456495D03*
D18*
X346587890Y-177923995D03*
D19*
X348999890Y-176661495D03*
X336999890Y-178861495D03*
D20*
X333008890Y-175376495D03*
%TD*%
D23*
%TO.C,C101*%
X154456458Y-182541086D03*
X155416458Y-182541086D03*
%TD*%
%TO.C,C50*%
X269944889Y-136611493D03*
X270904889Y-136611493D03*
%TD*%
D36*
%TO.C,C11*%
X351400000Y-162815000D03*
X351400000Y-163775000D03*
%TD*%
D10*
%TO.C,SW58*%
X325344891Y-148493494D03*
D11*
X330424891Y-148493494D03*
D13*
X335549891Y-152318494D03*
D15*
X332964891Y-153573494D03*
D13*
X330549891Y-154418494D03*
D14*
X336049891Y-148518494D03*
X325049891Y-148518494D03*
D10*
X335504891Y-148493494D03*
D12*
X325549891Y-143368494D03*
D15*
X326614891Y-151033494D03*
D16*
X330549891Y-148518494D03*
D17*
X327674891Y-142713494D03*
X327674891Y-144113494D03*
X333174891Y-144113494D03*
X333174891Y-142713494D03*
D19*
X339049891Y-152318494D03*
D18*
X336637891Y-153580994D03*
D19*
X327049891Y-154518494D03*
D20*
X323058891Y-151033494D03*
%TD*%
D23*
%TO.C,C72*%
X103311891Y-88963490D03*
X104271891Y-88963490D03*
%TD*%
%TO.C,C55*%
X371694887Y-160406493D03*
X372654887Y-160406493D03*
%TD*%
D36*
%TO.C,C1*%
X47100000Y-88900000D03*
X47100000Y-89860000D03*
%TD*%
D23*
%TO.C,C48*%
X288994891Y-128817495D03*
X289954891Y-128817495D03*
%TD*%
D63*
%TO.C,R3*%
X381760624Y-86760624D03*
X381039376Y-86039376D03*
%TD*%
D36*
%TO.C,C17*%
X156800000Y-92870000D03*
X156800000Y-93830000D03*
%TD*%
D21*
%TO.C,RN20*%
X357025000Y-171225000D03*
X356225000Y-171225000D03*
X355425000Y-171225000D03*
X354625000Y-171225000D03*
X354625000Y-172925000D03*
X355425000Y-172925000D03*
X356225000Y-172925000D03*
X357025000Y-172925000D03*
%TD*%
D36*
%TO.C,C5*%
X336650000Y-73770000D03*
X336650000Y-74730000D03*
%TD*%
D64*
%TO.C,C3*%
X164880000Y-77280000D03*
X166780000Y-77280000D03*
%TD*%
D26*
%TO.C,U8*%
X89400891Y-78745990D03*
X90050891Y-78745990D03*
X90700891Y-78745990D03*
X91350891Y-78745990D03*
X92000891Y-78745990D03*
X92650891Y-78745990D03*
X93300891Y-78745990D03*
X93950891Y-78745990D03*
X93950891Y-73020990D03*
X93300891Y-73020990D03*
X92650891Y-73020990D03*
X92000891Y-73020990D03*
X91350891Y-73020990D03*
X90700891Y-73020990D03*
X90050891Y-73020990D03*
X89400891Y-73020990D03*
%TD*%
D65*
%TO.C,D2*%
X307650000Y-79650000D03*
X307650000Y-80300000D03*
X307650000Y-80950000D03*
X309850000Y-80950000D03*
X309850000Y-80300000D03*
X309850000Y-79650000D03*
%TD*%
D66*
%TO.C,FB1*%
X252525000Y-69000000D03*
X250475000Y-69000000D03*
%TD*%
D21*
%TO.C,RN17*%
X74230000Y-170500000D03*
X73430000Y-170500000D03*
X72630000Y-170500000D03*
X71830000Y-170500000D03*
X71830000Y-172200000D03*
X72630000Y-172200000D03*
X73430000Y-172200000D03*
X74230000Y-172200000D03*
%TD*%
D23*
%TO.C,C78*%
X115861890Y-107381492D03*
X116821890Y-107381492D03*
%TD*%
D14*
%TO.C,SW46*%
X286849890Y-117572495D03*
D13*
X292349890Y-123472495D03*
D16*
X292349890Y-117572495D03*
D13*
X297349890Y-121372495D03*
D15*
X294764890Y-122627495D03*
D14*
X297849890Y-117572495D03*
D15*
X288414890Y-120087495D03*
D10*
X287144890Y-117547495D03*
X297304890Y-117547495D03*
D11*
X292224890Y-117547495D03*
D12*
X287349890Y-112422495D03*
D17*
X289474890Y-111767495D03*
X289474890Y-113167495D03*
X294974890Y-113167495D03*
X294974890Y-111767495D03*
D18*
X298437890Y-122634995D03*
D19*
X300849890Y-121372495D03*
D20*
X284858890Y-120087495D03*
D19*
X288849890Y-123572495D03*
%TD*%
D67*
%TO.C,U10*%
X149225000Y-89695000D03*
X149225000Y-90965000D03*
X149225000Y-92235000D03*
X149225000Y-93505000D03*
X154175000Y-93505000D03*
X154175000Y-92235000D03*
X154175000Y-90965000D03*
X154175000Y-89695000D03*
%TD*%
D61*
%TO.C,R9*%
X189450000Y-157290000D03*
X189450000Y-158310000D03*
%TD*%
D12*
%TO.C,SW33*%
X152316889Y-139266493D03*
D14*
X151816889Y-144416493D03*
D13*
X157316889Y-150316493D03*
D15*
X159731889Y-149471493D03*
D10*
X152111889Y-144391493D03*
D11*
X157191889Y-144391493D03*
D16*
X157316889Y-144416493D03*
D14*
X162816889Y-144416493D03*
D10*
X162271889Y-144391493D03*
D13*
X162316889Y-148216493D03*
D15*
X153381889Y-146931493D03*
D17*
X159941889Y-140011493D03*
X159941889Y-138611493D03*
X154441889Y-138611493D03*
X154441889Y-140011493D03*
D18*
X163404889Y-149478993D03*
D19*
X165816889Y-148216493D03*
X153816889Y-150416493D03*
D20*
X149825889Y-146931493D03*
%TD*%
D68*
%TO.C,U2*%
X131965013Y-68399806D03*
X131965013Y-70939806D03*
X131965013Y-73479806D03*
X131965013Y-76019806D03*
X131965013Y-78559806D03*
X131965013Y-81099806D03*
X131965013Y-83639806D03*
X148129573Y-83639806D03*
X148129573Y-81099806D03*
X148129573Y-78559806D03*
X148129573Y-76019806D03*
X148129573Y-73479806D03*
X148129573Y-70939806D03*
X148129573Y-68399806D03*
D69*
X138831893Y-84717626D03*
X141381893Y-84717626D03*
D70*
X138830696Y-67713439D03*
X141370696Y-67713439D03*
X138830696Y-70253439D03*
X141370696Y-70253439D03*
%TD*%
D49*
%TO.C,R13*%
X301950000Y-81100000D03*
X301950000Y-84200000D03*
%TD*%
D10*
%TO.C,SW68*%
X363344887Y-162786493D03*
D13*
X373549887Y-166611493D03*
D15*
X370964887Y-167866493D03*
D13*
X368549887Y-168711493D03*
D10*
X373504887Y-162786493D03*
D14*
X374049887Y-162811493D03*
D12*
X363549887Y-157661493D03*
D16*
X368549887Y-162811493D03*
D15*
X364614887Y-165326493D03*
D11*
X368424887Y-162786493D03*
D14*
X363049887Y-162811493D03*
D17*
X365674887Y-157006493D03*
X365674887Y-158406493D03*
X371174887Y-158406493D03*
X371174887Y-157006493D03*
D19*
X377049887Y-166611493D03*
D18*
X374637887Y-167873993D03*
D19*
X365049887Y-168811493D03*
D20*
X361058887Y-165326493D03*
%TD*%
D13*
%TO.C,SW71*%
X387599887Y-130611492D03*
D12*
X382599887Y-119561492D03*
D16*
X387599887Y-124711492D03*
D14*
X382099887Y-124711492D03*
D15*
X383664887Y-127226492D03*
D11*
X387474887Y-124686492D03*
D10*
X392554887Y-124686492D03*
X382394887Y-124686492D03*
D13*
X392599887Y-128511492D03*
D15*
X390014887Y-129766492D03*
D14*
X393099887Y-124711492D03*
D17*
X384724887Y-118906492D03*
X384724887Y-120306492D03*
X390224887Y-120306492D03*
X390224887Y-118906492D03*
D19*
X396099887Y-128511492D03*
D18*
X393687887Y-129773992D03*
D20*
X380108887Y-127226492D03*
D19*
X384099887Y-130711492D03*
%TD*%
D23*
%TO.C,C76*%
X153961888Y-117561495D03*
X154921888Y-117561495D03*
%TD*%
D71*
%TO.C,J6*%
X244546891Y-155235993D03*
X244046891Y-155235993D03*
X243546891Y-155235993D03*
X243046891Y-155235993D03*
X242546891Y-155235993D03*
X242046891Y-155235993D03*
X241546891Y-155235993D03*
X241046891Y-155235993D03*
X240546891Y-155235993D03*
X240046891Y-155235993D03*
X239546891Y-155235993D03*
X239046891Y-155235993D03*
D72*
X237246891Y-152511993D03*
X246346891Y-152511993D03*
%TD*%
D73*
%TO.C,F1*%
X155250000Y-70800000D03*
X158050000Y-70800000D03*
%TD*%
D74*
%TO.C,U4*%
X261498407Y-75712303D03*
X260548407Y-75712303D03*
X259598407Y-75712303D03*
X259598407Y-77987303D03*
X260548407Y-77987303D03*
X261498407Y-77987303D03*
%TD*%
D23*
%TO.C,C74*%
X141411888Y-96117495D03*
X142371888Y-96117495D03*
%TD*%
D26*
%TO.C,U15*%
X257417513Y-158280112D03*
X258067513Y-158280112D03*
X258717513Y-158280112D03*
X259367513Y-158280112D03*
X260017513Y-158280112D03*
X260667513Y-158280112D03*
X261317513Y-158280112D03*
X261967513Y-158280112D03*
X261967513Y-152555112D03*
X261317513Y-152555112D03*
X260667513Y-152555112D03*
X260017513Y-152555112D03*
X259367513Y-152555112D03*
X258717513Y-152555112D03*
X258067513Y-152555112D03*
X257417513Y-152555112D03*
%TD*%
D75*
%TO.C,R4*%
X149852500Y-94850000D03*
X151047500Y-94850000D03*
%TD*%
D76*
%TO.C,J10*%
X278026892Y-93401492D03*
%TD*%
D23*
%TO.C,C102*%
X171369176Y-196494293D03*
X172329176Y-196494293D03*
%TD*%
D77*
%TO.C,S2*%
X233146397Y-176336324D03*
X235833402Y-179023329D03*
D78*
X237990078Y-178422289D03*
X233747437Y-174179648D03*
D79*
X238166855Y-180649675D03*
X231520051Y-174002871D03*
D80*
X235600057Y-181773975D03*
D81*
X230395751Y-176569669D03*
D78*
X236575865Y-177008075D03*
X235161651Y-175593861D03*
%TD*%
D68*
%TO.C,U16*%
X282548410Y-68349800D03*
X282548410Y-70889800D03*
X282548410Y-73429800D03*
X282548410Y-75969800D03*
X282548410Y-78509800D03*
X282548410Y-81049800D03*
X282548410Y-83589800D03*
X298712970Y-83589800D03*
X298712970Y-81049800D03*
X298712970Y-78509800D03*
X298712970Y-75969800D03*
X298712970Y-73429800D03*
X298712970Y-70889800D03*
X298712970Y-68349800D03*
D69*
X289415290Y-84667620D03*
X291965290Y-84667620D03*
D70*
X289414093Y-67663433D03*
X291954093Y-67663433D03*
X289414093Y-70203433D03*
X291954093Y-70203433D03*
%TD*%
D14*
%TO.C,SW8*%
X56566889Y-143761495D03*
D13*
X62066889Y-149661495D03*
D10*
X67021889Y-143736495D03*
X56861889Y-143736495D03*
D16*
X62066889Y-143761495D03*
D15*
X58131889Y-146276495D03*
D14*
X67566889Y-143761495D03*
D12*
X57066889Y-138611495D03*
D11*
X61941889Y-143736495D03*
D15*
X64481889Y-148816495D03*
D13*
X67066889Y-147561495D03*
D17*
X59191889Y-137956495D03*
X59191889Y-139356495D03*
X64691889Y-139356495D03*
X64691889Y-137956495D03*
D19*
X70566889Y-147561495D03*
D18*
X68154889Y-148823995D03*
D20*
X54575889Y-146276495D03*
D19*
X58566889Y-149761495D03*
%TD*%
D82*
%TO.C,C65*%
X195187500Y-71500000D03*
X196912500Y-71500000D03*
%TD*%
D23*
%TO.C,C94*%
X58711887Y-155006494D03*
X59671887Y-155006494D03*
%TD*%
D83*
%TO.C,R11*%
X280486889Y-77588992D03*
X280486889Y-78783992D03*
%TD*%
D13*
%TO.C,SW29*%
X143266886Y-159472497D03*
D12*
X133266886Y-150522497D03*
D10*
X133061886Y-155647497D03*
D13*
X138266886Y-161572497D03*
D14*
X143766886Y-155672497D03*
D16*
X138266886Y-155672497D03*
D15*
X140681886Y-160727497D03*
D10*
X143221886Y-155647497D03*
D15*
X134331886Y-158187497D03*
D14*
X132766886Y-155672497D03*
D11*
X138141886Y-155647497D03*
D17*
X140891886Y-151267497D03*
X140891886Y-149867497D03*
X135391886Y-149867497D03*
X135391886Y-151267497D03*
D18*
X144354886Y-160734997D03*
D19*
X146766886Y-159472497D03*
X134766886Y-161672497D03*
D20*
X130775886Y-158187497D03*
%TD*%
D84*
%TO.C,SW5*%
X37625889Y-181226494D03*
X37625889Y-187526494D03*
X41425889Y-181226494D03*
X41425889Y-187526494D03*
%TD*%
D23*
%TO.C,C89*%
X153961889Y-136611493D03*
X154921889Y-136611493D03*
%TD*%
D14*
%TO.C,SW55*%
X336049890Y-91368493D03*
X325049890Y-91368493D03*
D11*
X330424890Y-91343493D03*
D10*
X335504890Y-91343493D03*
X325344890Y-91343493D03*
D15*
X326614890Y-93883493D03*
X332964890Y-96423493D03*
D12*
X325549890Y-86218493D03*
D16*
X330549890Y-91368493D03*
D13*
X330549890Y-97268493D03*
X335549890Y-95168493D03*
D17*
X333174890Y-86963493D03*
X333174890Y-85563493D03*
X327674890Y-85563493D03*
X327674890Y-86963493D03*
D19*
X339049890Y-95168493D03*
D18*
X336637890Y-96430993D03*
D19*
X327049890Y-97368493D03*
D20*
X323058890Y-93883493D03*
%TD*%
D15*
%TO.C,SW26*%
X140681888Y-103577495D03*
D11*
X138141888Y-98497495D03*
D15*
X134331888Y-101037495D03*
D10*
X143221888Y-98497495D03*
D13*
X138266888Y-104422495D03*
D14*
X143766888Y-98522495D03*
D13*
X143266888Y-102322495D03*
D12*
X133266888Y-93372495D03*
D14*
X132766888Y-98522495D03*
D16*
X138266888Y-98522495D03*
D10*
X133061888Y-98497495D03*
D17*
X135391888Y-92717495D03*
X135391888Y-94117495D03*
X140891888Y-94117495D03*
X140891888Y-92717495D03*
D18*
X144354888Y-103584995D03*
D19*
X146766888Y-102322495D03*
X134766888Y-104522495D03*
D20*
X130775888Y-101037495D03*
%TD*%
D23*
%TO.C,C100*%
X134461814Y-173501492D03*
X135421814Y-173501492D03*
%TD*%
D12*
%TO.C,SW9*%
X57066887Y-157661494D03*
D13*
X67066887Y-166611494D03*
D14*
X67566887Y-162811494D03*
D13*
X62066887Y-168711494D03*
D16*
X62066887Y-162811494D03*
D15*
X58131887Y-165326494D03*
D14*
X56566887Y-162811494D03*
D10*
X67021887Y-162786494D03*
X56861887Y-162786494D03*
D11*
X61941887Y-162786494D03*
D15*
X64481887Y-167866494D03*
D17*
X64691887Y-158406494D03*
X64691887Y-157006494D03*
X59191887Y-157006494D03*
X59191887Y-158406494D03*
D18*
X68154887Y-167873994D03*
D19*
X70566887Y-166611494D03*
D20*
X54575887Y-165326494D03*
D19*
X58566887Y-168811494D03*
%TD*%
D23*
%TO.C,C75*%
X160461888Y-103911491D03*
X161421888Y-103911491D03*
%TD*%
D21*
%TO.C,RN7*%
X94210000Y-81500000D03*
X93410000Y-81500000D03*
X92610000Y-81500000D03*
X91810000Y-81500000D03*
X91810000Y-83200000D03*
X92610000Y-83200000D03*
X93410000Y-83200000D03*
X94210000Y-83200000D03*
%TD*%
D23*
%TO.C,C73*%
X122361892Y-93731493D03*
X123321892Y-93731493D03*
%TD*%
%TO.C,C79*%
X96811888Y-102613494D03*
X97771888Y-102613494D03*
%TD*%
D10*
%TO.C,SW63*%
X344294887Y-153261497D03*
D15*
X345564887Y-155801497D03*
D14*
X354999887Y-153286497D03*
D12*
X344499887Y-148136497D03*
D11*
X349374887Y-153261497D03*
D15*
X351914887Y-158341497D03*
D10*
X354454887Y-153261497D03*
D14*
X343999887Y-153286497D03*
D13*
X349499887Y-159186497D03*
D16*
X349499887Y-153286497D03*
D13*
X354499887Y-157086497D03*
D17*
X346624887Y-147481497D03*
X346624887Y-148881497D03*
X352124887Y-148881497D03*
X352124887Y-147481497D03*
D18*
X355587887Y-158348997D03*
D19*
X357999887Y-157086497D03*
D20*
X342008887Y-155801497D03*
D19*
X345999887Y-159286497D03*
%TD*%
D21*
%TO.C,RN14*%
X258475000Y-160400000D03*
X257675000Y-160400000D03*
X256875000Y-160400000D03*
X256075000Y-160400000D03*
X256075000Y-162100000D03*
X256875000Y-162100000D03*
X257675000Y-162100000D03*
X258475000Y-162100000D03*
%TD*%
D12*
%TO.C,SW23*%
X114216889Y-129086490D03*
D10*
X124171889Y-134211490D03*
X114011889Y-134211490D03*
D14*
X113716889Y-134236490D03*
D15*
X115281889Y-136751490D03*
D13*
X124216889Y-138036490D03*
D11*
X119091889Y-134211490D03*
D13*
X119216889Y-140136490D03*
D14*
X124716889Y-134236490D03*
D16*
X119216889Y-134236490D03*
D15*
X121631889Y-139291490D03*
D17*
X116341889Y-128431490D03*
X116341889Y-129831490D03*
X121841889Y-129831490D03*
X121841889Y-128431490D03*
D18*
X125304889Y-139298990D03*
D19*
X127716889Y-138036490D03*
X115716889Y-140236490D03*
D20*
X111725889Y-136751490D03*
%TD*%
D56*
%TO.C,TP7*%
X160500000Y-66900000D03*
%TD*%
D83*
%TO.C,R17*%
X311250000Y-79502501D03*
X311250000Y-80697501D03*
%TD*%
D85*
%TO.C,C25*%
X241686889Y-106398992D03*
X241686889Y-104673992D03*
%TD*%
D23*
%TO.C,C82*%
X39661889Y-116906490D03*
X40621889Y-116906490D03*
%TD*%
%TO.C,C93*%
X77761886Y-145481495D03*
X78721886Y-145481495D03*
%TD*%
%TO.C,C91*%
X115861889Y-145481493D03*
X116821889Y-145481493D03*
%TD*%
%TO.C,C29*%
X384244888Y-97856491D03*
X385204888Y-97856491D03*
%TD*%
%TO.C,C35*%
X269944889Y-98511494D03*
X270904889Y-98511494D03*
%TD*%
D85*
%TO.C,C26*%
X186300000Y-106500000D03*
X186300000Y-104775000D03*
%TD*%
D86*
%TO.C,Q2*%
X381850000Y-90437500D03*
X383750000Y-90437500D03*
X382800000Y-88562500D03*
%TD*%
D87*
%TO.C,R18*%
X239646891Y-106323993D03*
X239646891Y-103223993D03*
%TD*%
D15*
%TO.C,SW61*%
X351914890Y-120241495D03*
D16*
X349499890Y-115186495D03*
D11*
X349374890Y-115161495D03*
D13*
X349499890Y-121086495D03*
X354499890Y-118986495D03*
D12*
X344499890Y-110036495D03*
D10*
X344294890Y-115161495D03*
X354454890Y-115161495D03*
D14*
X343999890Y-115186495D03*
X354999890Y-115186495D03*
D15*
X345564890Y-117701495D03*
D17*
X346624890Y-109381495D03*
X346624890Y-110781495D03*
X352124890Y-110781495D03*
X352124890Y-109381495D03*
D19*
X357999890Y-118986495D03*
D18*
X355587890Y-120248995D03*
D19*
X345999890Y-121186495D03*
D20*
X342008890Y-117701495D03*
%TD*%
D60*
%TO.C,TP1*%
X166790000Y-96910000D03*
%TD*%
D23*
%TO.C,C71*%
X84261889Y-93731494D03*
X85221889Y-93731494D03*
%TD*%
%TO.C,C96*%
X55161889Y-179456494D03*
X56121889Y-179456494D03*
%TD*%
D36*
%TO.C,C60*%
X314200000Y-166710000D03*
X314200000Y-167670000D03*
%TD*%
D15*
%TO.C,SW70*%
X390014888Y-110716491D03*
X383664888Y-108176491D03*
D13*
X387599888Y-111561491D03*
D10*
X382394888Y-105636491D03*
D14*
X393099888Y-105661491D03*
D10*
X392554888Y-105636491D03*
D11*
X387474888Y-105636491D03*
D12*
X382599888Y-100511491D03*
D13*
X392599888Y-109461491D03*
D16*
X387599888Y-105661491D03*
D14*
X382099888Y-105661491D03*
D17*
X390224888Y-101256491D03*
X390224888Y-99856491D03*
X384724888Y-99856491D03*
X384724888Y-101256491D03*
D18*
X393687888Y-110723991D03*
D19*
X396099888Y-109461491D03*
D20*
X380108888Y-108176491D03*
D19*
X384099888Y-111661491D03*
%TD*%
D13*
%TO.C,SW42*%
X273299889Y-150316493D03*
D11*
X273174889Y-144391493D03*
D10*
X268094889Y-144391493D03*
D14*
X267799889Y-144416493D03*
D10*
X278254889Y-144391493D03*
D13*
X278299889Y-148216493D03*
D14*
X278799889Y-144416493D03*
D15*
X275714889Y-149471493D03*
X269364889Y-146931493D03*
D12*
X268299889Y-139266493D03*
D16*
X273299889Y-144416493D03*
D17*
X275924889Y-140011493D03*
X275924889Y-138611493D03*
X270424889Y-138611493D03*
X270424889Y-140011493D03*
D18*
X279387889Y-149478993D03*
D19*
X281799889Y-148216493D03*
X269799889Y-150416493D03*
D20*
X265808889Y-146931493D03*
%TD*%
D14*
%TO.C,SW51*%
X316899891Y-115186495D03*
D10*
X306194891Y-115161495D03*
D16*
X311399891Y-115186495D03*
D15*
X307464891Y-117701495D03*
D13*
X311399891Y-121086495D03*
D12*
X306399891Y-110036495D03*
D11*
X311274891Y-115161495D03*
D13*
X316399891Y-118986495D03*
D14*
X305899891Y-115186495D03*
D10*
X316354891Y-115161495D03*
D15*
X313814891Y-120241495D03*
D17*
X308524891Y-109381495D03*
X308524891Y-110781495D03*
X314024891Y-110781495D03*
X314024891Y-109381495D03*
D18*
X317487891Y-120248995D03*
D19*
X319899891Y-118986495D03*
X307899891Y-121186495D03*
D20*
X303908891Y-117701495D03*
%TD*%
D23*
%TO.C,C80*%
X77761888Y-107381493D03*
X78721888Y-107381493D03*
%TD*%
%TO.C,C39*%
X333694889Y-108013494D03*
X334654889Y-108013494D03*
%TD*%
D36*
%TO.C,C10*%
X72810000Y-162230000D03*
X72810000Y-163190000D03*
%TD*%
D47*
%TO.C,J7*%
X167270000Y-102340000D03*
%TD*%
D56*
%TO.C,TP12*%
X306650000Y-68800000D03*
%TD*%
D74*
%TO.C,U3*%
X171079571Y-75762308D03*
X170129571Y-75762308D03*
X169179571Y-75762308D03*
X169179571Y-78037308D03*
X170129571Y-78037308D03*
X171079571Y-78037308D03*
%TD*%
D15*
%TO.C,SW14*%
X83531886Y-158341495D03*
D10*
X86071886Y-153261495D03*
D12*
X76116886Y-148136495D03*
D16*
X81116886Y-153286495D03*
D13*
X81116886Y-159186495D03*
D10*
X75911886Y-153261495D03*
D15*
X77181886Y-155801495D03*
D14*
X75616886Y-153286495D03*
D11*
X80991886Y-153261495D03*
D14*
X86616886Y-153286495D03*
D13*
X86116886Y-157086495D03*
D17*
X83741886Y-148881495D03*
X83741886Y-147481495D03*
X78241886Y-147481495D03*
X78241886Y-148881495D03*
D19*
X89616886Y-157086495D03*
D18*
X87204886Y-158348995D03*
D19*
X77616886Y-159286495D03*
D20*
X73625886Y-155801495D03*
%TD*%
D82*
%TO.C,C28*%
X245687500Y-158100000D03*
X247412500Y-158100000D03*
%TD*%
D23*
%TO.C,C86*%
X103311889Y-127063492D03*
X104271889Y-127063492D03*
%TD*%
D48*
%TO.C,J15*%
X238946891Y-109773993D03*
X239646891Y-109773993D03*
X240346891Y-109773993D03*
X241046891Y-109773993D03*
X241746891Y-109773993D03*
X242446891Y-109773993D03*
X243146891Y-109773993D03*
X243846891Y-109773993D03*
X244546891Y-109773993D03*
X245246891Y-109773993D03*
X245946891Y-109773993D03*
X246646891Y-109773993D03*
%TD*%
D88*
%TO.C,FB2*%
X177350000Y-71075000D03*
X177350000Y-69025000D03*
%TD*%
D23*
%TO.C,C47*%
X308044892Y-126431493D03*
X309004892Y-126431493D03*
%TD*%
%TO.C,C88*%
X141411888Y-134217496D03*
X142371888Y-134217496D03*
%TD*%
D65*
%TO.C,D1*%
X158223821Y-74260556D03*
X158223821Y-74910556D03*
X158223821Y-75560556D03*
X160423821Y-75560556D03*
X160423821Y-74910556D03*
X160423821Y-74260556D03*
%TD*%
D89*
%TO.C,C104*%
X156900000Y-157800000D03*
X156068616Y-157320000D03*
%TD*%
D87*
%TO.C,R19*%
X184341890Y-106386492D03*
X184341890Y-103286492D03*
%TD*%
D16*
%TO.C,SW73*%
X387599889Y-162811490D03*
D13*
X387599889Y-168711490D03*
D11*
X387474889Y-162786490D03*
D10*
X392554889Y-162786490D03*
X382394889Y-162786490D03*
D14*
X382099889Y-162811490D03*
D13*
X392599889Y-166611490D03*
D14*
X393099889Y-162811490D03*
D12*
X382599889Y-157661490D03*
D15*
X390014889Y-167866490D03*
X383664889Y-165326490D03*
D17*
X384724889Y-157006490D03*
X384724889Y-158406490D03*
X390224889Y-158406490D03*
X390224889Y-157006490D03*
D19*
X396099889Y-166611490D03*
D18*
X393687889Y-167873990D03*
D20*
X380108889Y-165326490D03*
D19*
X384099889Y-168811490D03*
%TD*%
D23*
%TO.C,C84*%
X65211889Y-141356495D03*
X66171889Y-141356495D03*
%TD*%
D15*
%TO.C,SW28*%
X140681888Y-141677496D03*
X134331888Y-139137496D03*
D14*
X132766888Y-136622496D03*
D11*
X138141888Y-136597496D03*
D12*
X133266888Y-131472496D03*
D16*
X138266888Y-136622496D03*
D14*
X143766888Y-136622496D03*
D13*
X143266888Y-140422496D03*
D10*
X143221888Y-136597496D03*
X133061888Y-136597496D03*
D13*
X138266888Y-142522496D03*
D17*
X135391888Y-130817496D03*
X135391888Y-132217496D03*
X140891888Y-132217496D03*
X140891888Y-130817496D03*
D19*
X146766888Y-140422496D03*
D18*
X144354888Y-141684996D03*
D19*
X134766888Y-142622496D03*
D20*
X130775888Y-139137496D03*
%TD*%
D10*
%TO.C,SW39*%
X268151374Y-192011774D03*
X260967170Y-199195978D03*
D11*
X264559272Y-195603876D03*
D12*
X257488204Y-195427099D03*
D14*
X268554425Y-191644078D03*
X260776251Y-199422253D03*
D15*
X269947426Y-197399927D03*
D13*
X268837268Y-199705095D03*
D15*
X263661246Y-200094004D03*
D13*
X270887878Y-194684637D03*
D16*
X264665338Y-195533165D03*
D90*
X263406688Y-190562205D03*
X262416738Y-189572255D03*
X258527651Y-193461342D03*
X259517601Y-194451292D03*
D44*
X273362751Y-192209763D03*
D45*
X272549932Y-194808027D03*
D46*
X261146775Y-202608476D03*
D44*
X266433105Y-202250680D03*
%TD*%
D23*
%TO.C,C16*%
X275811889Y-83361492D03*
X276771889Y-83361492D03*
%TD*%
D84*
%TO.C,SW74*%
X393999888Y-188811494D03*
X393999888Y-182511494D03*
X390199888Y-182511494D03*
X390199888Y-188811494D03*
%TD*%
D36*
%TO.C,C6*%
X120280000Y-79050000D03*
X120280000Y-80010000D03*
%TD*%
D26*
%TO.C,U9*%
X337774890Y-80030993D03*
X338424890Y-80030993D03*
X339074890Y-80030993D03*
X339724890Y-80030993D03*
X340374890Y-80030993D03*
X341024890Y-80030993D03*
X341674890Y-80030993D03*
X342324890Y-80030993D03*
X342324890Y-74305993D03*
X341674890Y-74305993D03*
X341024890Y-74305993D03*
X340374890Y-74305993D03*
X339724890Y-74305993D03*
X339074890Y-74305993D03*
X338424890Y-74305993D03*
X337774890Y-74305993D03*
%TD*%
D36*
%TO.C,C8*%
X168370000Y-152670000D03*
X168370000Y-153630000D03*
%TD*%
D59*
%TO.C,C20*%
X161586324Y-72310553D03*
X159861324Y-72310553D03*
%TD*%
D14*
%TO.C,SW52*%
X305899892Y-134236493D03*
D10*
X306194892Y-134211493D03*
D15*
X307464892Y-136751493D03*
X313814892Y-139291493D03*
D10*
X316354892Y-134211493D03*
D12*
X306399892Y-129086493D03*
D11*
X311274892Y-134211493D03*
D14*
X316899892Y-134236493D03*
D13*
X311399892Y-140136493D03*
X316399892Y-138036493D03*
D16*
X311399892Y-134236493D03*
D17*
X314024892Y-129831493D03*
X314024892Y-128431493D03*
X308524892Y-128431493D03*
X308524892Y-129831493D03*
D19*
X319899892Y-138036493D03*
D18*
X317487892Y-139298993D03*
D20*
X303908892Y-136751493D03*
D19*
X307899892Y-140236493D03*
%TD*%
D23*
%TO.C,C99*%
X112311890Y-170456493D03*
X113271890Y-170456493D03*
%TD*%
D15*
%TO.C,SW72*%
X390014888Y-148816493D03*
X383664888Y-146276493D03*
D16*
X387599888Y-143761493D03*
D10*
X382394888Y-143736493D03*
D13*
X392599888Y-147561493D03*
D10*
X392554888Y-143736493D03*
D14*
X382099888Y-143761493D03*
X393099888Y-143761493D03*
D12*
X382599888Y-138611493D03*
D13*
X387599888Y-149661493D03*
D11*
X387474888Y-143736493D03*
D17*
X390224888Y-139356493D03*
X390224888Y-137956493D03*
X384724888Y-137956493D03*
X384724888Y-139356493D03*
D19*
X396099888Y-147561493D03*
D18*
X393687888Y-148823993D03*
D20*
X380108888Y-146276493D03*
D19*
X384099888Y-149761493D03*
%TD*%
D21*
%TO.C,RN15*%
X174550000Y-160240000D03*
X173750000Y-160240000D03*
X172950000Y-160240000D03*
X172150000Y-160240000D03*
X172150000Y-161940000D03*
X172950000Y-161940000D03*
X173750000Y-161940000D03*
X174550000Y-161940000D03*
%TD*%
D15*
%TO.C,SW11*%
X83531889Y-101191494D03*
D14*
X75616889Y-96136494D03*
D13*
X86116889Y-99936494D03*
D15*
X77181889Y-98651494D03*
D12*
X76116889Y-90986494D03*
D10*
X86071889Y-96111494D03*
X75911889Y-96111494D03*
D13*
X81116889Y-102036494D03*
D11*
X80991889Y-96111494D03*
D16*
X81116889Y-96136494D03*
D14*
X86616889Y-96136494D03*
D17*
X78241889Y-90331494D03*
X78241889Y-91731494D03*
X83741889Y-91731494D03*
X83741889Y-90331494D03*
D19*
X89616889Y-99936494D03*
D18*
X87204889Y-101198994D03*
D20*
X73625889Y-98651494D03*
D19*
X77616889Y-102136494D03*
%TD*%
D23*
%TO.C,C53*%
X333694891Y-146113494D03*
X334654891Y-146113494D03*
%TD*%
D59*
%TO.C,C22*%
X311112499Y-77700001D03*
X309387499Y-77700001D03*
%TD*%
D23*
%TO.C,C40*%
X352644890Y-112781495D03*
X353604890Y-112781495D03*
%TD*%
D76*
%TO.C,J8*%
X280916889Y-93556492D03*
%TD*%
D23*
%TO.C,C43*%
X384244888Y-135956493D03*
X385204888Y-135956493D03*
%TD*%
D91*
%TO.C,C103*%
X179500000Y-173200000D03*
X178821178Y-172521178D03*
%TD*%
D23*
%TO.C,C38*%
X314544891Y-112781495D03*
X315504891Y-112781495D03*
%TD*%
D12*
%TO.C,SW37*%
X165984282Y-188575809D03*
D10*
X162215403Y-192054775D03*
D14*
X161989128Y-191863856D03*
D15*
X164011454Y-201035031D03*
D13*
X166726744Y-201975483D03*
X161706286Y-199924873D03*
D16*
X165878216Y-195752943D03*
D10*
X169399607Y-199238979D03*
D15*
X161317377Y-194748851D03*
D11*
X165807505Y-195646877D03*
D14*
X169767303Y-199642030D03*
D92*
X167950039Y-189615256D03*
X166960089Y-190605206D03*
X170849176Y-194494293D03*
X171839126Y-193504343D03*
D93*
X166603354Y-203637537D03*
D94*
X169201618Y-204450356D03*
X159160701Y-197520710D03*
D95*
X158802905Y-192234380D03*
%TD*%
D96*
%TO.C,R14*%
X242750000Y-158310000D03*
X242750000Y-157290000D03*
%TD*%
D23*
%TO.C,C90*%
X134911886Y-147867497D03*
X135871886Y-147867497D03*
%TD*%
%TO.C,C34*%
X288994889Y-90717496D03*
X289954889Y-90717496D03*
%TD*%
D16*
%TO.C,SW41*%
X273299891Y-125366492D03*
D14*
X267799891Y-125366492D03*
D12*
X268299891Y-120216492D03*
D15*
X269364891Y-127881492D03*
D13*
X273299891Y-131266492D03*
D10*
X278254891Y-125341492D03*
D15*
X275714891Y-130421492D03*
D14*
X278799891Y-125366492D03*
D11*
X273174891Y-125341492D03*
D13*
X278299891Y-129166492D03*
D10*
X268094891Y-125341492D03*
D17*
X270424891Y-119561492D03*
X270424891Y-120961492D03*
X275924891Y-120961492D03*
X275924891Y-119561492D03*
D19*
X281799891Y-129166492D03*
D18*
X279387891Y-130428992D03*
D20*
X265808891Y-127881492D03*
D19*
X269799891Y-131366492D03*
%TD*%
D23*
%TO.C,C69*%
X46161888Y-103256493D03*
X47121888Y-103256493D03*
%TD*%
D71*
%TO.C,J4*%
X190241890Y-155235993D03*
X189741890Y-155235993D03*
X189241890Y-155235993D03*
X188741890Y-155235993D03*
X188241890Y-155235993D03*
X187741890Y-155235993D03*
X187241890Y-155235993D03*
X186741890Y-155235993D03*
X186241890Y-155235993D03*
X185741890Y-155235993D03*
X185241890Y-155235993D03*
X184741890Y-155235993D03*
D72*
X182941890Y-152511993D03*
X192041890Y-152511993D03*
%TD*%
D21*
%TO.C,RN6*%
X339075000Y-81900000D03*
X338275000Y-81900000D03*
X337475000Y-81900000D03*
X336675000Y-81900000D03*
X336675000Y-83600000D03*
X337475000Y-83600000D03*
X338275000Y-83600000D03*
X339075000Y-83600000D03*
%TD*%
D36*
%TO.C,C9*%
X256350000Y-151995000D03*
X256350000Y-152955000D03*
%TD*%
%TO.C,C2*%
X374675000Y-88045000D03*
X374675000Y-89005000D03*
%TD*%
D16*
%TO.C,SW17*%
X100166888Y-110418494D03*
D13*
X105166888Y-114218494D03*
D14*
X105666888Y-110418494D03*
X94666888Y-110418494D03*
D15*
X102581888Y-115473494D03*
D13*
X100166888Y-116318494D03*
D10*
X94961888Y-110393494D03*
D12*
X95166888Y-105268494D03*
D15*
X96231888Y-112933494D03*
D10*
X105121888Y-110393494D03*
D11*
X100041888Y-110393494D03*
D17*
X102791888Y-106013494D03*
X102791888Y-104613494D03*
X97291888Y-104613494D03*
X97291888Y-106013494D03*
D18*
X106254888Y-115480994D03*
D19*
X108666888Y-114218494D03*
D20*
X92675888Y-112933494D03*
D19*
X96666888Y-116418494D03*
%TD*%
D21*
%TO.C,RN4*%
X381000001Y-96250003D03*
X380200001Y-96250003D03*
X379400001Y-96250003D03*
X378600001Y-96250003D03*
X378600001Y-97950003D03*
X379400001Y-97950003D03*
X380200001Y-97950003D03*
X381000001Y-97950003D03*
%TD*%
D35*
%TO.C,C63*%
X256470589Y-191869411D03*
X257149411Y-191190589D03*
%TD*%
D15*
%TO.C,SW40*%
X269364889Y-108831494D03*
X275714889Y-111371494D03*
D14*
X278799889Y-106316494D03*
D13*
X273299889Y-112216494D03*
X278299889Y-110116494D03*
D11*
X273174889Y-106291494D03*
D12*
X268299889Y-101166494D03*
D10*
X278254889Y-106291494D03*
D16*
X273299889Y-106316494D03*
D10*
X268094889Y-106291494D03*
D14*
X267799889Y-106316494D03*
D17*
X275924889Y-101911494D03*
X275924889Y-100511494D03*
X270424889Y-100511494D03*
X270424889Y-101911494D03*
D19*
X281799889Y-110116494D03*
D18*
X279387889Y-111378994D03*
D19*
X269799889Y-112316494D03*
D20*
X265808889Y-108831494D03*
%TD*%
D26*
%TO.C,U11*%
X121441892Y-84798993D03*
X122091892Y-84798993D03*
X122741892Y-84798993D03*
X123391892Y-84798993D03*
X124041892Y-84798993D03*
X124691892Y-84798993D03*
X125341892Y-84798993D03*
X125991892Y-84798993D03*
X125991892Y-79073993D03*
X125341892Y-79073993D03*
X124691892Y-79073993D03*
X124041892Y-79073993D03*
X123391892Y-79073993D03*
X122741892Y-79073993D03*
X122091892Y-79073993D03*
X121441892Y-79073993D03*
%TD*%
D23*
%TO.C,C95*%
X39661888Y-155006490D03*
X40621888Y-155006490D03*
%TD*%
%TO.C,C68*%
X278080000Y-76290000D03*
X279040000Y-76290000D03*
%TD*%
D26*
%TO.C,U5*%
X48241888Y-94323993D03*
X48891888Y-94323993D03*
X49541888Y-94323993D03*
X50191888Y-94323993D03*
X50841888Y-94323993D03*
X51491888Y-94323993D03*
X52141888Y-94323993D03*
X52791888Y-94323993D03*
X52791888Y-88598993D03*
X52141888Y-88598993D03*
X51491888Y-88598993D03*
X50841888Y-88598993D03*
X50191888Y-88598993D03*
X49541888Y-88598993D03*
X48891888Y-88598993D03*
X48241888Y-88598993D03*
%TD*%
D23*
%TO.C,C56*%
X390744889Y-160406490D03*
X391704889Y-160406490D03*
%TD*%
%TO.C,C92*%
X96811888Y-140713491D03*
X97771888Y-140713491D03*
%TD*%
%TO.C,C37*%
X295494890Y-115167495D03*
X296454890Y-115167495D03*
%TD*%
D15*
%TO.C,SW67*%
X364614889Y-146276493D03*
D14*
X363049889Y-143761493D03*
D10*
X363344889Y-143736493D03*
D13*
X368549889Y-149661493D03*
D11*
X368424889Y-143736493D03*
D10*
X373504889Y-143736493D03*
D15*
X370964889Y-148816493D03*
D13*
X373549889Y-147561493D03*
D16*
X368549889Y-143761493D03*
D12*
X363549889Y-138611493D03*
D14*
X374049889Y-143761493D03*
D17*
X371174889Y-139356493D03*
X371174889Y-137956493D03*
X365674889Y-137956493D03*
X365674889Y-139356493D03*
D18*
X374637889Y-148823993D03*
D19*
X377049889Y-147561493D03*
D20*
X361058889Y-146276493D03*
D19*
X365049889Y-149761493D03*
%TD*%
D96*
%TO.C,R8*%
X188400000Y-158310000D03*
X188400000Y-157290000D03*
%TD*%
D23*
%TO.C,C70*%
X65211889Y-103256494D03*
X66171889Y-103256494D03*
%TD*%
D82*
%TO.C,C66*%
X190837500Y-157600000D03*
X192562500Y-157600000D03*
%TD*%
D13*
%TO.C,SW25*%
X109166890Y-178761493D03*
D15*
X105231890Y-175376493D03*
D16*
X109166890Y-172861493D03*
D10*
X103961890Y-172836493D03*
D14*
X114666890Y-172861493D03*
X103666890Y-172861493D03*
D11*
X109041890Y-172836493D03*
D12*
X104166890Y-167711493D03*
D10*
X114121890Y-172836493D03*
D13*
X114166890Y-176661493D03*
D15*
X111581890Y-177916493D03*
D17*
X106291890Y-167056493D03*
X106291890Y-168456493D03*
X111791890Y-168456493D03*
X111791890Y-167056493D03*
D19*
X117666890Y-176661493D03*
D18*
X115254890Y-177923993D03*
D20*
X101675890Y-175376493D03*
D19*
X105666890Y-178861493D03*
%TD*%
D26*
%TO.C,U6*%
X375774889Y-94323993D03*
X376424889Y-94323993D03*
X377074889Y-94323993D03*
X377724889Y-94323993D03*
X378374889Y-94323993D03*
X379024889Y-94323993D03*
X379674889Y-94323993D03*
X380324889Y-94323993D03*
X380324889Y-88598993D03*
X379674889Y-88598993D03*
X379024889Y-88598993D03*
X378374889Y-88598993D03*
X377724889Y-88598993D03*
X377074889Y-88598993D03*
X376424889Y-88598993D03*
X375774889Y-88598993D03*
%TD*%
D97*
%TO.C,Q1*%
X54832500Y-88330000D03*
X54832500Y-90230000D03*
X56707500Y-89280000D03*
%TD*%
D23*
%TO.C,C18*%
X275781889Y-87936492D03*
X276741889Y-87936492D03*
%TD*%
%TO.C,C77*%
X134911888Y-109767495D03*
X135871888Y-109767495D03*
%TD*%
D11*
%TO.C,SW3*%
X42891892Y-143736491D03*
D14*
X48516892Y-143761491D03*
D13*
X43016892Y-149661491D03*
D16*
X43016892Y-143761491D03*
D13*
X48016892Y-147561491D03*
D15*
X45431892Y-148816491D03*
X39081892Y-146276491D03*
D10*
X47971892Y-143736491D03*
D12*
X38016892Y-138611491D03*
D14*
X37516892Y-143761491D03*
D10*
X37811892Y-143736491D03*
D17*
X40141892Y-137956491D03*
X40141892Y-139356491D03*
X45641892Y-139356491D03*
X45641892Y-137956491D03*
D19*
X51516892Y-147561491D03*
D18*
X49104892Y-148823991D03*
D19*
X39516892Y-149761491D03*
D20*
X35525892Y-146276491D03*
%TD*%
D28*
%TO.C,J1*%
X167239571Y-70149808D03*
X173019571Y-70149808D03*
D29*
X173354571Y-72094808D03*
X172579571Y-72094808D03*
D30*
X171379571Y-72094808D03*
X170379571Y-72094808D03*
X169879571Y-72094808D03*
X168879571Y-72094808D03*
D29*
X166904571Y-72094808D03*
X167679571Y-72094808D03*
D30*
X168379571Y-72094808D03*
X169379571Y-72094808D03*
X170879571Y-72094808D03*
X171879571Y-72094808D03*
D34*
X174979571Y-70679808D03*
D31*
X165279571Y-66499808D03*
D34*
X165279571Y-70679808D03*
D33*
X174449571Y-66499808D03*
D31*
X174979571Y-66499808D03*
D32*
X174449571Y-70679808D03*
D33*
X165809571Y-66499808D03*
D32*
X165809571Y-70679808D03*
%TD*%
D10*
%TO.C,SW49*%
X295307985Y-176335297D03*
D12*
X294179552Y-171331869D03*
D10*
X305121791Y-173705695D03*
D16*
X300342099Y-175012292D03*
D14*
X305654691Y-173588787D03*
D13*
X306155241Y-177388715D03*
D14*
X295029507Y-176435797D03*
D15*
X303983140Y-179269999D03*
D11*
X300214888Y-175020496D03*
D15*
X297192111Y-178460048D03*
D13*
X301869132Y-180711254D03*
D98*
X301737557Y-170077989D03*
X301375210Y-168725692D03*
X296062618Y-170149197D03*
X296424965Y-171501493D03*
D99*
X307532927Y-178326601D03*
D100*
X309535981Y-176482848D03*
D101*
X293757279Y-179380409D03*
D100*
X298514273Y-181713713D03*
%TD*%
D23*
%TO.C,C51*%
X295494889Y-153267496D03*
X296454889Y-153267496D03*
%TD*%
D16*
%TO.C,SW47*%
X292349891Y-136622495D03*
D15*
X294764891Y-141677495D03*
D10*
X287144891Y-136597495D03*
D14*
X297849891Y-136622495D03*
D10*
X297304891Y-136597495D03*
D12*
X287349891Y-131472495D03*
D11*
X292224891Y-136597495D03*
D14*
X286849891Y-136622495D03*
D13*
X297349891Y-140422495D03*
D15*
X288414891Y-139137495D03*
D13*
X292349891Y-142522495D03*
D17*
X294974891Y-132217495D03*
X294974891Y-130817495D03*
X289474891Y-130817495D03*
X289474891Y-132217495D03*
D19*
X300849891Y-140422495D03*
D18*
X298437891Y-141684995D03*
D20*
X284858891Y-139137495D03*
D19*
X288849891Y-142622495D03*
%TD*%
D59*
%TO.C,C19*%
X158123822Y-72710554D03*
X156398822Y-72710554D03*
%TD*%
D10*
%TO.C,SW1*%
X47971888Y-105636493D03*
X37811888Y-105636493D03*
D14*
X48516888Y-105661493D03*
D11*
X42891888Y-105636493D03*
D16*
X43016888Y-105661493D03*
D14*
X37516888Y-105661493D03*
D15*
X45431888Y-110716493D03*
D13*
X43016888Y-111561493D03*
D12*
X38016888Y-100511493D03*
D13*
X48016888Y-109461493D03*
D15*
X39081888Y-108176493D03*
D17*
X40141888Y-99856493D03*
X40141888Y-101256493D03*
X45641888Y-101256493D03*
X45641888Y-99856493D03*
D18*
X49104888Y-110723993D03*
D19*
X51516888Y-109461493D03*
D20*
X35525888Y-108176493D03*
D19*
X39516888Y-111661493D03*
%TD*%
D27*
%TO.C,C49*%
X272594308Y-162900000D03*
X273425692Y-162420000D03*
%TD*%
D14*
%TO.C,SW60*%
X354999891Y-96136494D03*
D15*
X345564891Y-98651494D03*
D11*
X349374891Y-96111494D03*
D13*
X354499891Y-99936494D03*
D12*
X344499891Y-90986494D03*
D15*
X351914891Y-101191494D03*
D16*
X349499891Y-96136494D03*
D13*
X349499891Y-102036494D03*
D10*
X354454891Y-96111494D03*
D14*
X343999891Y-96136494D03*
D10*
X344294891Y-96111494D03*
D17*
X352124891Y-91731494D03*
X352124891Y-90331494D03*
X346624891Y-90331494D03*
X346624891Y-91731494D03*
D19*
X357999891Y-99936494D03*
D18*
X355587891Y-101198994D03*
D20*
X342008891Y-98651494D03*
D19*
X345999891Y-102136494D03*
%TD*%
D21*
%TO.C,RN9*%
X121500000Y-86750000D03*
X120700000Y-86750000D03*
X119900000Y-86750000D03*
X119100000Y-86750000D03*
X119100000Y-88450000D03*
X119900000Y-88450000D03*
X120700000Y-88450000D03*
X121500000Y-88450000D03*
%TD*%
%TO.C,RN19*%
X78120000Y-170530000D03*
X77320000Y-170530000D03*
X76520000Y-170530000D03*
X75720000Y-170530000D03*
X75720000Y-172230000D03*
X76520000Y-172230000D03*
X77320000Y-172230000D03*
X78120000Y-172230000D03*
%TD*%
D82*
%TO.C,C27*%
X250424389Y-70936492D03*
X252149389Y-70936492D03*
%TD*%
D23*
%TO.C,C81*%
X58711889Y-116906493D03*
X59671889Y-116906493D03*
%TD*%
%TO.C,C36*%
X276444891Y-122961492D03*
X277404891Y-122961492D03*
%TD*%
D26*
%TO.C,U12*%
X315275000Y-84187500D03*
X315925000Y-84187500D03*
X316575000Y-84187500D03*
X317225000Y-84187500D03*
X317875000Y-84187500D03*
X318525000Y-84187500D03*
X319175000Y-84187500D03*
X319825000Y-84187500D03*
X319825000Y-78462500D03*
X319175000Y-78462500D03*
X318525000Y-78462500D03*
X317875000Y-78462500D03*
X317225000Y-78462500D03*
X316575000Y-78462500D03*
X315925000Y-78462500D03*
X315275000Y-78462500D03*
%TD*%
D16*
%TO.C,SW4*%
X43016888Y-162811490D03*
D14*
X37516888Y-162811490D03*
D13*
X43016888Y-168711490D03*
D15*
X39081888Y-165326490D03*
D11*
X42891888Y-162786490D03*
D12*
X38016888Y-157661490D03*
D13*
X48016888Y-166611490D03*
D15*
X45431888Y-167866490D03*
D10*
X47971888Y-162786490D03*
X37811888Y-162786490D03*
D14*
X48516888Y-162811490D03*
D17*
X45641888Y-158406490D03*
X45641888Y-157006490D03*
X40141888Y-157006490D03*
X40141888Y-158406490D03*
D19*
X51516888Y-166611490D03*
D18*
X49104888Y-167873990D03*
D20*
X35525888Y-165326490D03*
D19*
X39516888Y-168811490D03*
%TD*%
D21*
%TO.C,RN1*%
X49170000Y-96250000D03*
X48370000Y-96250000D03*
X47570000Y-96250000D03*
X46770000Y-96250000D03*
X46770000Y-97950000D03*
X47570000Y-97950000D03*
X48370000Y-97950000D03*
X49170000Y-97950000D03*
%TD*%
D83*
%TO.C,R16*%
X161723825Y-74110552D03*
X161723825Y-75305552D03*
%TD*%
D14*
%TO.C,SW35*%
X154223781Y-185793428D03*
X144697501Y-180293428D03*
D13*
X151890768Y-188834324D03*
D10*
X153764297Y-185499277D03*
D11*
X149364888Y-182959277D03*
D16*
X149460641Y-183043428D03*
D12*
X147705514Y-176083397D03*
D10*
X144965479Y-180419277D03*
D13*
X146510641Y-188152978D03*
D15*
X149024593Y-188628686D03*
X144795331Y-183253982D03*
D102*
X149873318Y-176578650D03*
X149173318Y-177791086D03*
X153936458Y-180541086D03*
X154636458Y-179328650D03*
D53*
X152201754Y-190471681D03*
D54*
X154921857Y-190584324D03*
D55*
X141715745Y-181475982D03*
D54*
X143429552Y-186489580D03*
%TD*%
D23*
%TO.C,C54*%
X352644887Y-150881497D03*
X353604887Y-150881497D03*
%TD*%
%TO.C,C85*%
X84261888Y-131831495D03*
X85221888Y-131831495D03*
%TD*%
D13*
%TO.C,SW22*%
X119216890Y-121086492D03*
D14*
X113716890Y-115186492D03*
D15*
X115281890Y-117701492D03*
X121631890Y-120241492D03*
D10*
X124171890Y-115161492D03*
D13*
X124216890Y-118986492D03*
D10*
X114011890Y-115161492D03*
D11*
X119091890Y-115161492D03*
D12*
X114216890Y-110036492D03*
D14*
X124716890Y-115186492D03*
D16*
X119216890Y-115186492D03*
D17*
X121841890Y-110781492D03*
X121841890Y-109381492D03*
X116341890Y-109381492D03*
X116341890Y-110781492D03*
D18*
X125304890Y-120248992D03*
D19*
X127716890Y-118986492D03*
D20*
X111725890Y-117701492D03*
D19*
X115716890Y-121186492D03*
%TD*%
D21*
%TO.C,RN2*%
X377100000Y-96250000D03*
X376300000Y-96250000D03*
X375500000Y-96250000D03*
X374700000Y-96250000D03*
X374700000Y-97950000D03*
X375500000Y-97950000D03*
X376300000Y-97950000D03*
X377100000Y-97950000D03*
%TD*%
D56*
%TO.C,TP10*%
X315950000Y-72000000D03*
%TD*%
D23*
%TO.C,C44*%
X365194889Y-135956493D03*
X366154889Y-135956493D03*
%TD*%
D11*
%TO.C,SW30*%
X130151891Y-175020495D03*
D15*
X125814313Y-176487846D03*
D14*
X124953569Y-173653491D03*
D16*
X130266161Y-175076996D03*
D13*
X128739129Y-180775958D03*
X134112278Y-180041609D03*
D15*
X131290542Y-180584799D03*
D10*
X135058794Y-176335296D03*
D12*
X126769450Y-168808382D03*
D14*
X135578753Y-176500500D03*
D10*
X125244988Y-173705694D03*
D103*
X128991569Y-168725691D03*
X128629222Y-170077988D03*
X133941814Y-171501492D03*
X134304161Y-170149196D03*
D104*
X134836446Y-181542685D03*
D105*
X137493018Y-180947476D03*
X125332507Y-179966684D03*
D106*
X122379481Y-175567486D03*
%TD*%
D21*
%TO.C,RN13*%
X170650000Y-160240000D03*
X169850000Y-160240000D03*
X169050000Y-160240000D03*
X168250000Y-160240000D03*
X168250000Y-161940000D03*
X169050000Y-161940000D03*
X169850000Y-161940000D03*
X170650000Y-161940000D03*
%TD*%
D23*
%TO.C,C42*%
X390744887Y-122306492D03*
X391704887Y-122306492D03*
%TD*%
%TO.C,C57*%
X375244888Y-174056494D03*
X376204888Y-174056494D03*
%TD*%
D77*
%TO.C,S1*%
X197273329Y-176436599D03*
X194586324Y-179123604D03*
D107*
X196672289Y-174279923D03*
X192429648Y-178522564D03*
D108*
X198899675Y-174103146D03*
X192252871Y-180749950D03*
D81*
X200023975Y-176669944D03*
D80*
X194819669Y-181874250D03*
D107*
X195258075Y-175694136D03*
X193843861Y-177108350D03*
%TD*%
D23*
%TO.C,C52*%
X314544894Y-150881493D03*
X315504894Y-150881493D03*
%TD*%
D109*
%TO.C,R10*%
X280436889Y-82183992D03*
X280436889Y-80988992D03*
%TD*%
D14*
%TO.C,SW64*%
X365049888Y-181861494D03*
D13*
X364549888Y-185661494D03*
D12*
X354549888Y-176711494D03*
D14*
X354049888Y-181861494D03*
D10*
X354344888Y-181836494D03*
D11*
X359424888Y-181836494D03*
D15*
X355614888Y-184376494D03*
D10*
X364504888Y-181836494D03*
D16*
X359549888Y-181861494D03*
D13*
X359549888Y-187761494D03*
D15*
X361964888Y-186916494D03*
D17*
X362174888Y-177456494D03*
X362174888Y-176056494D03*
X356674888Y-176056494D03*
X356674888Y-177456494D03*
D19*
X368049888Y-185661494D03*
D18*
X365637888Y-186923994D03*
D19*
X356049888Y-187861494D03*
D20*
X352058888Y-184376494D03*
%TD*%
D12*
%TO.C,SW65*%
X363549889Y-100511493D03*
D10*
X363344889Y-105636493D03*
D13*
X368549889Y-111561493D03*
D15*
X364614889Y-108176493D03*
X370964889Y-110716493D03*
D14*
X363049889Y-105661493D03*
X374049889Y-105661493D03*
D16*
X368549889Y-105661493D03*
D11*
X368424889Y-105636493D03*
D10*
X373504889Y-105636493D03*
D13*
X373549889Y-109461493D03*
D17*
X371174889Y-101256493D03*
X371174889Y-99856493D03*
X365674889Y-99856493D03*
X365674889Y-101256493D03*
D19*
X377049889Y-109461493D03*
D18*
X374637889Y-110723993D03*
D19*
X365049889Y-111661493D03*
D20*
X361058889Y-108176493D03*
%TD*%
D76*
%TO.C,J12*%
X267866891Y-93401492D03*
%TD*%
D73*
%TO.C,F2*%
X304759580Y-76239446D03*
X307559580Y-76239446D03*
%TD*%
D10*
%TO.C,SW44*%
X285401296Y-180376277D03*
D11*
X281001887Y-182916277D03*
D14*
X285885780Y-180125428D03*
D13*
X287352767Y-183666324D03*
D16*
X281122640Y-182875428D03*
D15*
X278972330Y-187020982D03*
D13*
X284072640Y-187984978D03*
D15*
X285741592Y-186045686D03*
D12*
X274217513Y-180915397D03*
D10*
X276602478Y-185456277D03*
D14*
X276359500Y-185625428D03*
D110*
X281193457Y-177748086D03*
X280493457Y-176535650D03*
X275730317Y-179285650D03*
X276430317Y-180498086D03*
D40*
X290383856Y-181916324D03*
D39*
X288926253Y-184215681D03*
D41*
X275892744Y-188798982D03*
D40*
X281091551Y-189821580D03*
%TD*%
D67*
%TO.C,U20*%
X273305000Y-77705000D03*
X273305000Y-78975000D03*
X273305000Y-80245000D03*
X273305000Y-81515000D03*
X278255000Y-81515000D03*
X278255000Y-80245000D03*
X278255000Y-78975000D03*
X278255000Y-77705000D03*
%TD*%
D50*
%TO.C,TP4*%
X270406892Y-94036493D03*
%TD*%
D10*
%TO.C,SW16*%
X94961891Y-91343490D03*
D15*
X96231891Y-93883490D03*
D13*
X105166891Y-95168490D03*
D15*
X102581891Y-96423490D03*
D14*
X105666891Y-91368490D03*
D10*
X105121891Y-91343490D03*
D16*
X100166891Y-91368490D03*
D12*
X95166891Y-86218490D03*
D13*
X100166891Y-97268490D03*
D14*
X94666891Y-91368490D03*
D11*
X100041891Y-91343490D03*
D17*
X97291891Y-85563490D03*
X97291891Y-86963490D03*
X102791891Y-86963490D03*
X102791891Y-85563490D03*
D19*
X108666891Y-95168490D03*
D18*
X106254891Y-96430990D03*
D19*
X96666891Y-97368490D03*
D20*
X92675891Y-93883490D03*
%TD*%
D16*
%TO.C,SW36*%
X179348600Y-182282559D03*
D10*
X175685787Y-178584391D03*
D15*
X174787761Y-181278467D03*
X177481838Y-187564647D03*
D13*
X180197128Y-188505099D03*
D12*
X179454666Y-175105425D03*
D10*
X182869991Y-185768595D03*
D13*
X175176670Y-186454489D03*
D14*
X183237687Y-186171646D03*
X175459512Y-178393472D03*
D11*
X179277889Y-182176493D03*
D111*
X184319560Y-181023909D03*
X185309510Y-180033959D03*
X181420423Y-176144872D03*
X180430473Y-177134822D03*
D93*
X180073738Y-190167153D03*
D94*
X182672002Y-190979972D03*
D95*
X172273289Y-178763996D03*
D94*
X172631085Y-184050326D03*
%TD*%
D26*
%TO.C,U13*%
X169417513Y-158280112D03*
X170067513Y-158280112D03*
X170717513Y-158280112D03*
X171367513Y-158280112D03*
X172017513Y-158280112D03*
X172667513Y-158280112D03*
X173317513Y-158280112D03*
X173967513Y-158280112D03*
X173967513Y-152555112D03*
X173317513Y-152555112D03*
X172667513Y-152555112D03*
X172017513Y-152555112D03*
X171367513Y-152555112D03*
X170717513Y-152555112D03*
X170067513Y-152555112D03*
X169417513Y-152555112D03*
%TD*%
D23*
%TO.C,C41*%
X371694889Y-122306492D03*
X372654889Y-122306492D03*
%TD*%
D21*
%TO.C,RN12*%
X319650000Y-86100000D03*
X318850000Y-86100000D03*
X318050000Y-86100000D03*
X317250000Y-86100000D03*
X317250000Y-87800000D03*
X318050000Y-87800000D03*
X318850000Y-87800000D03*
X319650000Y-87800000D03*
%TD*%
D14*
%TO.C,SW2*%
X48516889Y-124711490D03*
D10*
X47971889Y-124686490D03*
D13*
X48016889Y-128511490D03*
D15*
X45431889Y-129766490D03*
D12*
X38016889Y-119561490D03*
D16*
X43016889Y-124711490D03*
D13*
X43016889Y-130611490D03*
D10*
X37811889Y-124686490D03*
D11*
X42891889Y-124686490D03*
D15*
X39081889Y-127226490D03*
D14*
X37516889Y-124711490D03*
D17*
X45641889Y-120306490D03*
X45641889Y-118906490D03*
X40141889Y-118906490D03*
X40141889Y-120306490D03*
D19*
X51516889Y-128511490D03*
D18*
X49104889Y-129773990D03*
D20*
X35525889Y-127226490D03*
D19*
X39516889Y-130711490D03*
%TD*%
D23*
%TO.C,C87*%
X122361889Y-131831490D03*
X123321889Y-131831490D03*
%TD*%
D112*
%TO.C,C12*%
X310400000Y-70350000D03*
X310400000Y-68450000D03*
%TD*%
D56*
%TO.C,TP6*%
X156600000Y-66900000D03*
%TD*%
D113*
%TO.C,J13*%
X195111890Y-74196492D03*
D114*
X192571890Y-74196492D03*
X190041890Y-74186492D03*
X187501890Y-74186492D03*
X184961890Y-74186492D03*
X182421890Y-74186492D03*
X179881890Y-74186492D03*
%TD*%
D113*
%TO.C,J14*%
X250416891Y-74133993D03*
D114*
X247876891Y-74133993D03*
X245346891Y-74123993D03*
X242806891Y-74123993D03*
X240266891Y-74123993D03*
X237726891Y-74123993D03*
X235186891Y-74123993D03*
%TD*%
D115*
X169710000Y-124160000D03*
X169800000Y-122130000D03*
X168760000Y-123050000D03*
X384750000Y-117900000D03*
D116*
X278150000Y-85650000D03*
X275940000Y-140970000D03*
D115*
X354150000Y-165500000D03*
D116*
X275690000Y-176350000D03*
X372670000Y-161190000D03*
X304950000Y-78200001D03*
X281650000Y-178540000D03*
X255525000Y-152950000D03*
X327680000Y-103540000D03*
X271630000Y-98530000D03*
X381025000Y-94325000D03*
X257660000Y-190660000D03*
X241686889Y-104736492D03*
X264070000Y-191230000D03*
X383800000Y-91600000D03*
X361200000Y-173630000D03*
X258450000Y-163025000D03*
X308520000Y-108360000D03*
X244440000Y-179360000D03*
X328870000Y-121680000D03*
X352130000Y-130770000D03*
X242486889Y-108336492D03*
X301980000Y-170970000D03*
X244650000Y-156950000D03*
X300550000Y-82550000D03*
X334670000Y-108650000D03*
X324060000Y-169450000D03*
X373875004Y-89024998D03*
X343875000Y-84100000D03*
X332520000Y-167670000D03*
X290660000Y-128820000D03*
X357625000Y-169125000D03*
X300203392Y-71710361D03*
X296460000Y-154020000D03*
X308700000Y-77700000D03*
X296450000Y-115930000D03*
D115*
X354950000Y-165500000D03*
D116*
X390190000Y-140280000D03*
X308540000Y-146570000D03*
X239686889Y-103136492D03*
X289450000Y-148930000D03*
X352075000Y-92825000D03*
X238886889Y-108336492D03*
X270300000Y-142650000D03*
X333200000Y-125990000D03*
X313440000Y-167680000D03*
X314000000Y-92775000D03*
X315520000Y-113530000D03*
X300403393Y-70910360D03*
X347850000Y-88350000D03*
X315500000Y-76725000D03*
X350700000Y-163800000D03*
X371175000Y-102400000D03*
X346610000Y-146540000D03*
X372660000Y-123040000D03*
X365670000Y-156070000D03*
X313625000Y-74900000D03*
X278050000Y-75450000D03*
X241686889Y-108336492D03*
X277361889Y-83361492D03*
X262675000Y-158250000D03*
X256503391Y-72510359D03*
X336100000Y-83600000D03*
D115*
X365650000Y-117900000D03*
D116*
X378600000Y-97225000D03*
X264403392Y-72910358D03*
X264403390Y-72310359D03*
X264403391Y-73510359D03*
X317200000Y-89150000D03*
X333200000Y-87950000D03*
X275920000Y-102830000D03*
X371150000Y-140310000D03*
X350760000Y-173930000D03*
X355430000Y-173840000D03*
X300203390Y-70110358D03*
X335975000Y-74750000D03*
X381250000Y-178400000D03*
X347830000Y-126440000D03*
X320475000Y-84175000D03*
X343120000Y-169400000D03*
X296450000Y-167500000D03*
X314020000Y-130790000D03*
X274040000Y-162080000D03*
X353610000Y-113560000D03*
X248500000Y-158100000D03*
X384720000Y-156070000D03*
X262350000Y-163000000D03*
X260591889Y-74636493D03*
X294980000Y-133220000D03*
X315510000Y-151640000D03*
X277410000Y-123710000D03*
X313650000Y-78900000D03*
X294960000Y-95030000D03*
X334630000Y-146860000D03*
X271686889Y-81536492D03*
X366875000Y-97850000D03*
X277336889Y-87936492D03*
X306650002Y-80300003D03*
X353630000Y-151620000D03*
X249500000Y-69000000D03*
X362160000Y-178390000D03*
X390200000Y-102350000D03*
X391730000Y-123070000D03*
X328875000Y-83525000D03*
X327680000Y-141800000D03*
X342950000Y-80000000D03*
X289510000Y-110820000D03*
X252286889Y-70936492D03*
X309750000Y-126460000D03*
X391710000Y-161160000D03*
X285100000Y-68500000D03*
X309725000Y-88325000D03*
X256703388Y-73710359D03*
X271610000Y-136610000D03*
X346620000Y-108470000D03*
X310075000Y-74875000D03*
X385925000Y-97875000D03*
X312825000Y-88175000D03*
X285530000Y-152390000D03*
X285990000Y-94290000D03*
X283120000Y-96600000D03*
X290640000Y-90740000D03*
X260491888Y-81036490D03*
X256603391Y-73110357D03*
X270410000Y-118620000D03*
X377020000Y-174060000D03*
X377100000Y-97300000D03*
X246686889Y-107936492D03*
X252430000Y-177310000D03*
X366870000Y-135960000D03*
X265730000Y-161960000D03*
X385940000Y-135980000D03*
X305250000Y-83100000D03*
X164850000Y-96530000D03*
X159680000Y-89790000D03*
X155850000Y-91600000D03*
X155850000Y-92800000D03*
X151047500Y-94850000D03*
X152340000Y-96180000D03*
X277661889Y-84386492D03*
X275250000Y-91300000D03*
X273850000Y-88400000D03*
X272850000Y-87450000D03*
X273700000Y-85350000D03*
X280486889Y-79786492D03*
X279686889Y-81536492D03*
X273350000Y-84650000D03*
X261550000Y-91700000D03*
X260600000Y-91350000D03*
X271750000Y-83900000D03*
X278186889Y-88161492D03*
X379350000Y-85525000D03*
X390224888Y-99856491D03*
X169100000Y-82410000D03*
D115*
X189950000Y-77750000D03*
D116*
X171770000Y-79830000D03*
X129180000Y-69730000D03*
X137560000Y-76800000D03*
X170750000Y-155890000D03*
X124690000Y-80310000D03*
X145420000Y-81050000D03*
X51560000Y-90140000D03*
X126980000Y-86600000D03*
D115*
X155150000Y-81100000D03*
D116*
X124190000Y-77430000D03*
D115*
X164500000Y-88050000D03*
D116*
X52760000Y-91190000D03*
D115*
X189250000Y-111400000D03*
D116*
X164080000Y-154740000D03*
D115*
X186900000Y-113200000D03*
D116*
X245286889Y-105936492D03*
X246886889Y-104136492D03*
X317025000Y-77150000D03*
X300625000Y-78525000D03*
X262800000Y-135750000D03*
D115*
X304400000Y-83100000D03*
D116*
X264650000Y-155075000D03*
X261375000Y-145925000D03*
D115*
X306900000Y-85600000D03*
D116*
X245286889Y-104336492D03*
X261325000Y-154700000D03*
D115*
X302900000Y-82800000D03*
D116*
X246886889Y-102536492D03*
D115*
X188200000Y-76250000D03*
X190600000Y-80850000D03*
D116*
X240286889Y-80336492D03*
X262900000Y-82500000D03*
X260886889Y-84486492D03*
X261486889Y-85136492D03*
X237486889Y-83936492D03*
X263550000Y-83100000D03*
X262486889Y-85736492D03*
X264286889Y-83936492D03*
X380108888Y-108176491D03*
D115*
X303908891Y-117701495D03*
X333008890Y-175376495D03*
D116*
X380161198Y-127278802D03*
D115*
X342008891Y-98651494D03*
X313958889Y-175376495D03*
X300800000Y-102200000D03*
X261146775Y-202608476D03*
X303908894Y-155801493D03*
X339200000Y-114200000D03*
X339200000Y-152200000D03*
X394000000Y-182200000D03*
X266367744Y-172301197D03*
X303908892Y-136751493D03*
D116*
X377090000Y-109440000D03*
X352000000Y-184400000D03*
X377130000Y-147610000D03*
D115*
X237400000Y-176300000D03*
X339200000Y-95000000D03*
D116*
X387000000Y-185600000D03*
D115*
X342008890Y-117791110D03*
X303908890Y-98691110D03*
X276046881Y-188953119D03*
X269799889Y-150416493D03*
D116*
X380200000Y-165400000D03*
D115*
X301000000Y-159400000D03*
X293757279Y-179380409D03*
X339200000Y-133200000D03*
D116*
X350950000Y-162400000D03*
D115*
X301000000Y-121200000D03*
D116*
X380176197Y-146343803D03*
X377040000Y-128470000D03*
D115*
X300800000Y-140400000D03*
X265808889Y-108831494D03*
D116*
X377000000Y-166600000D03*
D115*
X342008887Y-155801497D03*
X265808891Y-127881492D03*
X247676391Y-189138093D03*
X342008888Y-136751497D03*
D116*
X164720000Y-154120000D03*
X125470000Y-80350000D03*
X173280000Y-153740000D03*
X126010000Y-83290000D03*
X318125000Y-81500000D03*
X342325000Y-75625000D03*
X319850000Y-79800000D03*
X307800000Y-74650000D03*
X264675000Y-154275000D03*
X262600000Y-149650000D03*
X285100000Y-69550000D03*
X345025000Y-75625000D03*
X261350000Y-153850000D03*
X261300000Y-150850000D03*
X339675000Y-75675000D03*
X341750000Y-72725000D03*
X343425000Y-74025000D03*
X262550000Y-146350000D03*
X260025000Y-151050000D03*
X264625000Y-155900000D03*
X260675000Y-155350000D03*
X48920000Y-89990000D03*
X46760000Y-95290000D03*
X374725000Y-95225000D03*
X376400000Y-89825000D03*
X87980000Y-80470000D03*
X90070000Y-74240000D03*
X338425000Y-75600000D03*
X336700000Y-81000000D03*
X112380000Y-90760000D03*
X110880000Y-133010000D03*
X111120000Y-114270000D03*
X111780000Y-89910000D03*
X111120000Y-90480000D03*
X110820000Y-100770000D03*
X122100000Y-80200000D03*
X119100000Y-85900000D03*
X313400000Y-85175000D03*
X315925000Y-79625000D03*
X258075000Y-153800000D03*
X256075000Y-159450000D03*
X71820000Y-169490000D03*
X74580000Y-163550000D03*
X351575000Y-171950000D03*
X351550000Y-179850000D03*
X352400000Y-171950000D03*
X352425000Y-178150000D03*
X83160000Y-183950000D03*
X82040000Y-177730000D03*
X82130000Y-182440000D03*
X81530000Y-178510000D03*
X80760000Y-178460000D03*
X81060000Y-181890000D03*
X80010000Y-178410000D03*
X80070000Y-180220000D03*
X309700000Y-73900000D03*
X282548410Y-83589800D03*
X134180000Y-83610000D03*
X159680000Y-77960000D03*
X168820000Y-150970000D03*
X164790000Y-151590000D03*
X260150000Y-156100000D03*
X355725000Y-164800000D03*
X264600000Y-156675000D03*
X351425000Y-164800000D03*
X163560000Y-155480000D03*
X126120000Y-86590000D03*
X89490000Y-76290000D03*
X123630000Y-76860000D03*
X55140000Y-89280000D03*
X123580000Y-80290000D03*
X169180000Y-156480000D03*
X87680000Y-78170000D03*
X50488993Y-88598993D03*
X162400000Y-75300000D03*
D115*
X314000000Y-76800000D03*
D116*
X158050000Y-70800000D03*
X313600000Y-77950000D03*
X280486889Y-76936492D03*
D115*
X242500000Y-106450000D03*
D116*
X243800000Y-158900000D03*
D115*
X380450000Y-85450000D03*
D116*
X336000000Y-73775000D03*
X242750000Y-158900000D03*
X279050000Y-75430000D03*
X275800000Y-82750000D03*
X280436889Y-82836492D03*
D115*
X300686889Y-74336492D03*
D116*
X274950000Y-83600000D03*
X249486889Y-70936492D03*
X275186889Y-87936492D03*
X250650000Y-152000000D03*
D115*
X300686889Y-73536492D03*
X300686889Y-72736492D03*
D116*
X373825000Y-88050000D03*
X245700000Y-159100000D03*
D115*
X195150000Y-70200000D03*
D116*
X190850000Y-158550000D03*
D115*
X174690000Y-123120000D03*
D116*
X167680000Y-152670000D03*
X89710000Y-157150000D03*
X153260000Y-88350000D03*
X51610000Y-166550000D03*
X159049995Y-197410005D03*
X143349986Y-186410014D03*
X130849196Y-139210804D03*
X149825889Y-146931493D03*
X151240744Y-164978197D03*
X54575887Y-165326494D03*
X127810000Y-157050000D03*
X127810000Y-99850000D03*
X92675889Y-131983492D03*
X188350000Y-159050000D03*
X127710000Y-118950000D03*
D115*
X173910000Y-122160000D03*
D116*
X141715745Y-181475982D03*
D115*
X150300000Y-73550000D03*
D116*
X89610000Y-118950000D03*
X54633507Y-127226493D03*
X149825888Y-127881495D03*
X46330000Y-88870000D03*
X92675891Y-93883490D03*
X130775886Y-158187497D03*
X86607698Y-178852302D03*
X127710000Y-138050000D03*
X130775888Y-101037495D03*
X159600000Y-90650000D03*
D115*
X150300000Y-74400000D03*
D116*
X125332507Y-179966684D03*
X105710000Y-178850000D03*
X172273289Y-178763996D03*
D115*
X173770000Y-124120000D03*
D116*
X87570000Y-73210000D03*
X51510000Y-147450000D03*
X194400000Y-174950000D03*
X54629698Y-108230302D03*
X187190000Y-106520000D03*
X54575889Y-146276495D03*
X119570000Y-79010000D03*
X59900000Y-89290000D03*
X158802905Y-192234380D03*
X189450000Y-159050000D03*
X48457698Y-187802302D03*
X155940000Y-93650000D03*
X37625889Y-187526494D03*
X67566890Y-187861494D03*
X92726506Y-112933494D03*
X51710000Y-128450000D03*
X149825888Y-108831491D03*
D115*
X150350000Y-72700000D03*
D116*
X154170000Y-94860000D03*
X51510000Y-109350000D03*
X130775888Y-120087495D03*
X92675888Y-151033491D03*
X89710000Y-99850000D03*
X89710000Y-138050000D03*
X149090000Y-94870000D03*
X324470000Y-89810000D03*
X315525000Y-90275000D03*
X318970000Y-109350000D03*
X324130000Y-108790000D03*
X285460000Y-114900000D03*
X280718508Y-119561492D03*
X362175000Y-101950000D03*
X354375000Y-90325000D03*
X285550000Y-153540000D03*
X268100000Y-141650000D03*
X318970000Y-147450000D03*
X324130000Y-146890000D03*
X354330000Y-147480000D03*
X362390000Y-158820000D03*
X286040000Y-95460000D03*
X283860000Y-97560000D03*
X280718508Y-138611492D03*
X285460000Y-133950000D03*
X324130000Y-127840000D03*
X318970000Y-128400000D03*
X362390000Y-120720000D03*
X354330000Y-109380000D03*
X354330000Y-128430000D03*
X362390000Y-139770000D03*
X395110000Y-125910000D03*
X395110000Y-132480000D03*
X268130000Y-183880000D03*
X267040000Y-184880000D03*
X371870000Y-178520000D03*
X367330000Y-178520000D03*
X124700000Y-68400000D03*
X155200000Y-76500000D03*
X36300000Y-100500000D03*
X36100000Y-97100000D03*
X260160000Y-168100000D03*
X258500000Y-168090000D03*
X351810000Y-181860000D03*
X346700000Y-167190000D03*
X383130000Y-175930000D03*
X395420000Y-161200000D03*
X37600000Y-159400000D03*
X46700000Y-178400000D03*
X67590000Y-99860000D03*
X74570000Y-92910000D03*
X75100000Y-176100000D03*
X80900000Y-171700000D03*
X107880000Y-108490000D03*
X110150000Y-110680000D03*
X107880000Y-127540000D03*
X109940000Y-129490000D03*
X107880000Y-146590000D03*
X111260000Y-149580000D03*
X142570000Y-93620000D03*
X153060000Y-102440000D03*
X158200000Y-182500000D03*
X160000000Y-184200000D03*
X142630000Y-111740000D03*
X147970000Y-117170000D03*
X332480000Y-166680000D03*
X352630000Y-113550000D03*
X383520000Y-135950000D03*
X390740000Y-123090000D03*
X359540000Y-172890000D03*
X288270000Y-128860000D03*
X251790000Y-178960000D03*
X345420000Y-126400000D03*
X383525000Y-97850000D03*
X333700000Y-146900000D03*
X272920000Y-163480000D03*
D115*
X324400000Y-87450000D03*
D116*
X255940000Y-192320000D03*
X307300000Y-88350000D03*
D115*
X312033498Y-77626135D03*
D116*
X314570000Y-113520000D03*
X294270000Y-168080000D03*
X326450000Y-85150000D03*
X307300000Y-126410000D03*
X295460000Y-115910000D03*
X345350000Y-88375000D03*
X390740000Y-161230000D03*
X310400000Y-71800000D03*
X269200000Y-136570000D03*
X269210000Y-98510000D03*
X374390000Y-174040000D03*
X295490000Y-154020000D03*
D115*
X311950000Y-76850000D03*
X311133498Y-76826135D03*
D116*
X314530000Y-151660000D03*
X313470000Y-166700000D03*
X289010000Y-90020000D03*
X333690000Y-108660000D03*
X273630000Y-177610000D03*
X371680000Y-161130000D03*
X326490000Y-121660000D03*
X364460000Y-135980000D03*
X364500000Y-97850000D03*
X310400000Y-71300000D03*
X276460000Y-123720000D03*
X352630000Y-151620000D03*
X371710000Y-123080000D03*
X59240000Y-98890000D03*
X45630000Y-121240000D03*
X184400000Y-103200000D03*
X53460000Y-94330000D03*
X166303391Y-73910358D03*
X149803390Y-71510360D03*
X155630000Y-117530000D03*
X98500000Y-140800000D03*
X121800000Y-149800000D03*
X73200000Y-163600000D03*
X129100000Y-167700000D03*
X124060000Y-131820000D03*
X85830000Y-93720000D03*
X159950000Y-121910000D03*
X155900000Y-182500000D03*
X155123824Y-72710551D03*
X121870000Y-111760000D03*
X87580000Y-74180000D03*
X104970000Y-88950000D03*
X148370000Y-94330000D03*
X125310000Y-89410000D03*
X123970000Y-93720000D03*
X149703389Y-70310357D03*
X169450000Y-80400000D03*
X183600000Y-181600000D03*
X159823820Y-71310551D03*
X170091887Y-74736494D03*
X136690000Y-147870000D03*
X45700000Y-159400000D03*
X83720000Y-111760000D03*
X161450000Y-91050000D03*
X191350000Y-108300000D03*
X117500000Y-145500000D03*
X140880000Y-114150000D03*
X174610000Y-158320000D03*
X149803390Y-70910358D03*
X94900000Y-170500000D03*
X97310000Y-122680000D03*
X159100000Y-94900000D03*
X159960000Y-140970000D03*
X68200000Y-175300000D03*
X166203394Y-73210360D03*
X40160000Y-137050000D03*
X162800000Y-165000000D03*
X155640000Y-136630000D03*
X156800000Y-94600000D03*
X51410000Y-98550000D03*
X66780000Y-103250000D03*
X87300000Y-83180000D03*
X136100000Y-173500000D03*
X60410000Y-116920000D03*
X173703390Y-73810358D03*
X79400000Y-145500000D03*
D115*
X177350000Y-67900000D03*
D116*
X116350000Y-127500000D03*
X113900000Y-170500000D03*
X143070000Y-96130000D03*
X55980000Y-90250000D03*
X118500000Y-88200000D03*
X46180000Y-97950000D03*
X174003389Y-72410358D03*
X173800000Y-162800000D03*
X47830000Y-141350000D03*
X41300000Y-155000000D03*
X85830000Y-131820000D03*
X135810000Y-110350000D03*
X66900000Y-141390000D03*
X157123824Y-74910554D03*
X143090000Y-134210000D03*
X186450000Y-108300000D03*
X78240000Y-89320000D03*
X74880000Y-161030000D03*
X87200000Y-166100000D03*
X166103388Y-72510357D03*
X71850000Y-173080000D03*
X47090000Y-90600000D03*
X192550000Y-158550000D03*
X41340000Y-116890000D03*
X56800000Y-179400000D03*
X126630000Y-84800000D03*
X154410000Y-99520000D03*
X162050000Y-104090000D03*
X178300000Y-172000000D03*
X119540000Y-80040000D03*
X64710000Y-121280000D03*
X102800000Y-145100000D03*
X155760000Y-88310000D03*
X79430000Y-107370000D03*
X78120000Y-173140000D03*
X140880000Y-152210000D03*
X168600000Y-188900000D03*
X60300000Y-155000000D03*
X40180000Y-98890000D03*
X167640000Y-153610000D03*
X59230000Y-137060000D03*
X186300000Y-104700000D03*
X94820000Y-83240000D03*
X183650000Y-108300000D03*
X169900000Y-162900000D03*
X159710000Y-78960000D03*
X97280000Y-84610000D03*
X49100000Y-175100000D03*
D115*
X197900000Y-71500000D03*
D116*
X174003391Y-73110356D03*
X173000000Y-196500000D03*
X135400000Y-129900000D03*
X106300000Y-166000000D03*
X83800000Y-149800000D03*
X75800000Y-179400000D03*
X102800000Y-106980000D03*
X135390000Y-91780000D03*
X187200000Y-108300000D03*
X64700000Y-159300000D03*
X104990000Y-127070000D03*
X47700000Y-103250000D03*
X155500000Y-156900000D03*
X167760000Y-77250000D03*
X116320000Y-89400000D03*
X94570000Y-78760000D03*
X159660000Y-77030000D03*
X190190000Y-153920000D03*
X98480000Y-102610000D03*
X78250000Y-127490000D03*
X117540000Y-107370000D03*
X75610000Y-161040000D03*
X171300000Y-197200000D03*
X141360000Y-134970000D03*
X77100000Y-145400000D03*
X65180000Y-142140000D03*
X161723823Y-71310553D03*
X162523823Y-72010553D03*
X55100000Y-180200000D03*
X39000000Y-155000000D03*
X153280000Y-117530000D03*
X134190000Y-109770000D03*
X162423819Y-72710550D03*
X115200000Y-145500000D03*
X134190000Y-147900000D03*
X84260000Y-132590000D03*
X122350000Y-94490000D03*
X93200000Y-171200000D03*
X65230000Y-104020000D03*
X153270000Y-136580000D03*
X74200000Y-180100000D03*
X162323822Y-71410552D03*
X58100000Y-155000000D03*
X161123821Y-71310549D03*
X103320000Y-89710000D03*
X46170000Y-142100000D03*
X179000000Y-173700000D03*
X160450000Y-104670000D03*
X134400000Y-174300000D03*
X84230000Y-94480000D03*
X122360000Y-132590000D03*
X77040000Y-107420000D03*
X96200000Y-140700000D03*
X141410000Y-96860000D03*
X103310000Y-127820000D03*
X46190000Y-103990000D03*
X112300000Y-171200000D03*
X156200000Y-158600000D03*
X96110000Y-102640000D03*
X154500000Y-183400000D03*
X38940000Y-116950000D03*
X115150000Y-107410000D03*
X57980000Y-116940000D03*
X36470000Y-122940000D03*
X37030000Y-139980000D03*
X67590000Y-118910000D03*
X74570000Y-111960000D03*
X67590000Y-137960000D03*
X74570000Y-131010000D03*
X74570000Y-150060000D03*
X67590000Y-157010000D03*
X59900000Y-176500000D03*
X61500000Y-177600000D03*
X110450000Y-91260000D03*
X107980000Y-89450000D03*
X147960000Y-135250000D03*
X146510000Y-135290000D03*
X146510000Y-144350000D03*
X145310000Y-145550000D03*
X164570000Y-113740000D03*
X161420000Y-101150000D03*
X185500000Y-185400000D03*
X178200000Y-192400000D03*
M02*
