%TF.GenerationSoftware,KiCad,Pcbnew,(6.0.5)*%
%TF.CreationDate,2022-08-12T23:05:57+08:00*%
%TF.ProjectId,ChunkyXiao,4368756e-6b79-4586-9961-6f2e6b696361,rev?*%
%TF.SameCoordinates,Original*%
%TF.FileFunction,Soldermask,Bot*%
%TF.FilePolarity,Negative*%
%FSLAX46Y46*%
G04 Gerber Fmt 4.6, Leading zero omitted, Abs format (unit mm)*
G04 Created by KiCad (PCBNEW (6.0.5)) date 2022-08-12 23:05:57*
%MOMM*%
%LPD*%
G01*
G04 APERTURE LIST*
%ADD10C,1.701800*%
%ADD11C,3.987800*%
%ADD12C,1.600000*%
%ADD13C,3.050000*%
%ADD14C,1.900000*%
%ADD15C,3.048000*%
%ADD16C,5.050000*%
%ADD17C,0.650000*%
%ADD18O,1.000000X2.100000*%
%ADD19O,1.000000X1.600000*%
%ADD20C,1.700000*%
%ADD21O,3.454400X1.778000*%
%ADD22R,1.000000X1.000000*%
%ADD23O,1.778000X3.454400*%
%ADD24C,1.100000*%
%ADD25C,2.100000*%
%ADD26O,2.200000X2.100000*%
%ADD27C,0.800000*%
%ADD28C,0.600000*%
G04 APERTURE END LIST*
D10*
%TO.C,SW18*%
X105121889Y-129443492D03*
X94961889Y-129443492D03*
D11*
X100041889Y-129443492D03*
D12*
X95166889Y-124318492D03*
D13*
X100166889Y-135368492D03*
D14*
X105666889Y-129468492D03*
D15*
X102581889Y-134523492D03*
D13*
X105166889Y-133268492D03*
D14*
X94666889Y-129468492D03*
D15*
X96231889Y-131983492D03*
D16*
X100166889Y-129468492D03*
%TD*%
%TO.C,SW62*%
X349499888Y-134236497D03*
D10*
X344294888Y-134211497D03*
D14*
X354999888Y-134236497D03*
D12*
X344499888Y-129086497D03*
D15*
X345564888Y-136751497D03*
D13*
X354499888Y-138036497D03*
D15*
X351914888Y-139291497D03*
D13*
X349499888Y-140136497D03*
D11*
X349374888Y-134211497D03*
D14*
X343999888Y-134236497D03*
D10*
X354454888Y-134211497D03*
%TD*%
D11*
%TO.C,SW19*%
X100041888Y-148493491D03*
D10*
X105121888Y-148493491D03*
D13*
X100166888Y-154418491D03*
D14*
X105666888Y-148518491D03*
X94666888Y-148518491D03*
D15*
X102581888Y-153573491D03*
X96231888Y-151033491D03*
D12*
X95166888Y-143368491D03*
D10*
X94961888Y-148493491D03*
D13*
X105166888Y-152318491D03*
D16*
X100166888Y-148518491D03*
%TD*%
D14*
%TO.C,SW21*%
X124716892Y-96136493D03*
D12*
X114216892Y-90986493D03*
D11*
X119091892Y-96111493D03*
D13*
X119216892Y-102036493D03*
D15*
X121631892Y-101191493D03*
D10*
X124171892Y-96111493D03*
D13*
X124216892Y-99936493D03*
D15*
X115281892Y-98651493D03*
D14*
X113716892Y-96136493D03*
D10*
X114011892Y-96111493D03*
D16*
X119216892Y-96136493D03*
%TD*%
D17*
%TO.C,J2*%
X263438407Y-70099801D03*
X257658407Y-70099801D03*
D18*
X264868407Y-70629801D03*
D19*
X264868407Y-66449801D03*
X256228407Y-66449801D03*
D18*
X256228407Y-70629801D03*
%TD*%
D10*
%TO.C,SW50*%
X316354890Y-96111495D03*
D14*
X305899890Y-96136495D03*
D11*
X311274890Y-96111495D03*
D13*
X316399890Y-99936495D03*
D15*
X307464890Y-98651495D03*
D14*
X316899890Y-96136495D03*
D16*
X311399890Y-96136495D03*
D15*
X313814890Y-101191495D03*
D12*
X306399890Y-90986495D03*
D10*
X306194890Y-96111495D03*
D13*
X311399890Y-102036495D03*
%TD*%
D10*
%TO.C,SW15*%
X76021890Y-181836494D03*
D14*
X65566890Y-181861494D03*
D13*
X71066890Y-187761494D03*
X76066890Y-185661494D03*
D10*
X65861890Y-181836494D03*
D12*
X66066890Y-176711494D03*
D14*
X76566890Y-181861494D03*
D11*
X70941890Y-181836494D03*
D15*
X67131890Y-184376494D03*
D16*
X71066890Y-181861494D03*
D15*
X73481890Y-186916494D03*
%TD*%
D13*
%TO.C,SW12*%
X86116888Y-118986493D03*
D15*
X77181888Y-117701493D03*
D12*
X76116888Y-110036493D03*
D10*
X75911888Y-115161493D03*
D14*
X86616888Y-115186493D03*
D11*
X80991888Y-115161493D03*
D10*
X86071888Y-115161493D03*
D16*
X81116888Y-115186493D03*
D13*
X81116888Y-121086493D03*
D15*
X83531888Y-120241493D03*
D14*
X75616888Y-115186493D03*
%TD*%
D20*
%TO.C,J5*%
X313430000Y-70750000D03*
%TD*%
D13*
%TO.C,SW66*%
X373549889Y-128511492D03*
D16*
X368549889Y-124711492D03*
D10*
X363344889Y-124686492D03*
D14*
X363049889Y-124711492D03*
D10*
X373504889Y-124686492D03*
D12*
X363549889Y-119561492D03*
D13*
X368549889Y-130611492D03*
D15*
X364614889Y-127226492D03*
X370964889Y-129766492D03*
D14*
X374049889Y-124711492D03*
D11*
X368424889Y-124686492D03*
%TD*%
D14*
%TO.C,SW43*%
X276360780Y-163627643D03*
D11*
X271476887Y-166418492D03*
D10*
X267077478Y-168958492D03*
D14*
X266834500Y-169127643D03*
D15*
X269447330Y-170523197D03*
D10*
X275876296Y-163878492D03*
D12*
X264692513Y-164417612D03*
D13*
X274547640Y-171487193D03*
X277827767Y-167168539D03*
D16*
X271597640Y-166377643D03*
D15*
X276216592Y-169547901D03*
%TD*%
D14*
%TO.C,SW20*%
X95616890Y-172861494D03*
D10*
X84911890Y-172836494D03*
D12*
X85116890Y-167711494D03*
D11*
X89991890Y-172836494D03*
D13*
X90116890Y-178761494D03*
D16*
X90116890Y-172861494D03*
D10*
X95071890Y-172836494D03*
D13*
X95116890Y-176661494D03*
D15*
X86181890Y-175376494D03*
X92531890Y-177916494D03*
D14*
X84616890Y-172861494D03*
%TD*%
D15*
%TO.C,SW38*%
X256477042Y-183929544D03*
D11*
X251088888Y-182133493D03*
D10*
X247496786Y-185725595D03*
D14*
X247305867Y-185951870D03*
D12*
X244017820Y-181956716D03*
D13*
X257417494Y-181214254D03*
D10*
X254680990Y-178541391D03*
D13*
X255366884Y-186234712D03*
D14*
X255084041Y-178173695D03*
D16*
X251194954Y-182062782D03*
D15*
X250190862Y-186623621D03*
%TD*%
D21*
%TO.C,J9*%
X167425000Y-99450000D03*
%TD*%
D11*
%TO.C,SW13*%
X80991888Y-134211495D03*
D14*
X75616888Y-134236495D03*
D10*
X86071888Y-134211495D03*
D12*
X76116888Y-129086495D03*
D10*
X75911888Y-134211495D03*
D13*
X86116888Y-138036495D03*
D14*
X86616888Y-134236495D03*
D16*
X81116888Y-134236495D03*
D15*
X77181888Y-136751495D03*
D13*
X81116888Y-140136495D03*
D15*
X83531888Y-139291495D03*
%TD*%
D20*
%TO.C,J3*%
X165510000Y-79650000D03*
%TD*%
D10*
%TO.C,SW10*%
X56971889Y-181836494D03*
D13*
X57016889Y-185661494D03*
D15*
X54431889Y-186916494D03*
X48081889Y-184376494D03*
D11*
X51891889Y-181836494D03*
D16*
X52016889Y-181861494D03*
D12*
X47016889Y-176711494D03*
D10*
X46811889Y-181836494D03*
D14*
X46516889Y-181861494D03*
D13*
X52016889Y-187761494D03*
D14*
X57516889Y-181861494D03*
%TD*%
D11*
%TO.C,SW31*%
X157191888Y-106291491D03*
D16*
X157316888Y-106316491D03*
D10*
X162271888Y-106291491D03*
X152111888Y-106291491D03*
D13*
X162316888Y-110116491D03*
D14*
X151816888Y-106316491D03*
D12*
X152316888Y-101166491D03*
D15*
X153381888Y-108831491D03*
X159731888Y-111371491D03*
D13*
X157316888Y-112216491D03*
D14*
X162816888Y-106316491D03*
%TD*%
D10*
%TO.C,SW34*%
X163289296Y-169001492D03*
D15*
X154320330Y-166756197D03*
D10*
X154490478Y-163921492D03*
D16*
X158985640Y-166545643D03*
D14*
X154222500Y-163795643D03*
X163748780Y-169295643D03*
D12*
X157230513Y-159585612D03*
D11*
X158889887Y-166461492D03*
D15*
X158549592Y-172130901D03*
D13*
X156035640Y-171655193D03*
X161415767Y-172336539D03*
%TD*%
D21*
%TO.C,J11*%
X167425001Y-89289999D03*
%TD*%
D14*
%TO.C,SW7*%
X67566889Y-124711493D03*
D11*
X61941889Y-124686493D03*
D15*
X58131889Y-127226493D03*
D10*
X67021889Y-124686493D03*
D12*
X57066889Y-119561493D03*
D10*
X56861889Y-124686493D03*
D15*
X64481889Y-129766493D03*
D13*
X67066889Y-128511493D03*
D16*
X62066889Y-124711493D03*
D13*
X62066889Y-130611493D03*
D14*
X56566889Y-124711493D03*
%TD*%
D15*
%TO.C,SW45*%
X294764889Y-103577496D03*
D10*
X297304889Y-98497496D03*
D15*
X288414889Y-101037496D03*
D13*
X292349889Y-104422496D03*
X297349889Y-102322496D03*
D11*
X292224889Y-98497496D03*
D12*
X287349889Y-93372496D03*
D14*
X286849889Y-98522496D03*
D10*
X287144889Y-98497496D03*
D14*
X297849889Y-98522496D03*
D16*
X292349889Y-98522496D03*
%TD*%
D22*
%TO.C,TP11*%
X319450000Y-71950000D03*
%TD*%
%TO.C,TP9*%
X306700000Y-72000000D03*
%TD*%
D14*
%TO.C,SW27*%
X143766888Y-117572495D03*
D16*
X138266888Y-117572495D03*
D12*
X133266888Y-112422495D03*
D13*
X143266888Y-121372495D03*
D14*
X132766888Y-117572495D03*
D15*
X140681888Y-122627495D03*
D10*
X143221888Y-117547495D03*
D13*
X138266888Y-123472495D03*
D15*
X134331888Y-120087495D03*
D10*
X133061888Y-117547495D03*
D11*
X138141888Y-117547495D03*
%TD*%
D13*
%TO.C,SW48*%
X292349889Y-161572496D03*
D15*
X288414889Y-158187496D03*
D10*
X297304889Y-155647496D03*
D15*
X294764889Y-160727496D03*
D13*
X297349889Y-159472496D03*
D12*
X287349889Y-150522496D03*
D10*
X287144889Y-155647496D03*
D11*
X292224889Y-155647496D03*
D14*
X297849889Y-155672496D03*
X286849889Y-155672496D03*
D16*
X292349889Y-155672496D03*
%TD*%
D15*
%TO.C,SW6*%
X58131889Y-108176494D03*
D13*
X62066889Y-111561494D03*
D10*
X56861889Y-105636494D03*
D14*
X56566889Y-105661494D03*
X67566889Y-105661494D03*
D15*
X64481889Y-110716494D03*
D13*
X67066889Y-109461494D03*
D12*
X57066889Y-100511494D03*
D16*
X62066889Y-105661494D03*
D11*
X61941889Y-105636494D03*
D10*
X67021889Y-105636494D03*
%TD*%
D22*
%TO.C,TP8*%
X162800000Y-66800000D03*
%TD*%
D11*
%TO.C,SW54*%
X321324889Y-172836495D03*
D13*
X326449889Y-176661495D03*
D10*
X316244889Y-172836495D03*
D16*
X321449889Y-172861495D03*
D15*
X323864889Y-177916495D03*
D10*
X326404889Y-172836495D03*
D14*
X326949889Y-172861495D03*
D13*
X321449889Y-178761495D03*
D14*
X315949889Y-172861495D03*
D12*
X316449889Y-167711495D03*
D15*
X317514889Y-175376495D03*
%TD*%
D13*
%TO.C,SW53*%
X311399894Y-159186493D03*
D12*
X306399894Y-148136493D03*
D11*
X311274894Y-153261493D03*
D14*
X316899894Y-153286493D03*
D10*
X316354894Y-153261493D03*
D16*
X311399894Y-153286493D03*
D13*
X316399894Y-157086493D03*
D10*
X306194894Y-153261493D03*
D14*
X305899894Y-153286493D03*
D15*
X307464894Y-155801493D03*
X313814894Y-158341493D03*
%TD*%
D16*
%TO.C,SW57*%
X330549887Y-129468491D03*
D15*
X332964887Y-134523491D03*
D14*
X336049887Y-129468491D03*
D13*
X330549887Y-135368491D03*
D14*
X325049887Y-129468491D03*
D11*
X330424887Y-129443491D03*
D13*
X335549887Y-133268491D03*
D10*
X335504887Y-129443491D03*
X325344887Y-129443491D03*
D12*
X325549887Y-124318491D03*
D15*
X326614887Y-131983491D03*
%TD*%
D13*
%TO.C,SW24*%
X124216889Y-157086493D03*
D14*
X124716889Y-153286493D03*
D15*
X115281889Y-155801493D03*
D12*
X114216889Y-148136493D03*
D13*
X119216889Y-159186493D03*
D14*
X113716889Y-153286493D03*
D10*
X124171889Y-153261493D03*
D11*
X119091889Y-153261493D03*
D15*
X121631889Y-158341493D03*
D16*
X119216889Y-153286493D03*
D10*
X114011889Y-153261493D03*
%TD*%
D13*
%TO.C,SW69*%
X383599888Y-185661494D03*
D14*
X384099888Y-181861494D03*
D15*
X381014888Y-186916494D03*
D12*
X373599888Y-176711494D03*
D10*
X373394888Y-181836494D03*
D16*
X378599888Y-181861494D03*
D10*
X383554888Y-181836494D03*
D13*
X378599888Y-187761494D03*
D15*
X374664888Y-184376494D03*
D14*
X373099888Y-181861494D03*
D11*
X378474888Y-181836494D03*
%TD*%
D15*
%TO.C,SW32*%
X153381888Y-127881495D03*
D16*
X157316888Y-125366495D03*
D12*
X152316888Y-120216495D03*
D15*
X159731888Y-130421495D03*
D13*
X162316888Y-129166495D03*
D14*
X151816888Y-125366495D03*
D11*
X157191888Y-125341495D03*
D14*
X162816888Y-125366495D03*
D13*
X157316888Y-131266495D03*
D10*
X162271888Y-125341495D03*
X152111888Y-125341495D03*
%TD*%
D13*
%TO.C,SW56*%
X335549889Y-114218494D03*
D16*
X330549889Y-110418494D03*
D15*
X326614889Y-112933494D03*
D14*
X336049889Y-110418494D03*
D13*
X330549889Y-116318494D03*
D10*
X335504889Y-110393494D03*
D12*
X325549889Y-105268494D03*
D11*
X330424889Y-110393494D03*
D10*
X325344889Y-110393494D03*
D15*
X332964889Y-115473494D03*
D14*
X325049889Y-110418494D03*
%TD*%
D11*
%TO.C,SW59*%
X340374890Y-172836495D03*
D13*
X345499890Y-176661495D03*
D15*
X336564890Y-175376495D03*
D13*
X340499890Y-178761495D03*
D10*
X345454890Y-172836495D03*
D15*
X342914890Y-177916495D03*
D12*
X335499890Y-167711495D03*
D14*
X345999890Y-172861495D03*
D16*
X340499890Y-172861495D03*
D10*
X335294890Y-172836495D03*
D14*
X334999890Y-172861495D03*
%TD*%
D10*
%TO.C,SW58*%
X325344891Y-148493494D03*
D11*
X330424891Y-148493494D03*
D13*
X335549891Y-152318494D03*
D15*
X332964891Y-153573494D03*
D13*
X330549891Y-154418494D03*
D14*
X336049891Y-148518494D03*
X325049891Y-148518494D03*
D10*
X335504891Y-148493494D03*
D12*
X325549891Y-143368494D03*
D15*
X326614891Y-151033494D03*
D16*
X330549891Y-148518494D03*
%TD*%
D14*
%TO.C,SW46*%
X286849890Y-117572495D03*
D13*
X292349890Y-123472495D03*
D16*
X292349890Y-117572495D03*
D13*
X297349890Y-121372495D03*
D15*
X294764890Y-122627495D03*
D14*
X297849890Y-117572495D03*
D15*
X288414890Y-120087495D03*
D10*
X287144890Y-117547495D03*
X297304890Y-117547495D03*
D11*
X292224890Y-117547495D03*
D12*
X287349890Y-112422495D03*
%TD*%
%TO.C,SW33*%
X152316889Y-139266493D03*
D14*
X151816889Y-144416493D03*
D13*
X157316889Y-150316493D03*
D15*
X159731889Y-149471493D03*
D10*
X152111889Y-144391493D03*
D11*
X157191889Y-144391493D03*
D16*
X157316889Y-144416493D03*
D14*
X162816889Y-144416493D03*
D10*
X162271889Y-144391493D03*
D13*
X162316889Y-148216493D03*
D15*
X153381889Y-146931493D03*
%TD*%
D10*
%TO.C,SW68*%
X363344887Y-162786493D03*
D13*
X373549887Y-166611493D03*
D15*
X370964887Y-167866493D03*
D13*
X368549887Y-168711493D03*
D10*
X373504887Y-162786493D03*
D14*
X374049887Y-162811493D03*
D12*
X363549887Y-157661493D03*
D16*
X368549887Y-162811493D03*
D15*
X364614887Y-165326493D03*
D11*
X368424887Y-162786493D03*
D14*
X363049887Y-162811493D03*
%TD*%
D13*
%TO.C,SW71*%
X387599887Y-130611492D03*
D12*
X382599887Y-119561492D03*
D16*
X387599887Y-124711492D03*
D14*
X382099887Y-124711492D03*
D15*
X383664887Y-127226492D03*
D11*
X387474887Y-124686492D03*
D10*
X392554887Y-124686492D03*
X382394887Y-124686492D03*
D13*
X392599887Y-128511492D03*
D15*
X390014887Y-129766492D03*
D14*
X393099887Y-124711492D03*
%TD*%
D23*
%TO.C,J10*%
X278026892Y-93401492D03*
%TD*%
D24*
%TO.C,S2*%
X233146397Y-176336324D03*
X235833402Y-179023329D03*
%TD*%
D14*
%TO.C,SW8*%
X56566889Y-143761495D03*
D13*
X62066889Y-149661495D03*
D10*
X67021889Y-143736495D03*
X56861889Y-143736495D03*
D16*
X62066889Y-143761495D03*
D15*
X58131889Y-146276495D03*
D14*
X67566889Y-143761495D03*
D12*
X57066889Y-138611495D03*
D11*
X61941889Y-143736495D03*
D15*
X64481889Y-148816495D03*
D13*
X67066889Y-147561495D03*
%TD*%
%TO.C,SW29*%
X143266886Y-159472497D03*
D12*
X133266886Y-150522497D03*
D10*
X133061886Y-155647497D03*
D13*
X138266886Y-161572497D03*
D14*
X143766886Y-155672497D03*
D16*
X138266886Y-155672497D03*
D15*
X140681886Y-160727497D03*
D10*
X143221886Y-155647497D03*
D15*
X134331886Y-158187497D03*
D14*
X132766886Y-155672497D03*
D11*
X138141886Y-155647497D03*
%TD*%
D14*
%TO.C,SW55*%
X336049890Y-91368493D03*
X325049890Y-91368493D03*
D11*
X330424890Y-91343493D03*
D10*
X335504890Y-91343493D03*
X325344890Y-91343493D03*
D15*
X326614890Y-93883493D03*
X332964890Y-96423493D03*
D12*
X325549890Y-86218493D03*
D16*
X330549890Y-91368493D03*
D13*
X330549890Y-97268493D03*
X335549890Y-95168493D03*
%TD*%
D15*
%TO.C,SW26*%
X140681888Y-103577495D03*
D11*
X138141888Y-98497495D03*
D15*
X134331888Y-101037495D03*
D10*
X143221888Y-98497495D03*
D13*
X138266888Y-104422495D03*
D14*
X143766888Y-98522495D03*
D13*
X143266888Y-102322495D03*
D12*
X133266888Y-93372495D03*
D14*
X132766888Y-98522495D03*
D16*
X138266888Y-98522495D03*
D10*
X133061888Y-98497495D03*
%TD*%
D12*
%TO.C,SW9*%
X57066887Y-157661494D03*
D13*
X67066887Y-166611494D03*
D14*
X67566887Y-162811494D03*
D13*
X62066887Y-168711494D03*
D16*
X62066887Y-162811494D03*
D15*
X58131887Y-165326494D03*
D14*
X56566887Y-162811494D03*
D10*
X67021887Y-162786494D03*
X56861887Y-162786494D03*
D11*
X61941887Y-162786494D03*
D15*
X64481887Y-167866494D03*
%TD*%
D10*
%TO.C,SW63*%
X344294887Y-153261497D03*
D15*
X345564887Y-155801497D03*
D14*
X354999887Y-153286497D03*
D12*
X344499887Y-148136497D03*
D11*
X349374887Y-153261497D03*
D15*
X351914887Y-158341497D03*
D10*
X354454887Y-153261497D03*
D14*
X343999887Y-153286497D03*
D13*
X349499887Y-159186497D03*
D16*
X349499887Y-153286497D03*
D13*
X354499887Y-157086497D03*
%TD*%
D12*
%TO.C,SW23*%
X114216889Y-129086490D03*
D10*
X124171889Y-134211490D03*
X114011889Y-134211490D03*
D14*
X113716889Y-134236490D03*
D15*
X115281889Y-136751490D03*
D13*
X124216889Y-138036490D03*
D11*
X119091889Y-134211490D03*
D13*
X119216889Y-140136490D03*
D14*
X124716889Y-134236490D03*
D16*
X119216889Y-134236490D03*
D15*
X121631889Y-139291490D03*
%TD*%
D22*
%TO.C,TP7*%
X160500000Y-66900000D03*
%TD*%
D15*
%TO.C,SW61*%
X351914890Y-120241495D03*
D16*
X349499890Y-115186495D03*
D11*
X349374890Y-115161495D03*
D13*
X349499890Y-121086495D03*
X354499890Y-118986495D03*
D12*
X344499890Y-110036495D03*
D10*
X344294890Y-115161495D03*
X354454890Y-115161495D03*
D14*
X343999890Y-115186495D03*
X354999890Y-115186495D03*
D15*
X345564890Y-117701495D03*
%TD*%
%TO.C,SW70*%
X390014888Y-110716491D03*
X383664888Y-108176491D03*
D13*
X387599888Y-111561491D03*
D10*
X382394888Y-105636491D03*
D14*
X393099888Y-105661491D03*
D10*
X392554888Y-105636491D03*
D11*
X387474888Y-105636491D03*
D12*
X382599888Y-100511491D03*
D13*
X392599888Y-109461491D03*
D16*
X387599888Y-105661491D03*
D14*
X382099888Y-105661491D03*
%TD*%
D13*
%TO.C,SW42*%
X273299889Y-150316493D03*
D11*
X273174889Y-144391493D03*
D10*
X268094889Y-144391493D03*
D14*
X267799889Y-144416493D03*
D10*
X278254889Y-144391493D03*
D13*
X278299889Y-148216493D03*
D14*
X278799889Y-144416493D03*
D15*
X275714889Y-149471493D03*
X269364889Y-146931493D03*
D12*
X268299889Y-139266493D03*
D16*
X273299889Y-144416493D03*
%TD*%
D14*
%TO.C,SW51*%
X316899891Y-115186495D03*
D10*
X306194891Y-115161495D03*
D16*
X311399891Y-115186495D03*
D15*
X307464891Y-117701495D03*
D13*
X311399891Y-121086495D03*
D12*
X306399891Y-110036495D03*
D11*
X311274891Y-115161495D03*
D13*
X316399891Y-118986495D03*
D14*
X305899891Y-115186495D03*
D10*
X316354891Y-115161495D03*
D15*
X313814891Y-120241495D03*
%TD*%
D21*
%TO.C,J7*%
X167270000Y-102340000D03*
%TD*%
D22*
%TO.C,TP12*%
X306650000Y-68800000D03*
%TD*%
D15*
%TO.C,SW14*%
X83531886Y-158341495D03*
D10*
X86071886Y-153261495D03*
D12*
X76116886Y-148136495D03*
D16*
X81116886Y-153286495D03*
D13*
X81116886Y-159186495D03*
D10*
X75911886Y-153261495D03*
D15*
X77181886Y-155801495D03*
D14*
X75616886Y-153286495D03*
D11*
X80991886Y-153261495D03*
D14*
X86616886Y-153286495D03*
D13*
X86116886Y-157086495D03*
%TD*%
D16*
%TO.C,SW73*%
X387599889Y-162811490D03*
D13*
X387599889Y-168711490D03*
D11*
X387474889Y-162786490D03*
D10*
X392554889Y-162786490D03*
X382394889Y-162786490D03*
D14*
X382099889Y-162811490D03*
D13*
X392599889Y-166611490D03*
D14*
X393099889Y-162811490D03*
D12*
X382599889Y-157661490D03*
D15*
X390014889Y-167866490D03*
X383664889Y-165326490D03*
%TD*%
%TO.C,SW28*%
X140681888Y-141677496D03*
X134331888Y-139137496D03*
D14*
X132766888Y-136622496D03*
D11*
X138141888Y-136597496D03*
D12*
X133266888Y-131472496D03*
D16*
X138266888Y-136622496D03*
D14*
X143766888Y-136622496D03*
D13*
X143266888Y-140422496D03*
D10*
X143221888Y-136597496D03*
X133061888Y-136597496D03*
D13*
X138266888Y-142522496D03*
%TD*%
D10*
%TO.C,SW39*%
X268151374Y-192011774D03*
X260967170Y-199195978D03*
D11*
X264559272Y-195603876D03*
D12*
X257488204Y-195427099D03*
D14*
X268554425Y-191644078D03*
X260776251Y-199422253D03*
D15*
X269947426Y-197399927D03*
D13*
X268837268Y-199705095D03*
D15*
X263661246Y-200094004D03*
D13*
X270887878Y-194684637D03*
D16*
X264665338Y-195533165D03*
%TD*%
D14*
%TO.C,SW52*%
X305899892Y-134236493D03*
D10*
X306194892Y-134211493D03*
D15*
X307464892Y-136751493D03*
X313814892Y-139291493D03*
D10*
X316354892Y-134211493D03*
D12*
X306399892Y-129086493D03*
D11*
X311274892Y-134211493D03*
D14*
X316899892Y-134236493D03*
D13*
X311399892Y-140136493D03*
X316399892Y-138036493D03*
D16*
X311399892Y-134236493D03*
%TD*%
D15*
%TO.C,SW72*%
X390014888Y-148816493D03*
X383664888Y-146276493D03*
D16*
X387599888Y-143761493D03*
D10*
X382394888Y-143736493D03*
D13*
X392599888Y-147561493D03*
D10*
X392554888Y-143736493D03*
D14*
X382099888Y-143761493D03*
X393099888Y-143761493D03*
D12*
X382599888Y-138611493D03*
D13*
X387599888Y-149661493D03*
D11*
X387474888Y-143736493D03*
%TD*%
D15*
%TO.C,SW11*%
X83531889Y-101191494D03*
D14*
X75616889Y-96136494D03*
D13*
X86116889Y-99936494D03*
D15*
X77181889Y-98651494D03*
D12*
X76116889Y-90986494D03*
D10*
X86071889Y-96111494D03*
X75911889Y-96111494D03*
D13*
X81116889Y-102036494D03*
D11*
X80991889Y-96111494D03*
D16*
X81116889Y-96136494D03*
D14*
X86616889Y-96136494D03*
%TD*%
D23*
%TO.C,J8*%
X280916889Y-93556492D03*
%TD*%
D12*
%TO.C,SW37*%
X165984282Y-188575809D03*
D10*
X162215403Y-192054775D03*
D14*
X161989128Y-191863856D03*
D15*
X164011454Y-201035031D03*
D13*
X166726744Y-201975483D03*
X161706286Y-199924873D03*
D16*
X165878216Y-195752943D03*
D10*
X169399607Y-199238979D03*
D15*
X161317377Y-194748851D03*
D11*
X165807505Y-195646877D03*
D14*
X169767303Y-199642030D03*
%TD*%
D16*
%TO.C,SW41*%
X273299891Y-125366492D03*
D14*
X267799891Y-125366492D03*
D12*
X268299891Y-120216492D03*
D15*
X269364891Y-127881492D03*
D13*
X273299891Y-131266492D03*
D10*
X278254891Y-125341492D03*
D15*
X275714891Y-130421492D03*
D14*
X278799891Y-125366492D03*
D11*
X273174891Y-125341492D03*
D13*
X278299891Y-129166492D03*
D10*
X268094891Y-125341492D03*
%TD*%
D16*
%TO.C,SW17*%
X100166888Y-110418494D03*
D13*
X105166888Y-114218494D03*
D14*
X105666888Y-110418494D03*
X94666888Y-110418494D03*
D15*
X102581888Y-115473494D03*
D13*
X100166888Y-116318494D03*
D10*
X94961888Y-110393494D03*
D12*
X95166888Y-105268494D03*
D15*
X96231888Y-112933494D03*
D10*
X105121888Y-110393494D03*
D11*
X100041888Y-110393494D03*
%TD*%
D15*
%TO.C,SW40*%
X269364889Y-108831494D03*
X275714889Y-111371494D03*
D14*
X278799889Y-106316494D03*
D13*
X273299889Y-112216494D03*
X278299889Y-110116494D03*
D11*
X273174889Y-106291494D03*
D12*
X268299889Y-101166494D03*
D10*
X278254889Y-106291494D03*
D16*
X273299889Y-106316494D03*
D10*
X268094889Y-106291494D03*
D14*
X267799889Y-106316494D03*
%TD*%
D15*
%TO.C,SW67*%
X364614889Y-146276493D03*
D14*
X363049889Y-143761493D03*
D10*
X363344889Y-143736493D03*
D13*
X368549889Y-149661493D03*
D11*
X368424889Y-143736493D03*
D10*
X373504889Y-143736493D03*
D15*
X370964889Y-148816493D03*
D13*
X373549889Y-147561493D03*
D16*
X368549889Y-143761493D03*
D12*
X363549889Y-138611493D03*
D14*
X374049889Y-143761493D03*
%TD*%
D13*
%TO.C,SW25*%
X109166890Y-178761493D03*
D15*
X105231890Y-175376493D03*
D16*
X109166890Y-172861493D03*
D10*
X103961890Y-172836493D03*
D14*
X114666890Y-172861493D03*
X103666890Y-172861493D03*
D11*
X109041890Y-172836493D03*
D12*
X104166890Y-167711493D03*
D10*
X114121890Y-172836493D03*
D13*
X114166890Y-176661493D03*
D15*
X111581890Y-177916493D03*
%TD*%
D11*
%TO.C,SW3*%
X42891892Y-143736491D03*
D14*
X48516892Y-143761491D03*
D13*
X43016892Y-149661491D03*
D16*
X43016892Y-143761491D03*
D13*
X48016892Y-147561491D03*
D15*
X45431892Y-148816491D03*
X39081892Y-146276491D03*
D10*
X47971892Y-143736491D03*
D12*
X38016892Y-138611491D03*
D14*
X37516892Y-143761491D03*
D10*
X37811892Y-143736491D03*
%TD*%
D17*
%TO.C,J1*%
X167239571Y-70149808D03*
X173019571Y-70149808D03*
D19*
X174449571Y-66499808D03*
D18*
X174449571Y-70679808D03*
D19*
X165809571Y-66499808D03*
D18*
X165809571Y-70679808D03*
%TD*%
D10*
%TO.C,SW49*%
X295307985Y-176335297D03*
D12*
X294179552Y-171331869D03*
D10*
X305121791Y-173705695D03*
D16*
X300342099Y-175012292D03*
D14*
X305654691Y-173588787D03*
D13*
X306155241Y-177388715D03*
D14*
X295029507Y-176435797D03*
D15*
X303983140Y-179269999D03*
D11*
X300214888Y-175020496D03*
D15*
X297192111Y-178460048D03*
D13*
X301869132Y-180711254D03*
%TD*%
D16*
%TO.C,SW47*%
X292349891Y-136622495D03*
D15*
X294764891Y-141677495D03*
D10*
X287144891Y-136597495D03*
D14*
X297849891Y-136622495D03*
D10*
X297304891Y-136597495D03*
D12*
X287349891Y-131472495D03*
D11*
X292224891Y-136597495D03*
D14*
X286849891Y-136622495D03*
D13*
X297349891Y-140422495D03*
D15*
X288414891Y-139137495D03*
D13*
X292349891Y-142522495D03*
%TD*%
D10*
%TO.C,SW1*%
X47971888Y-105636493D03*
X37811888Y-105636493D03*
D14*
X48516888Y-105661493D03*
D11*
X42891888Y-105636493D03*
D16*
X43016888Y-105661493D03*
D14*
X37516888Y-105661493D03*
D15*
X45431888Y-110716493D03*
D13*
X43016888Y-111561493D03*
D12*
X38016888Y-100511493D03*
D13*
X48016888Y-109461493D03*
D15*
X39081888Y-108176493D03*
%TD*%
D14*
%TO.C,SW60*%
X354999891Y-96136494D03*
D15*
X345564891Y-98651494D03*
D11*
X349374891Y-96111494D03*
D13*
X354499891Y-99936494D03*
D12*
X344499891Y-90986494D03*
D15*
X351914891Y-101191494D03*
D16*
X349499891Y-96136494D03*
D13*
X349499891Y-102036494D03*
D10*
X354454891Y-96111494D03*
D14*
X343999891Y-96136494D03*
D10*
X344294891Y-96111494D03*
%TD*%
D16*
%TO.C,SW4*%
X43016888Y-162811490D03*
D14*
X37516888Y-162811490D03*
D13*
X43016888Y-168711490D03*
D15*
X39081888Y-165326490D03*
D11*
X42891888Y-162786490D03*
D12*
X38016888Y-157661490D03*
D13*
X48016888Y-166611490D03*
D15*
X45431888Y-167866490D03*
D10*
X47971888Y-162786490D03*
X37811888Y-162786490D03*
D14*
X48516888Y-162811490D03*
%TD*%
%TO.C,SW35*%
X154223781Y-185793428D03*
X144697501Y-180293428D03*
D13*
X151890768Y-188834324D03*
D10*
X153764297Y-185499277D03*
D11*
X149364888Y-182959277D03*
D16*
X149460641Y-183043428D03*
D12*
X147705514Y-176083397D03*
D10*
X144965479Y-180419277D03*
D13*
X146510641Y-188152978D03*
D15*
X149024593Y-188628686D03*
X144795331Y-183253982D03*
%TD*%
D13*
%TO.C,SW22*%
X119216890Y-121086492D03*
D14*
X113716890Y-115186492D03*
D15*
X115281890Y-117701492D03*
X121631890Y-120241492D03*
D10*
X124171890Y-115161492D03*
D13*
X124216890Y-118986492D03*
D10*
X114011890Y-115161492D03*
D11*
X119091890Y-115161492D03*
D12*
X114216890Y-110036492D03*
D14*
X124716890Y-115186492D03*
D16*
X119216890Y-115186492D03*
%TD*%
D22*
%TO.C,TP10*%
X315950000Y-72000000D03*
%TD*%
D11*
%TO.C,SW30*%
X130151891Y-175020495D03*
D15*
X125814313Y-176487846D03*
D14*
X124953569Y-173653491D03*
D16*
X130266161Y-175076996D03*
D13*
X128739129Y-180775958D03*
X134112278Y-180041609D03*
D15*
X131290542Y-180584799D03*
D10*
X135058794Y-176335296D03*
D12*
X126769450Y-168808382D03*
D14*
X135578753Y-176500500D03*
D10*
X125244988Y-173705694D03*
%TD*%
D24*
%TO.C,S1*%
X197273329Y-176436599D03*
X194586324Y-179123604D03*
%TD*%
D14*
%TO.C,SW64*%
X365049888Y-181861494D03*
D13*
X364549888Y-185661494D03*
D12*
X354549888Y-176711494D03*
D14*
X354049888Y-181861494D03*
D10*
X354344888Y-181836494D03*
D11*
X359424888Y-181836494D03*
D15*
X355614888Y-184376494D03*
D10*
X364504888Y-181836494D03*
D16*
X359549888Y-181861494D03*
D13*
X359549888Y-187761494D03*
D15*
X361964888Y-186916494D03*
%TD*%
D12*
%TO.C,SW65*%
X363549889Y-100511493D03*
D10*
X363344889Y-105636493D03*
D13*
X368549889Y-111561493D03*
D15*
X364614889Y-108176493D03*
X370964889Y-110716493D03*
D14*
X363049889Y-105661493D03*
X374049889Y-105661493D03*
D16*
X368549889Y-105661493D03*
D11*
X368424889Y-105636493D03*
D10*
X373504889Y-105636493D03*
D13*
X373549889Y-109461493D03*
%TD*%
D23*
%TO.C,J12*%
X267866891Y-93401492D03*
%TD*%
D10*
%TO.C,SW44*%
X285401296Y-180376277D03*
D11*
X281001887Y-182916277D03*
D14*
X285885780Y-180125428D03*
D13*
X287352767Y-183666324D03*
D16*
X281122640Y-182875428D03*
D15*
X278972330Y-187020982D03*
D13*
X284072640Y-187984978D03*
D15*
X285741592Y-186045686D03*
D12*
X274217513Y-180915397D03*
D10*
X276602478Y-185456277D03*
D14*
X276359500Y-185625428D03*
%TD*%
D10*
%TO.C,SW16*%
X94961891Y-91343490D03*
D15*
X96231891Y-93883490D03*
D13*
X105166891Y-95168490D03*
D15*
X102581891Y-96423490D03*
D14*
X105666891Y-91368490D03*
D10*
X105121891Y-91343490D03*
D16*
X100166891Y-91368490D03*
D12*
X95166891Y-86218490D03*
D13*
X100166891Y-97268490D03*
D14*
X94666891Y-91368490D03*
D11*
X100041891Y-91343490D03*
%TD*%
D16*
%TO.C,SW36*%
X179348600Y-182282559D03*
D10*
X175685787Y-178584391D03*
D15*
X174787761Y-181278467D03*
X177481838Y-187564647D03*
D13*
X180197128Y-188505099D03*
D12*
X179454666Y-175105425D03*
D10*
X182869991Y-185768595D03*
D13*
X175176670Y-186454489D03*
D14*
X183237687Y-186171646D03*
X175459512Y-178393472D03*
D11*
X179277889Y-182176493D03*
%TD*%
D14*
%TO.C,SW2*%
X48516889Y-124711490D03*
D10*
X47971889Y-124686490D03*
D13*
X48016889Y-128511490D03*
D15*
X45431889Y-129766490D03*
D12*
X38016889Y-119561490D03*
D16*
X43016889Y-124711490D03*
D13*
X43016889Y-130611490D03*
D10*
X37811889Y-124686490D03*
D11*
X42891889Y-124686490D03*
D15*
X39081889Y-127226490D03*
D14*
X37516889Y-124711490D03*
%TD*%
D22*
%TO.C,TP6*%
X156600000Y-66900000D03*
%TD*%
D25*
%TO.C,J13*%
X195111890Y-74196492D03*
D26*
X192571890Y-74196492D03*
X190041890Y-74186492D03*
X187501890Y-74186492D03*
X184961890Y-74186492D03*
X182421890Y-74186492D03*
X179881890Y-74186492D03*
%TD*%
D25*
%TO.C,J14*%
X250416891Y-74133993D03*
D26*
X247876891Y-74133993D03*
X245346891Y-74123993D03*
X242806891Y-74123993D03*
X240266891Y-74123993D03*
X237726891Y-74123993D03*
X235186891Y-74123993D03*
%TD*%
D27*
X169710000Y-124160000D03*
X169800000Y-122130000D03*
X168760000Y-123050000D03*
X384750000Y-117900000D03*
D28*
X278150000Y-85650000D03*
X275940000Y-140970000D03*
D27*
X354150000Y-165500000D03*
D28*
X275690000Y-176350000D03*
X372670000Y-161190000D03*
X304950000Y-78200001D03*
X281650000Y-178540000D03*
X255525000Y-152950000D03*
X327680000Y-103540000D03*
X271630000Y-98530000D03*
X381025000Y-94325000D03*
X257660000Y-190660000D03*
X241686889Y-104736492D03*
X264070000Y-191230000D03*
X383800000Y-91600000D03*
X361200000Y-173630000D03*
X258450000Y-163025000D03*
X308520000Y-108360000D03*
X244440000Y-179360000D03*
X328870000Y-121680000D03*
X352130000Y-130770000D03*
X242486889Y-108336492D03*
X301980000Y-170970000D03*
X244650000Y-156950000D03*
X300550000Y-82550000D03*
X334670000Y-108650000D03*
X324060000Y-169450000D03*
X373875004Y-89024998D03*
X343875000Y-84100000D03*
X332520000Y-167670000D03*
X290660000Y-128820000D03*
X357625000Y-169125000D03*
X300203392Y-71710361D03*
X296460000Y-154020000D03*
X308700000Y-77700000D03*
X296450000Y-115930000D03*
D27*
X354950000Y-165500000D03*
D28*
X390190000Y-140280000D03*
X308540000Y-146570000D03*
X239686889Y-103136492D03*
X289450000Y-148930000D03*
X352075000Y-92825000D03*
X238886889Y-108336492D03*
X270300000Y-142650000D03*
X333200000Y-125990000D03*
X313440000Y-167680000D03*
X314000000Y-92775000D03*
X315520000Y-113530000D03*
X300403393Y-70910360D03*
X347850000Y-88350000D03*
X315500000Y-76725000D03*
X350700000Y-163800000D03*
X371175000Y-102400000D03*
X346610000Y-146540000D03*
X372660000Y-123040000D03*
X365670000Y-156070000D03*
X313625000Y-74900000D03*
X278050000Y-75450000D03*
X241686889Y-108336492D03*
X277361889Y-83361492D03*
X262675000Y-158250000D03*
X256503391Y-72510359D03*
X336100000Y-83600000D03*
D27*
X365650000Y-117900000D03*
D28*
X378600000Y-97225000D03*
X264403392Y-72910358D03*
X264403390Y-72310359D03*
X264403391Y-73510359D03*
X317200000Y-89150000D03*
X333200000Y-87950000D03*
X275920000Y-102830000D03*
X371150000Y-140310000D03*
X350760000Y-173930000D03*
X355430000Y-173840000D03*
X300203390Y-70110358D03*
X335975000Y-74750000D03*
X381250000Y-178400000D03*
X347830000Y-126440000D03*
X320475000Y-84175000D03*
X343120000Y-169400000D03*
X296450000Y-167500000D03*
X314020000Y-130790000D03*
X274040000Y-162080000D03*
X353610000Y-113560000D03*
X248500000Y-158100000D03*
X384720000Y-156070000D03*
X262350000Y-163000000D03*
X260591889Y-74636493D03*
X294980000Y-133220000D03*
X315510000Y-151640000D03*
X277410000Y-123710000D03*
X313650000Y-78900000D03*
X294960000Y-95030000D03*
X334630000Y-146860000D03*
X271686889Y-81536492D03*
X366875000Y-97850000D03*
X277336889Y-87936492D03*
X306650002Y-80300003D03*
X353630000Y-151620000D03*
X249500000Y-69000000D03*
X362160000Y-178390000D03*
X390200000Y-102350000D03*
X391730000Y-123070000D03*
X328875000Y-83525000D03*
X327680000Y-141800000D03*
X342950000Y-80000000D03*
X289510000Y-110820000D03*
X252286889Y-70936492D03*
X309750000Y-126460000D03*
X391710000Y-161160000D03*
X285100000Y-68500000D03*
X309725000Y-88325000D03*
X256703388Y-73710359D03*
X271610000Y-136610000D03*
X346620000Y-108470000D03*
X310075000Y-74875000D03*
X385925000Y-97875000D03*
X312825000Y-88175000D03*
X285530000Y-152390000D03*
X285990000Y-94290000D03*
X283120000Y-96600000D03*
X290640000Y-90740000D03*
X260491888Y-81036490D03*
X256603391Y-73110357D03*
X270410000Y-118620000D03*
X377020000Y-174060000D03*
X377100000Y-97300000D03*
X246686889Y-107936492D03*
X252430000Y-177310000D03*
X366870000Y-135960000D03*
X265730000Y-161960000D03*
X385940000Y-135980000D03*
X305250000Y-83100000D03*
X164850000Y-96530000D03*
X159680000Y-89790000D03*
X155850000Y-91600000D03*
X155850000Y-92800000D03*
X151047500Y-94850000D03*
X152340000Y-96180000D03*
X277661889Y-84386492D03*
X275250000Y-91300000D03*
X273850000Y-88400000D03*
X272850000Y-87450000D03*
X273700000Y-85350000D03*
X280486889Y-79786492D03*
X279686889Y-81536492D03*
X273350000Y-84650000D03*
X261550000Y-91700000D03*
X260600000Y-91350000D03*
X271750000Y-83900000D03*
X278186889Y-88161492D03*
X379350000Y-85525000D03*
X390224888Y-99856491D03*
X169100000Y-82410000D03*
D27*
X189950000Y-77750000D03*
D28*
X171770000Y-79830000D03*
X129180000Y-69730000D03*
X137560000Y-76800000D03*
X170750000Y-155890000D03*
X124690000Y-80310000D03*
X145420000Y-81050000D03*
X51560000Y-90140000D03*
X126980000Y-86600000D03*
D27*
X155150000Y-81100000D03*
D28*
X124190000Y-77430000D03*
D27*
X164500000Y-88050000D03*
D28*
X52760000Y-91190000D03*
D27*
X189250000Y-111400000D03*
D28*
X164080000Y-154740000D03*
D27*
X186900000Y-113200000D03*
D28*
X245286889Y-105936492D03*
X246886889Y-104136492D03*
X317025000Y-77150000D03*
X300625000Y-78525000D03*
X262800000Y-135750000D03*
D27*
X304400000Y-83100000D03*
D28*
X264650000Y-155075000D03*
X261375000Y-145925000D03*
D27*
X306900000Y-85600000D03*
D28*
X245286889Y-104336492D03*
X261325000Y-154700000D03*
D27*
X302900000Y-82800000D03*
D28*
X246886889Y-102536492D03*
D27*
X188200000Y-76250000D03*
X190600000Y-80850000D03*
D28*
X240286889Y-80336492D03*
X262900000Y-82500000D03*
X260886889Y-84486492D03*
X261486889Y-85136492D03*
X237486889Y-83936492D03*
X263550000Y-83100000D03*
X262486889Y-85736492D03*
X264286889Y-83936492D03*
X380108888Y-108176491D03*
D27*
X303908891Y-117701495D03*
X333008890Y-175376495D03*
D28*
X380161198Y-127278802D03*
D27*
X342008891Y-98651494D03*
X313958889Y-175376495D03*
X300800000Y-102200000D03*
X261146775Y-202608476D03*
X303908894Y-155801493D03*
X339200000Y-114200000D03*
X339200000Y-152200000D03*
X394000000Y-182200000D03*
X266367744Y-172301197D03*
X303908892Y-136751493D03*
D28*
X377090000Y-109440000D03*
X352000000Y-184400000D03*
X377130000Y-147610000D03*
D27*
X237400000Y-176300000D03*
X339200000Y-95000000D03*
D28*
X387000000Y-185600000D03*
D27*
X342008890Y-117791110D03*
X303908890Y-98691110D03*
X276046881Y-188953119D03*
X269799889Y-150416493D03*
D28*
X380200000Y-165400000D03*
D27*
X301000000Y-159400000D03*
X293757279Y-179380409D03*
X339200000Y-133200000D03*
D28*
X350950000Y-162400000D03*
D27*
X301000000Y-121200000D03*
D28*
X380176197Y-146343803D03*
X377040000Y-128470000D03*
D27*
X300800000Y-140400000D03*
X265808889Y-108831494D03*
D28*
X377000000Y-166600000D03*
D27*
X342008887Y-155801497D03*
X265808891Y-127881492D03*
X247676391Y-189138093D03*
X342008888Y-136751497D03*
D28*
X164720000Y-154120000D03*
X125470000Y-80350000D03*
X173280000Y-153740000D03*
X126010000Y-83290000D03*
X318125000Y-81500000D03*
X342325000Y-75625000D03*
X319850000Y-79800000D03*
X307800000Y-74650000D03*
X264675000Y-154275000D03*
X262600000Y-149650000D03*
X285100000Y-69550000D03*
X345025000Y-75625000D03*
X261350000Y-153850000D03*
X261300000Y-150850000D03*
X339675000Y-75675000D03*
X341750000Y-72725000D03*
X343425000Y-74025000D03*
X262550000Y-146350000D03*
X260025000Y-151050000D03*
X264625000Y-155900000D03*
X260675000Y-155350000D03*
X48920000Y-89990000D03*
X46760000Y-95290000D03*
X374725000Y-95225000D03*
X376400000Y-89825000D03*
X87980000Y-80470000D03*
X90070000Y-74240000D03*
X338425000Y-75600000D03*
X336700000Y-81000000D03*
X112380000Y-90760000D03*
X110880000Y-133010000D03*
X111120000Y-114270000D03*
X111780000Y-89910000D03*
X111120000Y-90480000D03*
X110820000Y-100770000D03*
X122100000Y-80200000D03*
X119100000Y-85900000D03*
X313400000Y-85175000D03*
X315925000Y-79625000D03*
X258075000Y-153800000D03*
X256075000Y-159450000D03*
X71820000Y-169490000D03*
X74580000Y-163550000D03*
X351575000Y-171950000D03*
X351550000Y-179850000D03*
X352400000Y-171950000D03*
X352425000Y-178150000D03*
X83160000Y-183950000D03*
X82040000Y-177730000D03*
X82130000Y-182440000D03*
X81530000Y-178510000D03*
X80760000Y-178460000D03*
X81060000Y-181890000D03*
X80010000Y-178410000D03*
X80070000Y-180220000D03*
X309700000Y-73900000D03*
X282548410Y-83589800D03*
X134180000Y-83610000D03*
X159680000Y-77960000D03*
X168820000Y-150970000D03*
X164790000Y-151590000D03*
X260150000Y-156100000D03*
X355725000Y-164800000D03*
X264600000Y-156675000D03*
X351425000Y-164800000D03*
X163560000Y-155480000D03*
X126120000Y-86590000D03*
X89490000Y-76290000D03*
X123630000Y-76860000D03*
X55140000Y-89280000D03*
X123580000Y-80290000D03*
X169180000Y-156480000D03*
X87680000Y-78170000D03*
X50488993Y-88598993D03*
X162400000Y-75300000D03*
D27*
X314000000Y-76800000D03*
D28*
X158050000Y-70800000D03*
X313600000Y-77950000D03*
X280486889Y-76936492D03*
D27*
X242500000Y-106450000D03*
D28*
X243800000Y-158900000D03*
D27*
X380450000Y-85450000D03*
D28*
X336000000Y-73775000D03*
X242750000Y-158900000D03*
X279050000Y-75430000D03*
X275800000Y-82750000D03*
X280436889Y-82836492D03*
D27*
X300686889Y-74336492D03*
D28*
X274950000Y-83600000D03*
X249486889Y-70936492D03*
X275186889Y-87936492D03*
X250650000Y-152000000D03*
D27*
X300686889Y-73536492D03*
X300686889Y-72736492D03*
D28*
X373825000Y-88050000D03*
X245700000Y-159100000D03*
D27*
X195150000Y-70200000D03*
D28*
X190850000Y-158550000D03*
D27*
X174690000Y-123120000D03*
D28*
X167680000Y-152670000D03*
X89710000Y-157150000D03*
X153260000Y-88350000D03*
X51610000Y-166550000D03*
X159049995Y-197410005D03*
X143349986Y-186410014D03*
X130849196Y-139210804D03*
X149825889Y-146931493D03*
X151240744Y-164978197D03*
X54575887Y-165326494D03*
X127810000Y-157050000D03*
X127810000Y-99850000D03*
X92675889Y-131983492D03*
X188350000Y-159050000D03*
X127710000Y-118950000D03*
D27*
X173910000Y-122160000D03*
D28*
X141715745Y-181475982D03*
D27*
X150300000Y-73550000D03*
D28*
X89610000Y-118950000D03*
X54633507Y-127226493D03*
X149825888Y-127881495D03*
X46330000Y-88870000D03*
X92675891Y-93883490D03*
X130775886Y-158187497D03*
X86607698Y-178852302D03*
X127710000Y-138050000D03*
X130775888Y-101037495D03*
X159600000Y-90650000D03*
D27*
X150300000Y-74400000D03*
D28*
X125332507Y-179966684D03*
X105710000Y-178850000D03*
X172273289Y-178763996D03*
D27*
X173770000Y-124120000D03*
D28*
X87570000Y-73210000D03*
X51510000Y-147450000D03*
X194400000Y-174950000D03*
X54629698Y-108230302D03*
X187190000Y-106520000D03*
X54575889Y-146276495D03*
X119570000Y-79010000D03*
X59900000Y-89290000D03*
X158802905Y-192234380D03*
X189450000Y-159050000D03*
X48457698Y-187802302D03*
X155940000Y-93650000D03*
X37625889Y-187526494D03*
X67566890Y-187861494D03*
X92726506Y-112933494D03*
X51710000Y-128450000D03*
X149825888Y-108831491D03*
D27*
X150350000Y-72700000D03*
D28*
X154170000Y-94860000D03*
X51510000Y-109350000D03*
X130775888Y-120087495D03*
X92675888Y-151033491D03*
X89710000Y-99850000D03*
X89710000Y-138050000D03*
X149090000Y-94870000D03*
X324470000Y-89810000D03*
X315525000Y-90275000D03*
X318970000Y-109350000D03*
X324130000Y-108790000D03*
X285460000Y-114900000D03*
X280718508Y-119561492D03*
X362175000Y-101950000D03*
X354375000Y-90325000D03*
X285550000Y-153540000D03*
X268100000Y-141650000D03*
X318970000Y-147450000D03*
X324130000Y-146890000D03*
X354330000Y-147480000D03*
X362390000Y-158820000D03*
X286040000Y-95460000D03*
X283860000Y-97560000D03*
X280718508Y-138611492D03*
X285460000Y-133950000D03*
X324130000Y-127840000D03*
X318970000Y-128400000D03*
X362390000Y-120720000D03*
X354330000Y-109380000D03*
X354330000Y-128430000D03*
X362390000Y-139770000D03*
X395110000Y-125910000D03*
X395110000Y-132480000D03*
X268130000Y-183880000D03*
X267040000Y-184880000D03*
X371870000Y-178520000D03*
X367330000Y-178520000D03*
X124700000Y-68400000D03*
X155200000Y-76500000D03*
X36300000Y-100500000D03*
X36100000Y-97100000D03*
X260160000Y-168100000D03*
X258500000Y-168090000D03*
X351810000Y-181860000D03*
X346700000Y-167190000D03*
X383130000Y-175930000D03*
X395420000Y-161200000D03*
X37600000Y-159400000D03*
X46700000Y-178400000D03*
X67590000Y-99860000D03*
X74570000Y-92910000D03*
X75100000Y-176100000D03*
X80900000Y-171700000D03*
X107880000Y-108490000D03*
X110150000Y-110680000D03*
X107880000Y-127540000D03*
X109940000Y-129490000D03*
X107880000Y-146590000D03*
X111260000Y-149580000D03*
X142570000Y-93620000D03*
X153060000Y-102440000D03*
X158200000Y-182500000D03*
X160000000Y-184200000D03*
X142630000Y-111740000D03*
X147970000Y-117170000D03*
X332480000Y-166680000D03*
X352630000Y-113550000D03*
X383520000Y-135950000D03*
X390740000Y-123090000D03*
X359540000Y-172890000D03*
X288270000Y-128860000D03*
X251790000Y-178960000D03*
X345420000Y-126400000D03*
X383525000Y-97850000D03*
X333700000Y-146900000D03*
X272920000Y-163480000D03*
D27*
X324400000Y-87450000D03*
D28*
X255940000Y-192320000D03*
X307300000Y-88350000D03*
D27*
X312033498Y-77626135D03*
D28*
X314570000Y-113520000D03*
X294270000Y-168080000D03*
X326450000Y-85150000D03*
X307300000Y-126410000D03*
X295460000Y-115910000D03*
X345350000Y-88375000D03*
X390740000Y-161230000D03*
X310400000Y-71800000D03*
X269200000Y-136570000D03*
X269210000Y-98510000D03*
X374390000Y-174040000D03*
X295490000Y-154020000D03*
D27*
X311950000Y-76850000D03*
X311133498Y-76826135D03*
D28*
X314530000Y-151660000D03*
X313470000Y-166700000D03*
X289010000Y-90020000D03*
X333690000Y-108660000D03*
X273630000Y-177610000D03*
X371680000Y-161130000D03*
X326490000Y-121660000D03*
X364460000Y-135980000D03*
X364500000Y-97850000D03*
X310400000Y-71300000D03*
X276460000Y-123720000D03*
X352630000Y-151620000D03*
X371710000Y-123080000D03*
X59240000Y-98890000D03*
X45630000Y-121240000D03*
X184400000Y-103200000D03*
X53460000Y-94330000D03*
X166303391Y-73910358D03*
X149803390Y-71510360D03*
X155630000Y-117530000D03*
X98500000Y-140800000D03*
X121800000Y-149800000D03*
X73200000Y-163600000D03*
X129100000Y-167700000D03*
X124060000Y-131820000D03*
X85830000Y-93720000D03*
X159950000Y-121910000D03*
X155900000Y-182500000D03*
X155123824Y-72710551D03*
X121870000Y-111760000D03*
X87580000Y-74180000D03*
X104970000Y-88950000D03*
X148370000Y-94330000D03*
X125310000Y-89410000D03*
X123970000Y-93720000D03*
X149703389Y-70310357D03*
X169450000Y-80400000D03*
X183600000Y-181600000D03*
X159823820Y-71310551D03*
X170091887Y-74736494D03*
X136690000Y-147870000D03*
X45700000Y-159400000D03*
X83720000Y-111760000D03*
X161450000Y-91050000D03*
X191350000Y-108300000D03*
X117500000Y-145500000D03*
X140880000Y-114150000D03*
X174610000Y-158320000D03*
X149803390Y-70910358D03*
X94900000Y-170500000D03*
X97310000Y-122680000D03*
X159100000Y-94900000D03*
X159960000Y-140970000D03*
X68200000Y-175300000D03*
X166203394Y-73210360D03*
X40160000Y-137050000D03*
X162800000Y-165000000D03*
X155640000Y-136630000D03*
X156800000Y-94600000D03*
X51410000Y-98550000D03*
X66780000Y-103250000D03*
X87300000Y-83180000D03*
X136100000Y-173500000D03*
X60410000Y-116920000D03*
X173703390Y-73810358D03*
X79400000Y-145500000D03*
D27*
X177350000Y-67900000D03*
D28*
X116350000Y-127500000D03*
X113900000Y-170500000D03*
X143070000Y-96130000D03*
X55980000Y-90250000D03*
X118500000Y-88200000D03*
X46180000Y-97950000D03*
X174003389Y-72410358D03*
X173800000Y-162800000D03*
X47830000Y-141350000D03*
X41300000Y-155000000D03*
X85830000Y-131820000D03*
X135810000Y-110350000D03*
X66900000Y-141390000D03*
X157123824Y-74910554D03*
X143090000Y-134210000D03*
X186450000Y-108300000D03*
X78240000Y-89320000D03*
X74880000Y-161030000D03*
X87200000Y-166100000D03*
X166103388Y-72510357D03*
X71850000Y-173080000D03*
X47090000Y-90600000D03*
X192550000Y-158550000D03*
X41340000Y-116890000D03*
X56800000Y-179400000D03*
X126630000Y-84800000D03*
X154410000Y-99520000D03*
X162050000Y-104090000D03*
X178300000Y-172000000D03*
X119540000Y-80040000D03*
X64710000Y-121280000D03*
X102800000Y-145100000D03*
X155760000Y-88310000D03*
X79430000Y-107370000D03*
X78120000Y-173140000D03*
X140880000Y-152210000D03*
X168600000Y-188900000D03*
X60300000Y-155000000D03*
X40180000Y-98890000D03*
X167640000Y-153610000D03*
X59230000Y-137060000D03*
X186300000Y-104700000D03*
X94820000Y-83240000D03*
X183650000Y-108300000D03*
X169900000Y-162900000D03*
X159710000Y-78960000D03*
X97280000Y-84610000D03*
X49100000Y-175100000D03*
D27*
X197900000Y-71500000D03*
D28*
X174003391Y-73110356D03*
X173000000Y-196500000D03*
X135400000Y-129900000D03*
X106300000Y-166000000D03*
X83800000Y-149800000D03*
X75800000Y-179400000D03*
X102800000Y-106980000D03*
X135390000Y-91780000D03*
X187200000Y-108300000D03*
X64700000Y-159300000D03*
X104990000Y-127070000D03*
X47700000Y-103250000D03*
X155500000Y-156900000D03*
X167760000Y-77250000D03*
X116320000Y-89400000D03*
X94570000Y-78760000D03*
X159660000Y-77030000D03*
X190190000Y-153920000D03*
X98480000Y-102610000D03*
X78250000Y-127490000D03*
X117540000Y-107370000D03*
X75610000Y-161040000D03*
X171300000Y-197200000D03*
X141360000Y-134970000D03*
X77100000Y-145400000D03*
X65180000Y-142140000D03*
X161723823Y-71310553D03*
X162523823Y-72010553D03*
X55100000Y-180200000D03*
X39000000Y-155000000D03*
X153280000Y-117530000D03*
X134190000Y-109770000D03*
X162423819Y-72710550D03*
X115200000Y-145500000D03*
X134190000Y-147900000D03*
X84260000Y-132590000D03*
X122350000Y-94490000D03*
X93200000Y-171200000D03*
X65230000Y-104020000D03*
X153270000Y-136580000D03*
X74200000Y-180100000D03*
X162323822Y-71410552D03*
X58100000Y-155000000D03*
X161123821Y-71310549D03*
X103320000Y-89710000D03*
X46170000Y-142100000D03*
X179000000Y-173700000D03*
X160450000Y-104670000D03*
X134400000Y-174300000D03*
X84230000Y-94480000D03*
X122360000Y-132590000D03*
X77040000Y-107420000D03*
X96200000Y-140700000D03*
X141410000Y-96860000D03*
X103310000Y-127820000D03*
X46190000Y-103990000D03*
X112300000Y-171200000D03*
X156200000Y-158600000D03*
X96110000Y-102640000D03*
X154500000Y-183400000D03*
X38940000Y-116950000D03*
X115150000Y-107410000D03*
X57980000Y-116940000D03*
X36470000Y-122940000D03*
X37030000Y-139980000D03*
X67590000Y-118910000D03*
X74570000Y-111960000D03*
X67590000Y-137960000D03*
X74570000Y-131010000D03*
X74570000Y-150060000D03*
X67590000Y-157010000D03*
X59900000Y-176500000D03*
X61500000Y-177600000D03*
X110450000Y-91260000D03*
X107980000Y-89450000D03*
X147960000Y-135250000D03*
X146510000Y-135290000D03*
X146510000Y-144350000D03*
X145310000Y-145550000D03*
X164570000Y-113740000D03*
X161420000Y-101150000D03*
X185500000Y-185400000D03*
X178200000Y-192400000D03*
M02*
