%TF.GenerationSoftware,KiCad,Pcbnew,(6.0.5)*%
%TF.CreationDate,2022-08-12T23:05:57+08:00*%
%TF.ProjectId,ChunkyXiao,4368756e-6b79-4586-9961-6f2e6b696361,rev?*%
%TF.SameCoordinates,Original*%
%TF.FileFunction,Other,Comment*%
%FSLAX46Y46*%
G04 Gerber Fmt 4.6, Leading zero omitted, Abs format (unit mm)*
G04 Created by KiCad (PCBNEW (6.0.5)) date 2022-08-12 23:05:57*
%MOMM*%
%LPD*%
G01*
G04 APERTURE LIST*
%ADD10C,0.150000*%
%ADD11C,0.300000*%
G04 APERTURE END LIST*
D10*
X128597304Y-186753311D02*
X129121114Y-186086645D01*
X128597304Y-186086645D02*
X129121114Y-186753311D01*
X130263971Y-186372359D02*
X131025876Y-186372359D01*
X131406828Y-185753311D02*
X132073495Y-185753311D01*
X131644923Y-186753311D01*
X132454447Y-186658073D02*
X132502066Y-186705692D01*
X132454447Y-186753311D01*
X132406828Y-186705692D01*
X132454447Y-186658073D01*
X132454447Y-186753311D01*
X132978256Y-186753311D02*
X133168733Y-186753311D01*
X133263971Y-186705692D01*
X133311590Y-186658073D01*
X133406828Y-186515216D01*
X133454447Y-186324740D01*
X133454447Y-185943788D01*
X133406828Y-185848550D01*
X133359209Y-185800931D01*
X133263971Y-185753311D01*
X133073495Y-185753311D01*
X132978256Y-185800931D01*
X132930637Y-185848550D01*
X132883018Y-185943788D01*
X132883018Y-186181883D01*
X132930637Y-186277121D01*
X132978256Y-186324740D01*
X133073495Y-186372359D01*
X133263971Y-186372359D01*
X133359209Y-186324740D01*
X133406828Y-186277121D01*
X133454447Y-186181883D01*
X133930637Y-186753311D02*
X134121114Y-186753311D01*
X134216352Y-186705692D01*
X134263971Y-186658073D01*
X134359209Y-186515216D01*
X134406828Y-186324740D01*
X134406828Y-185943788D01*
X134359209Y-185848550D01*
X134311590Y-185800931D01*
X134216352Y-185753311D01*
X134025876Y-185753311D01*
X133930637Y-185800931D01*
X133883018Y-185848550D01*
X133835399Y-185943788D01*
X133835399Y-186181883D01*
X133883018Y-186277121D01*
X133930637Y-186324740D01*
X134025876Y-186372359D01*
X134216352Y-186372359D01*
X134311590Y-186324740D01*
X134359209Y-186277121D01*
X134406828Y-186181883D01*
X128287780Y-187696645D02*
X128525876Y-188363311D01*
X128763971Y-187696645D02*
X128525876Y-188363311D01*
X128430637Y-188601407D01*
X128383018Y-188649026D01*
X128287780Y-188696645D01*
X130430637Y-188363311D02*
X129859209Y-188363311D01*
X130144923Y-188363311D02*
X130144923Y-187363311D01*
X130049685Y-187506169D01*
X129954447Y-187601407D01*
X129859209Y-187649026D01*
X130906828Y-188363311D02*
X131097304Y-188363311D01*
X131192542Y-188315692D01*
X131240161Y-188268073D01*
X131335399Y-188125216D01*
X131383018Y-187934740D01*
X131383018Y-187553788D01*
X131335399Y-187458550D01*
X131287780Y-187410931D01*
X131192542Y-187363311D01*
X131002066Y-187363311D01*
X130906828Y-187410931D01*
X130859209Y-187458550D01*
X130811590Y-187553788D01*
X130811590Y-187791883D01*
X130859209Y-187887121D01*
X130906828Y-187934740D01*
X131002066Y-187982359D01*
X131192542Y-187982359D01*
X131287780Y-187934740D01*
X131335399Y-187887121D01*
X131383018Y-187791883D01*
X131811590Y-188268073D02*
X131859209Y-188315692D01*
X131811590Y-188363311D01*
X131763971Y-188315692D01*
X131811590Y-188268073D01*
X131811590Y-188363311D01*
X132192542Y-187363311D02*
X132811590Y-187363311D01*
X132478256Y-187744264D01*
X132621114Y-187744264D01*
X132716352Y-187791883D01*
X132763971Y-187839502D01*
X132811590Y-187934740D01*
X132811590Y-188172835D01*
X132763971Y-188268073D01*
X132716352Y-188315692D01*
X132621114Y-188363311D01*
X132335399Y-188363311D01*
X132240161Y-188315692D01*
X132192542Y-188268073D01*
X133144923Y-187363311D02*
X133811590Y-187363311D01*
X133383018Y-188363311D01*
X134097304Y-187363311D02*
X134716352Y-187363311D01*
X134383018Y-187744264D01*
X134525876Y-187744264D01*
X134621114Y-187791883D01*
X134668733Y-187839502D01*
X134716352Y-187934740D01*
X134716352Y-188172835D01*
X134668733Y-188268073D01*
X134621114Y-188315692D01*
X134525876Y-188363311D01*
X134240161Y-188363311D01*
X134144923Y-188315692D01*
X134097304Y-188268073D01*
D11*
X184517142Y-168831071D02*
X185302857Y-167831071D01*
X184517142Y-167831071D02*
X185302857Y-168831071D01*
X186945714Y-167473928D02*
X187017142Y-167402500D01*
X187160000Y-167331071D01*
X187517142Y-167331071D01*
X187660000Y-167402500D01*
X187731428Y-167473928D01*
X187802857Y-167616785D01*
X187802857Y-167759642D01*
X187731428Y-167973928D01*
X186874285Y-168831071D01*
X187802857Y-168831071D01*
X188731428Y-167331071D02*
X188874285Y-167331071D01*
X189017142Y-167402500D01*
X189088571Y-167473928D01*
X189160000Y-167616785D01*
X189231428Y-167902500D01*
X189231428Y-168259642D01*
X189160000Y-168545357D01*
X189088571Y-168688214D01*
X189017142Y-168759642D01*
X188874285Y-168831071D01*
X188731428Y-168831071D01*
X188588571Y-168759642D01*
X188517142Y-168688214D01*
X188445714Y-168545357D01*
X188374285Y-168259642D01*
X188374285Y-167902500D01*
X188445714Y-167616785D01*
X188517142Y-167473928D01*
X188588571Y-167402500D01*
X188731428Y-167331071D01*
X189874285Y-168688214D02*
X189945714Y-168759642D01*
X189874285Y-168831071D01*
X189802857Y-168759642D01*
X189874285Y-168688214D01*
X189874285Y-168831071D01*
X190445714Y-167331071D02*
X191374285Y-167331071D01*
X190874285Y-167902500D01*
X191088571Y-167902500D01*
X191231428Y-167973928D01*
X191302857Y-168045357D01*
X191374285Y-168188214D01*
X191374285Y-168545357D01*
X191302857Y-168688214D01*
X191231428Y-168759642D01*
X191088571Y-168831071D01*
X190660000Y-168831071D01*
X190517142Y-168759642D01*
X190445714Y-168688214D01*
X192231428Y-167973928D02*
X192088571Y-167902500D01*
X192017142Y-167831071D01*
X191945714Y-167688214D01*
X191945714Y-167616785D01*
X192017142Y-167473928D01*
X192088571Y-167402500D01*
X192231428Y-167331071D01*
X192517142Y-167331071D01*
X192660000Y-167402500D01*
X192731428Y-167473928D01*
X192802857Y-167616785D01*
X192802857Y-167688214D01*
X192731428Y-167831071D01*
X192660000Y-167902500D01*
X192517142Y-167973928D01*
X192231428Y-167973928D01*
X192088571Y-168045357D01*
X192017142Y-168116785D01*
X191945714Y-168259642D01*
X191945714Y-168545357D01*
X192017142Y-168688214D01*
X192088571Y-168759642D01*
X192231428Y-168831071D01*
X192517142Y-168831071D01*
X192660000Y-168759642D01*
X192731428Y-168688214D01*
X192802857Y-168545357D01*
X192802857Y-168259642D01*
X192731428Y-168116785D01*
X192660000Y-168045357D01*
X192517142Y-167973928D01*
X193660000Y-167973928D02*
X193517142Y-167902500D01*
X193445714Y-167831071D01*
X193374285Y-167688214D01*
X193374285Y-167616785D01*
X193445714Y-167473928D01*
X193517142Y-167402500D01*
X193660000Y-167331071D01*
X193945714Y-167331071D01*
X194088571Y-167402500D01*
X194160000Y-167473928D01*
X194231428Y-167616785D01*
X194231428Y-167688214D01*
X194160000Y-167831071D01*
X194088571Y-167902500D01*
X193945714Y-167973928D01*
X193660000Y-167973928D01*
X193517142Y-168045357D01*
X193445714Y-168116785D01*
X193374285Y-168259642D01*
X193374285Y-168545357D01*
X193445714Y-168688214D01*
X193517142Y-168759642D01*
X193660000Y-168831071D01*
X193945714Y-168831071D01*
X194088571Y-168759642D01*
X194160000Y-168688214D01*
X194231428Y-168545357D01*
X194231428Y-168259642D01*
X194160000Y-168116785D01*
X194088571Y-168045357D01*
X193945714Y-167973928D01*
X184552857Y-170246071D02*
X184910000Y-171246071D01*
X185267142Y-170246071D02*
X184910000Y-171246071D01*
X184767142Y-171603214D01*
X184695714Y-171674642D01*
X184552857Y-171746071D01*
X187767142Y-171246071D02*
X186910000Y-171246071D01*
X187338571Y-171246071D02*
X187338571Y-169746071D01*
X187195714Y-169960357D01*
X187052857Y-170103214D01*
X186910000Y-170174642D01*
X189124285Y-169746071D02*
X188410000Y-169746071D01*
X188338571Y-170460357D01*
X188410000Y-170388928D01*
X188552857Y-170317500D01*
X188910000Y-170317500D01*
X189052857Y-170388928D01*
X189124285Y-170460357D01*
X189195714Y-170603214D01*
X189195714Y-170960357D01*
X189124285Y-171103214D01*
X189052857Y-171174642D01*
X188910000Y-171246071D01*
X188552857Y-171246071D01*
X188410000Y-171174642D01*
X188338571Y-171103214D01*
X189838571Y-171103214D02*
X189910000Y-171174642D01*
X189838571Y-171246071D01*
X189767142Y-171174642D01*
X189838571Y-171103214D01*
X189838571Y-171246071D01*
X190410000Y-169746071D02*
X191410000Y-169746071D01*
X190767142Y-171246071D01*
X192767142Y-171246071D02*
X191910000Y-171246071D01*
X192338571Y-171246071D02*
X192338571Y-169746071D01*
X192195714Y-169960357D01*
X192052857Y-170103214D01*
X191910000Y-170174642D01*
X194124285Y-169746071D02*
X193410000Y-169746071D01*
X193338571Y-170460357D01*
X193410000Y-170388928D01*
X193552857Y-170317500D01*
X193910000Y-170317500D01*
X194052857Y-170388928D01*
X194124285Y-170460357D01*
X194195714Y-170603214D01*
X194195714Y-170960357D01*
X194124285Y-171103214D01*
X194052857Y-171174642D01*
X193910000Y-171246071D01*
X193552857Y-171246071D01*
X193410000Y-171174642D01*
X193338571Y-171103214D01*
D10*
X376705952Y-79172380D02*
X377229761Y-78505714D01*
X376705952Y-78505714D02*
X377229761Y-79172380D01*
X378896428Y-79172380D02*
X378325000Y-79172380D01*
X378610714Y-79172380D02*
X378610714Y-78172380D01*
X378515476Y-78315238D01*
X378420238Y-78410476D01*
X378325000Y-78458095D01*
X375634523Y-80115714D02*
X375872619Y-80782380D01*
X376110714Y-80115714D02*
X375872619Y-80782380D01*
X375777380Y-81020476D01*
X375729761Y-81068095D01*
X375634523Y-81115714D01*
X377253571Y-80401428D02*
X378015476Y-80401428D01*
X379015476Y-80782380D02*
X378444047Y-80782380D01*
X378729761Y-80782380D02*
X378729761Y-79782380D01*
X378634523Y-79925238D01*
X378539285Y-80020476D01*
X378444047Y-80068095D01*
X379586904Y-80210952D02*
X379491666Y-80163333D01*
X379444047Y-80115714D01*
X379396428Y-80020476D01*
X379396428Y-79972857D01*
X379444047Y-79877619D01*
X379491666Y-79830000D01*
X379586904Y-79782380D01*
X379777380Y-79782380D01*
X379872619Y-79830000D01*
X379920238Y-79877619D01*
X379967857Y-79972857D01*
X379967857Y-80020476D01*
X379920238Y-80115714D01*
X379872619Y-80163333D01*
X379777380Y-80210952D01*
X379586904Y-80210952D01*
X379491666Y-80258571D01*
X379444047Y-80306190D01*
X379396428Y-80401428D01*
X379396428Y-80591904D01*
X379444047Y-80687142D01*
X379491666Y-80734761D01*
X379586904Y-80782380D01*
X379777380Y-80782380D01*
X379872619Y-80734761D01*
X379920238Y-80687142D01*
X379967857Y-80591904D01*
X379967857Y-80401428D01*
X379920238Y-80306190D01*
X379872619Y-80258571D01*
X379777380Y-80210952D01*
X67506353Y-193668310D02*
X68030162Y-193001644D01*
X67506353Y-193001644D02*
X68030162Y-193668310D01*
X69220638Y-193668310D02*
X69411115Y-193668310D01*
X69506353Y-193620691D01*
X69553972Y-193573072D01*
X69649210Y-193430215D01*
X69696829Y-193239739D01*
X69696829Y-192858787D01*
X69649210Y-192763549D01*
X69601591Y-192715930D01*
X69506353Y-192668310D01*
X69315877Y-192668310D01*
X69220638Y-192715930D01*
X69173019Y-192763549D01*
X69125400Y-192858787D01*
X69125400Y-193096882D01*
X69173019Y-193192120D01*
X69220638Y-193239739D01*
X69315877Y-193287358D01*
X69506353Y-193287358D01*
X69601591Y-193239739D01*
X69649210Y-193192120D01*
X69696829Y-193096882D01*
X70125400Y-193573072D02*
X70173019Y-193620691D01*
X70125400Y-193668310D01*
X70077781Y-193620691D01*
X70125400Y-193573072D01*
X70125400Y-193668310D01*
X70792067Y-192668310D02*
X70887305Y-192668310D01*
X70982543Y-192715930D01*
X71030162Y-192763549D01*
X71077781Y-192858787D01*
X71125400Y-193049263D01*
X71125400Y-193287358D01*
X71077781Y-193477834D01*
X71030162Y-193573072D01*
X70982543Y-193620691D01*
X70887305Y-193668310D01*
X70792067Y-193668310D01*
X70696829Y-193620691D01*
X70649210Y-193573072D01*
X70601591Y-193477834D01*
X70553972Y-193287358D01*
X70553972Y-193049263D01*
X70601591Y-192858787D01*
X70649210Y-192763549D01*
X70696829Y-192715930D01*
X70792067Y-192668310D01*
X71744448Y-192668310D02*
X71839686Y-192668310D01*
X71934924Y-192715930D01*
X71982543Y-192763549D01*
X72030162Y-192858787D01*
X72077781Y-193049263D01*
X72077781Y-193287358D01*
X72030162Y-193477834D01*
X71982543Y-193573072D01*
X71934924Y-193620691D01*
X71839686Y-193668310D01*
X71744448Y-193668310D01*
X71649210Y-193620691D01*
X71601591Y-193573072D01*
X71553972Y-193477834D01*
X71506353Y-193287358D01*
X71506353Y-193049263D01*
X71553972Y-192858787D01*
X71601591Y-192763549D01*
X71649210Y-192715930D01*
X71744448Y-192668310D01*
X91506354Y-184783313D02*
X92030163Y-184116647D01*
X91506354Y-184116647D02*
X92030163Y-184783313D01*
X93220639Y-184783313D02*
X93411116Y-184783313D01*
X93506354Y-184735694D01*
X93553973Y-184688075D01*
X93649211Y-184545218D01*
X93696830Y-184354742D01*
X93696830Y-183973790D01*
X93649211Y-183878552D01*
X93601592Y-183830933D01*
X93506354Y-183783313D01*
X93315878Y-183783313D01*
X93220639Y-183830933D01*
X93173020Y-183878552D01*
X93125401Y-183973790D01*
X93125401Y-184211885D01*
X93173020Y-184307123D01*
X93220639Y-184354742D01*
X93315878Y-184402361D01*
X93506354Y-184402361D01*
X93601592Y-184354742D01*
X93649211Y-184307123D01*
X93696830Y-184211885D01*
X94125401Y-184688075D02*
X94173020Y-184735694D01*
X94125401Y-184783313D01*
X94077782Y-184735694D01*
X94125401Y-184688075D01*
X94125401Y-184783313D01*
X94792068Y-183783313D02*
X94887306Y-183783313D01*
X94982544Y-183830933D01*
X95030163Y-183878552D01*
X95077782Y-183973790D01*
X95125401Y-184164266D01*
X95125401Y-184402361D01*
X95077782Y-184592837D01*
X95030163Y-184688075D01*
X94982544Y-184735694D01*
X94887306Y-184783313D01*
X94792068Y-184783313D01*
X94696830Y-184735694D01*
X94649211Y-184688075D01*
X94601592Y-184592837D01*
X94553973Y-184402361D01*
X94553973Y-184164266D01*
X94601592Y-183973790D01*
X94649211Y-183878552D01*
X94696830Y-183830933D01*
X94792068Y-183783313D01*
X95744449Y-183783313D02*
X95839687Y-183783313D01*
X95934925Y-183830933D01*
X95982544Y-183878552D01*
X96030163Y-183973790D01*
X96077782Y-184164266D01*
X96077782Y-184402361D01*
X96030163Y-184592837D01*
X95982544Y-184688075D01*
X95934925Y-184735694D01*
X95839687Y-184783313D01*
X95744449Y-184783313D01*
X95649211Y-184735694D01*
X95601592Y-184688075D01*
X95553973Y-184592837D01*
X95506354Y-184402361D01*
X95506354Y-184164266D01*
X95553973Y-183973790D01*
X95601592Y-183878552D01*
X95649211Y-183830933D01*
X95744449Y-183783313D01*
X90577782Y-185726647D02*
X90815878Y-186393313D01*
X91053973Y-185726647D02*
X90815878Y-186393313D01*
X90720639Y-186631409D01*
X90673020Y-186679028D01*
X90577782Y-186726647D01*
X92720639Y-186393313D02*
X92149211Y-186393313D01*
X92434925Y-186393313D02*
X92434925Y-185393313D01*
X92339687Y-185536171D01*
X92244449Y-185631409D01*
X92149211Y-185679028D01*
X93196830Y-186393313D02*
X93387306Y-186393313D01*
X93482544Y-186345694D01*
X93530163Y-186298075D01*
X93625401Y-186155218D01*
X93673020Y-185964742D01*
X93673020Y-185583790D01*
X93625401Y-185488552D01*
X93577782Y-185440933D01*
X93482544Y-185393313D01*
X93292068Y-185393313D01*
X93196830Y-185440933D01*
X93149211Y-185488552D01*
X93101592Y-185583790D01*
X93101592Y-185821885D01*
X93149211Y-185917123D01*
X93196830Y-185964742D01*
X93292068Y-186012361D01*
X93482544Y-186012361D01*
X93577782Y-185964742D01*
X93625401Y-185917123D01*
X93673020Y-185821885D01*
X94101592Y-186298075D02*
X94149211Y-186345694D01*
X94101592Y-186393313D01*
X94053973Y-186345694D01*
X94101592Y-186298075D01*
X94101592Y-186393313D01*
X95053973Y-185393313D02*
X94577782Y-185393313D01*
X94530163Y-185869504D01*
X94577782Y-185821885D01*
X94673020Y-185774266D01*
X94911116Y-185774266D01*
X95006354Y-185821885D01*
X95053973Y-185869504D01*
X95101592Y-185964742D01*
X95101592Y-186202837D01*
X95053973Y-186298075D01*
X95006354Y-186345694D01*
X94911116Y-186393313D01*
X94673020Y-186393313D01*
X94577782Y-186345694D01*
X94530163Y-186298075D01*
X95434925Y-185393313D02*
X96101592Y-185393313D01*
X95673020Y-186393313D01*
X96958735Y-185393313D02*
X96482544Y-185393313D01*
X96434925Y-185869504D01*
X96482544Y-185821885D01*
X96577782Y-185774266D01*
X96815878Y-185774266D01*
X96911116Y-185821885D01*
X96958735Y-185869504D01*
X97006354Y-185964742D01*
X97006354Y-186202837D01*
X96958735Y-186298075D01*
X96911116Y-186345694D01*
X96815878Y-186393313D01*
X96577782Y-186393313D01*
X96482544Y-186345694D01*
X96434925Y-186298075D01*
D11*
X257017857Y-147396071D02*
X257803571Y-146396071D01*
X257017857Y-146396071D02*
X257803571Y-147396071D01*
X259517857Y-146824642D02*
X260660714Y-146824642D01*
X262089285Y-145896071D02*
X261375000Y-145896071D01*
X261303571Y-146610357D01*
X261375000Y-146538928D01*
X261517857Y-146467500D01*
X261875000Y-146467500D01*
X262017857Y-146538928D01*
X262089285Y-146610357D01*
X262160714Y-146753214D01*
X262160714Y-147110357D01*
X262089285Y-147253214D01*
X262017857Y-147324642D01*
X261875000Y-147396071D01*
X261517857Y-147396071D01*
X261375000Y-147324642D01*
X261303571Y-147253214D01*
X257053571Y-148811071D02*
X257410714Y-149811071D01*
X257767857Y-148811071D02*
X257410714Y-149811071D01*
X257267857Y-150168214D01*
X257196428Y-150239642D01*
X257053571Y-150311071D01*
X259482142Y-149239642D02*
X260625000Y-149239642D01*
X261410714Y-149811071D02*
X261696428Y-149811071D01*
X261839285Y-149739642D01*
X261910714Y-149668214D01*
X262053571Y-149453928D01*
X262125000Y-149168214D01*
X262125000Y-148596785D01*
X262053571Y-148453928D01*
X261982142Y-148382500D01*
X261839285Y-148311071D01*
X261553571Y-148311071D01*
X261410714Y-148382500D01*
X261339285Y-148453928D01*
X261267857Y-148596785D01*
X261267857Y-148953928D01*
X261339285Y-149096785D01*
X261410714Y-149168214D01*
X261553571Y-149239642D01*
X261839285Y-149239642D01*
X261982142Y-149168214D01*
X262053571Y-149096785D01*
X262125000Y-148953928D01*
X173163391Y-163181432D02*
X172306248Y-163181432D01*
X172734819Y-163181432D02*
X172734819Y-161681432D01*
X172591962Y-161895718D01*
X172449105Y-162038575D01*
X172306248Y-162110003D01*
X173806248Y-163038575D02*
X173877676Y-163110003D01*
X173806248Y-163181432D01*
X173734819Y-163110003D01*
X173806248Y-163038575D01*
X173806248Y-163181432D01*
X175163391Y-161681432D02*
X174877676Y-161681432D01*
X174734819Y-161752861D01*
X174663391Y-161824289D01*
X174520533Y-162038575D01*
X174449105Y-162324289D01*
X174449105Y-162895718D01*
X174520533Y-163038575D01*
X174591962Y-163110003D01*
X174734819Y-163181432D01*
X175020533Y-163181432D01*
X175163391Y-163110003D01*
X175234819Y-163038575D01*
X175306248Y-162895718D01*
X175306248Y-162538575D01*
X175234819Y-162395718D01*
X175163391Y-162324289D01*
X175020533Y-162252861D01*
X174734819Y-162252861D01*
X174591962Y-162324289D01*
X174520533Y-162395718D01*
X174449105Y-162538575D01*
X176020533Y-163181432D02*
X176306248Y-163181432D01*
X176449105Y-163110003D01*
X176520533Y-163038575D01*
X176663391Y-162824289D01*
X176734819Y-162538575D01*
X176734819Y-161967146D01*
X176663391Y-161824289D01*
X176591962Y-161752861D01*
X176449105Y-161681432D01*
X176163391Y-161681432D01*
X176020533Y-161752861D01*
X175949105Y-161824289D01*
X175877676Y-161967146D01*
X175877676Y-162324289D01*
X175949105Y-162467146D01*
X176020533Y-162538575D01*
X176163391Y-162610003D01*
X176449105Y-162610003D01*
X176591962Y-162538575D01*
X176663391Y-162467146D01*
X176734819Y-162324289D01*
X177591962Y-162324289D02*
X177449105Y-162252861D01*
X177377676Y-162181432D01*
X177306248Y-162038575D01*
X177306248Y-161967146D01*
X177377676Y-161824289D01*
X177449105Y-161752861D01*
X177591962Y-161681432D01*
X177877676Y-161681432D01*
X178020533Y-161752861D01*
X178091962Y-161824289D01*
X178163391Y-161967146D01*
X178163391Y-162038575D01*
X178091962Y-162181432D01*
X178020533Y-162252861D01*
X177877676Y-162324289D01*
X177591962Y-162324289D01*
X177449105Y-162395718D01*
X177377676Y-162467146D01*
X177306248Y-162610003D01*
X177306248Y-162895718D01*
X177377676Y-163038575D01*
X177449105Y-163110003D01*
X177591962Y-163181432D01*
X177877676Y-163181432D01*
X178020533Y-163110003D01*
X178091962Y-163038575D01*
X178163391Y-162895718D01*
X178163391Y-162610003D01*
X178091962Y-162467146D01*
X178020533Y-162395718D01*
X177877676Y-162324289D01*
X179806248Y-163181432D02*
X180591962Y-162181432D01*
X179806248Y-162181432D02*
X180591962Y-163181432D01*
X171627676Y-164239289D02*
X171699105Y-164167861D01*
X171841962Y-164096432D01*
X172199105Y-164096432D01*
X172341962Y-164167861D01*
X172413391Y-164239289D01*
X172484819Y-164382146D01*
X172484819Y-164525003D01*
X172413391Y-164739289D01*
X171556248Y-165596432D01*
X172484819Y-165596432D01*
X173056248Y-164239289D02*
X173127676Y-164167861D01*
X173270533Y-164096432D01*
X173627676Y-164096432D01*
X173770533Y-164167861D01*
X173841962Y-164239289D01*
X173913391Y-164382146D01*
X173913391Y-164525003D01*
X173841962Y-164739289D01*
X172984819Y-165596432D01*
X173913391Y-165596432D01*
X174556248Y-165453575D02*
X174627676Y-165525003D01*
X174556248Y-165596432D01*
X174484819Y-165525003D01*
X174556248Y-165453575D01*
X174556248Y-165596432D01*
X175556248Y-164096432D02*
X175699105Y-164096432D01*
X175841962Y-164167861D01*
X175913391Y-164239289D01*
X175984819Y-164382146D01*
X176056248Y-164667861D01*
X176056248Y-165025003D01*
X175984819Y-165310718D01*
X175913391Y-165453575D01*
X175841962Y-165525003D01*
X175699105Y-165596432D01*
X175556248Y-165596432D01*
X175413391Y-165525003D01*
X175341962Y-165453575D01*
X175270533Y-165310718D01*
X175199105Y-165025003D01*
X175199105Y-164667861D01*
X175270533Y-164382146D01*
X175341962Y-164239289D01*
X175413391Y-164167861D01*
X175556248Y-164096432D01*
X176627676Y-164239289D02*
X176699105Y-164167861D01*
X176841962Y-164096432D01*
X177199105Y-164096432D01*
X177341962Y-164167861D01*
X177413391Y-164239289D01*
X177484819Y-164382146D01*
X177484819Y-164525003D01*
X177413391Y-164739289D01*
X176556248Y-165596432D01*
X177484819Y-165596432D01*
X177984819Y-164096432D02*
X178984819Y-164096432D01*
X178341962Y-165596432D01*
X180556248Y-164596432D02*
X180913391Y-165596432D01*
X181270533Y-164596432D02*
X180913391Y-165596432D01*
X180770533Y-165953575D01*
X180699105Y-166025003D01*
X180556248Y-166096432D01*
D10*
%TO.C,J6*%
X239249271Y-154231135D02*
X239201652Y-154278754D01*
X239058795Y-154326373D01*
X238963557Y-154326373D01*
X238820700Y-154278754D01*
X238725462Y-154183516D01*
X238677843Y-154088278D01*
X238630224Y-153897802D01*
X238630224Y-153754945D01*
X238677843Y-153564469D01*
X238725462Y-153469231D01*
X238820700Y-153373993D01*
X238963557Y-153326373D01*
X239058795Y-153326373D01*
X239201652Y-153373993D01*
X239249271Y-153421612D01*
X240106414Y-153659707D02*
X240106414Y-154326373D01*
X239868319Y-153278754D02*
X239630224Y-153993040D01*
X240249271Y-153993040D01*
X240534986Y-153326373D02*
X241201652Y-153326373D01*
X240773081Y-154326373D01*
X241630224Y-154326373D02*
X241820700Y-154326373D01*
X241915938Y-154278754D01*
X241963557Y-154231135D01*
X242058795Y-154088278D01*
X242106414Y-153897802D01*
X242106414Y-153516850D01*
X242058795Y-153421612D01*
X242011176Y-153373993D01*
X241915938Y-153326373D01*
X241725462Y-153326373D01*
X241630224Y-153373993D01*
X241582605Y-153421612D01*
X241534986Y-153516850D01*
X241534986Y-153754945D01*
X241582605Y-153850183D01*
X241630224Y-153897802D01*
X241725462Y-153945421D01*
X241915938Y-153945421D01*
X242011176Y-153897802D01*
X242058795Y-153850183D01*
X242106414Y-153754945D01*
X242439748Y-153326373D02*
X243106414Y-153326373D01*
X242677843Y-154326373D01*
X243963557Y-153326373D02*
X243487367Y-153326373D01*
X243439748Y-153802564D01*
X243487367Y-153754945D01*
X243582605Y-153707326D01*
X243820700Y-153707326D01*
X243915938Y-153754945D01*
X243963557Y-153802564D01*
X244011176Y-153897802D01*
X244011176Y-154135897D01*
X243963557Y-154231135D01*
X243915938Y-154278754D01*
X243820700Y-154326373D01*
X243582605Y-154326373D01*
X243487367Y-154278754D01*
X243439748Y-154231135D01*
X244630224Y-153326373D02*
X244725462Y-153326373D01*
X244820700Y-153373993D01*
X244868319Y-153421612D01*
X244915938Y-153516850D01*
X244963557Y-153707326D01*
X244963557Y-153945421D01*
X244915938Y-154135897D01*
X244868319Y-154231135D01*
X244820700Y-154278754D01*
X244725462Y-154326373D01*
X244630224Y-154326373D01*
X244534986Y-154278754D01*
X244487367Y-154231135D01*
X244439748Y-154135897D01*
X244392129Y-153945421D01*
X244392129Y-153707326D01*
X244439748Y-153516850D01*
X244487367Y-153421612D01*
X244534986Y-153373993D01*
X244630224Y-153326373D01*
%TO.C,S2*%
X241285532Y-179034441D02*
X240578425Y-179741548D01*
X240881471Y-178630380D02*
X240780456Y-179337487D01*
X240174364Y-179337487D02*
X240982486Y-179337487D01*
X240208036Y-177956945D02*
X240612097Y-178361006D01*
X240410067Y-178158975D02*
X239702960Y-178866082D01*
X239871319Y-178832410D01*
X240006006Y-178832410D01*
X240107021Y-178866082D01*
X239635616Y-177923273D02*
X239096868Y-177384525D01*
X238659136Y-176408044D02*
X239063197Y-176812105D01*
X238861166Y-176610075D02*
X238154059Y-177317182D01*
X238322418Y-177283510D01*
X238457105Y-177283510D01*
X238558120Y-177317182D01*
X237312266Y-176475388D02*
X237648983Y-176812105D01*
X238019372Y-176509060D01*
X237952029Y-176509060D01*
X237851014Y-176475388D01*
X237682655Y-176307029D01*
X237648983Y-176206014D01*
X237648983Y-176138670D01*
X237682655Y-176037655D01*
X237851014Y-175869296D01*
X237952029Y-175835625D01*
X238019372Y-175835625D01*
X238120388Y-175869296D01*
X238288746Y-176037655D01*
X238322418Y-176138670D01*
X238322418Y-176206014D01*
X236840861Y-176003983D02*
X236773517Y-175936640D01*
X236739846Y-175835625D01*
X236739846Y-175768281D01*
X236773517Y-175667266D01*
X236874533Y-175498907D01*
X237042892Y-175330548D01*
X237211250Y-175229533D01*
X237312266Y-175195861D01*
X237379609Y-175195861D01*
X237480624Y-175229533D01*
X237547968Y-175296877D01*
X237581640Y-175397892D01*
X237581640Y-175465235D01*
X237547968Y-175566251D01*
X237446953Y-175734609D01*
X237278594Y-175902968D01*
X237110235Y-176003983D01*
X237009220Y-176037655D01*
X236941876Y-176037655D01*
X236840861Y-176003983D01*
X236504143Y-175061174D02*
X236537815Y-175162189D01*
X236537815Y-175229533D01*
X236504143Y-175330548D01*
X236470472Y-175364220D01*
X236369456Y-175397892D01*
X236302113Y-175397892D01*
X236201098Y-175364220D01*
X236066411Y-175229533D01*
X236032739Y-175128518D01*
X236032739Y-175061174D01*
X236066411Y-174960159D01*
X236100082Y-174926487D01*
X236201098Y-174892815D01*
X236268441Y-174892815D01*
X236369456Y-174926487D01*
X236504143Y-175061174D01*
X236605159Y-175094846D01*
X236672502Y-175094846D01*
X236773517Y-175061174D01*
X236908205Y-174926487D01*
X236941876Y-174825472D01*
X236941876Y-174758128D01*
X236908205Y-174657113D01*
X236773517Y-174522426D01*
X236672502Y-174488754D01*
X236605159Y-174488754D01*
X236504143Y-174522426D01*
X236369456Y-174657113D01*
X236335785Y-174758128D01*
X236335785Y-174825472D01*
X236369456Y-174926487D01*
X236335785Y-174152037D02*
X236268441Y-174017350D01*
X236100082Y-173848991D01*
X235999067Y-173815319D01*
X235931724Y-173815319D01*
X235830708Y-173848991D01*
X235763365Y-173916335D01*
X235729693Y-174017350D01*
X235729693Y-174084693D01*
X235763365Y-174185709D01*
X235864380Y-174354067D01*
X235898052Y-174455083D01*
X235898052Y-174522426D01*
X235864380Y-174623441D01*
X235797037Y-174690785D01*
X235696021Y-174724457D01*
X235628678Y-174724457D01*
X235527663Y-174690785D01*
X235359304Y-174522426D01*
X235291960Y-174387739D01*
X235493991Y-173646961D02*
X235157273Y-173310243D01*
X235763365Y-173512274D02*
X234820556Y-173983678D01*
X235291960Y-173040869D01*
X234786884Y-173074541D02*
X234248136Y-172535793D01*
X233338999Y-172502121D02*
X233271655Y-172434778D01*
X233237984Y-172333762D01*
X233237984Y-172266419D01*
X233271655Y-172165404D01*
X233372671Y-171997045D01*
X233541029Y-171828686D01*
X233709388Y-171727671D01*
X233810403Y-171693999D01*
X233877747Y-171693999D01*
X233978762Y-171727671D01*
X234046106Y-171795014D01*
X234079777Y-171896030D01*
X234079777Y-171963373D01*
X234046106Y-172064388D01*
X233945090Y-172232747D01*
X233776732Y-172401106D01*
X233608373Y-172502121D01*
X233507358Y-172535793D01*
X233440014Y-172535793D01*
X233338999Y-172502121D01*
X232867594Y-172030717D02*
X232429862Y-171592984D01*
X232934938Y-171559312D01*
X232833923Y-171458297D01*
X232800251Y-171357282D01*
X232800251Y-171289938D01*
X232833923Y-171188923D01*
X233002281Y-171020564D01*
X233103297Y-170986892D01*
X233170640Y-170986892D01*
X233271655Y-171020564D01*
X233473686Y-171222595D01*
X233507358Y-171323610D01*
X233507358Y-171390953D01*
%TO.C,J4*%
X184944270Y-154231135D02*
X184896651Y-154278754D01*
X184753794Y-154326373D01*
X184658556Y-154326373D01*
X184515699Y-154278754D01*
X184420461Y-154183516D01*
X184372842Y-154088278D01*
X184325223Y-153897802D01*
X184325223Y-153754945D01*
X184372842Y-153564469D01*
X184420461Y-153469231D01*
X184515699Y-153373993D01*
X184658556Y-153326373D01*
X184753794Y-153326373D01*
X184896651Y-153373993D01*
X184944270Y-153421612D01*
X185801413Y-153659707D02*
X185801413Y-154326373D01*
X185563318Y-153278754D02*
X185325223Y-153993040D01*
X185944270Y-153993040D01*
X186229985Y-153326373D02*
X186896651Y-153326373D01*
X186468080Y-154326373D01*
X187325223Y-154326373D02*
X187515699Y-154326373D01*
X187610937Y-154278754D01*
X187658556Y-154231135D01*
X187753794Y-154088278D01*
X187801413Y-153897802D01*
X187801413Y-153516850D01*
X187753794Y-153421612D01*
X187706175Y-153373993D01*
X187610937Y-153326373D01*
X187420461Y-153326373D01*
X187325223Y-153373993D01*
X187277604Y-153421612D01*
X187229985Y-153516850D01*
X187229985Y-153754945D01*
X187277604Y-153850183D01*
X187325223Y-153897802D01*
X187420461Y-153945421D01*
X187610937Y-153945421D01*
X187706175Y-153897802D01*
X187753794Y-153850183D01*
X187801413Y-153754945D01*
X188134747Y-153326373D02*
X188801413Y-153326373D01*
X188372842Y-154326373D01*
X189658556Y-153326373D02*
X189182366Y-153326373D01*
X189134747Y-153802564D01*
X189182366Y-153754945D01*
X189277604Y-153707326D01*
X189515699Y-153707326D01*
X189610937Y-153754945D01*
X189658556Y-153802564D01*
X189706175Y-153897802D01*
X189706175Y-154135897D01*
X189658556Y-154231135D01*
X189610937Y-154278754D01*
X189515699Y-154326373D01*
X189277604Y-154326373D01*
X189182366Y-154278754D01*
X189134747Y-154231135D01*
X190325223Y-153326373D02*
X190420461Y-153326373D01*
X190515699Y-153373993D01*
X190563318Y-153421612D01*
X190610937Y-153516850D01*
X190658556Y-153707326D01*
X190658556Y-153945421D01*
X190610937Y-154135897D01*
X190563318Y-154231135D01*
X190515699Y-154278754D01*
X190420461Y-154326373D01*
X190325223Y-154326373D01*
X190229985Y-154278754D01*
X190182366Y-154231135D01*
X190134747Y-154135897D01*
X190087128Y-153945421D01*
X190087128Y-153707326D01*
X190134747Y-153516850D01*
X190182366Y-153421612D01*
X190229985Y-153373993D01*
X190325223Y-153326373D01*
%TO.C,S1*%
X189809312Y-179739123D02*
X189102205Y-179032016D01*
X190213373Y-179335062D02*
X189506266Y-179234047D01*
X189506266Y-178627955D02*
X189506266Y-179436077D01*
X190886808Y-178661627D02*
X190482747Y-179065688D01*
X190684778Y-178863658D02*
X189977671Y-178156551D01*
X190011343Y-178324910D01*
X190011343Y-178459597D01*
X189977671Y-178560612D01*
X190920480Y-178089207D02*
X191459228Y-177550459D01*
X192435709Y-177112727D02*
X192031648Y-177516788D01*
X192233678Y-177314757D02*
X191526571Y-176607650D01*
X191560243Y-176776009D01*
X191560243Y-176910696D01*
X191526571Y-177011711D01*
X192368365Y-175765857D02*
X192031648Y-176102574D01*
X192334693Y-176472963D01*
X192334693Y-176405620D01*
X192368365Y-176304605D01*
X192536724Y-176136246D01*
X192637739Y-176102574D01*
X192705083Y-176102574D01*
X192806098Y-176136246D01*
X192974457Y-176304605D01*
X193008128Y-176405620D01*
X193008128Y-176472963D01*
X192974457Y-176573979D01*
X192806098Y-176742337D01*
X192705083Y-176776009D01*
X192637739Y-176776009D01*
X192839770Y-175294452D02*
X192907113Y-175227108D01*
X193008128Y-175193437D01*
X193075472Y-175193437D01*
X193176487Y-175227108D01*
X193344846Y-175328124D01*
X193513205Y-175496483D01*
X193614220Y-175664841D01*
X193647892Y-175765857D01*
X193647892Y-175833200D01*
X193614220Y-175934215D01*
X193546877Y-176001559D01*
X193445861Y-176035231D01*
X193378518Y-176035231D01*
X193277502Y-176001559D01*
X193109144Y-175900544D01*
X192940785Y-175732185D01*
X192839770Y-175563826D01*
X192806098Y-175462811D01*
X192806098Y-175395467D01*
X192839770Y-175294452D01*
X193782579Y-174957734D02*
X193681564Y-174991406D01*
X193614220Y-174991406D01*
X193513205Y-174957734D01*
X193479533Y-174924063D01*
X193445861Y-174823047D01*
X193445861Y-174755704D01*
X193479533Y-174654689D01*
X193614220Y-174520002D01*
X193715235Y-174486330D01*
X193782579Y-174486330D01*
X193883594Y-174520002D01*
X193917266Y-174553673D01*
X193950938Y-174654689D01*
X193950938Y-174722032D01*
X193917266Y-174823047D01*
X193782579Y-174957734D01*
X193748907Y-175058750D01*
X193748907Y-175126093D01*
X193782579Y-175227108D01*
X193917266Y-175361796D01*
X194018281Y-175395467D01*
X194085625Y-175395467D01*
X194186640Y-175361796D01*
X194321327Y-175227108D01*
X194354999Y-175126093D01*
X194354999Y-175058750D01*
X194321327Y-174957734D01*
X194186640Y-174823047D01*
X194085625Y-174789376D01*
X194018281Y-174789376D01*
X193917266Y-174823047D01*
X194691716Y-174789376D02*
X194826403Y-174722032D01*
X194994762Y-174553673D01*
X195028434Y-174452658D01*
X195028434Y-174385315D01*
X194994762Y-174284299D01*
X194927418Y-174216956D01*
X194826403Y-174183284D01*
X194759060Y-174183284D01*
X194658044Y-174216956D01*
X194489686Y-174317971D01*
X194388670Y-174351643D01*
X194321327Y-174351643D01*
X194220312Y-174317971D01*
X194152968Y-174250628D01*
X194119296Y-174149612D01*
X194119296Y-174082269D01*
X194152968Y-173981254D01*
X194321327Y-173812895D01*
X194456014Y-173745551D01*
X195196792Y-173947582D02*
X195533510Y-173610864D01*
X195331479Y-174216956D02*
X194860075Y-173274147D01*
X195802884Y-173745551D01*
X195769212Y-173240475D02*
X196307960Y-172701727D01*
X196341632Y-171792590D02*
X196408975Y-171725246D01*
X196509991Y-171691575D01*
X196577334Y-171691575D01*
X196678349Y-171725246D01*
X196846708Y-171826262D01*
X197015067Y-171994620D01*
X197116082Y-172162979D01*
X197149754Y-172263994D01*
X197149754Y-172331338D01*
X197116082Y-172432353D01*
X197048739Y-172499697D01*
X196947723Y-172533368D01*
X196880380Y-172533368D01*
X196779365Y-172499697D01*
X196611006Y-172398681D01*
X196442647Y-172230323D01*
X196341632Y-172061964D01*
X196307960Y-171960949D01*
X196307960Y-171893605D01*
X196341632Y-171792590D01*
X196813036Y-171321185D02*
X197250769Y-170883453D01*
X197284441Y-171388529D01*
X197385456Y-171287514D01*
X197486471Y-171253842D01*
X197553815Y-171253842D01*
X197654830Y-171287514D01*
X197823189Y-171455872D01*
X197856861Y-171556888D01*
X197856861Y-171624231D01*
X197823189Y-171725246D01*
X197621158Y-171927277D01*
X197520143Y-171960949D01*
X197452800Y-171960949D01*
%TD*%
M02*
