M48
; DRILL file {KiCad (6.0.5)} date Fri Aug 12 23:05:57 2022
; FORMAT={-:-/ absolute / inch / decimal}
; #@! TF.CreationDate,2022-08-12T23:05:57+08:00
; #@! TF.GenerationSoftware,Kicad,Pcbnew,(6.0.5)
; #@! TF.FileFunction,Plated,1,4,PTH
FMAT,2
INCH
; #@! TA.AperFunction,Plated,PTH,ViaDrill
T1C0.0118
; #@! TA.AperFunction,Plated,PTH,ViaDrill
T2C0.0157
; #@! TA.AperFunction,Plated,PTH,ComponentDrill
T3C0.0197
; #@! TA.AperFunction,Plated,PTH,ComponentDrill
T4C0.0236
; #@! TA.AperFunction,Plated,PTH,ComponentDrill
T5C0.0394
; #@! TA.AperFunction,Plated,PTH,ComponentDrill
T6C0.0600
%
G90
G05
T1
X1.4213Y-3.8228
X1.4291Y-3.9567
X1.4358Y-4.8402
X1.4579Y-5.511
X1.4803Y-6.2756
X1.4813Y-7.3829
X1.5331Y-4.6043
X1.5354Y-6.1024
X1.5811Y-5.3957
X1.5819Y-3.8933
X1.626Y-6.1024
X1.6276Y-4.602
X1.7965Y-4.7732
X1.7992Y-6.2756
X1.8177Y-5.5945
X1.8181Y-3.8563
X1.8185Y-4.0941
X1.824Y-3.4988
X1.8386Y-7.0236
X1.8409Y-3.7516
X1.8539Y-3.5669
X1.878Y-4.065
X1.8831Y-5.565
X1.9078Y-7.3938
X1.926Y-3.5429
X1.9331Y-6.8937
X1.9878Y-3.4881
X2.024Y-3.8799
X2.028Y-4.3051
X2.028Y-5.8051
X2.0299Y-3.5488
X2.0319Y-6.5571
X2.0358Y-5.0571
X2.0772Y-3.5902
X2.1047Y-3.7138
X2.1487Y-6.5089
X2.1487Y-5.7589
X2.1508Y-4.261
X2.1509Y-5.0089
X2.1693Y-7.0945
X2.1709Y-3.515
X2.2039Y-3.5531
X2.2362Y-7.063
X2.2827Y-4.6039
X2.2874Y-6.1024
X2.3319Y-5.3961
X2.3323Y-3.8933
X2.3583Y-3.5154
X2.3583Y-6.9488
X2.374Y-6.1024
X2.3783Y-4.6031
X2.4213Y-6.9921
X2.5472Y-6.2717
X2.5476Y-4.7748
X2.5661Y-5.5961
X2.5681Y-4.0953
X2.6291Y-4.065
X2.6339Y-5.5665
X2.6601Y-7.3961
X2.661Y-3.9315
X2.661Y-4.6815
X2.661Y-5.4315
X2.661Y-6.1815
X2.685Y-6.9016
X2.8276Y-6.6728
X2.8287Y-6.8142
X2.8819Y-6.4409
X2.9213Y-7.0906
X2.9358Y-3.6579
X2.9358Y-4.4079
X2.9358Y-5.1579
X2.9358Y-5.9079
X2.9362Y-6.439
X2.948Y-6.3398
X2.9567Y-6.9331
X2.9768Y-6.3402
X2.9843Y-7.063
X3.0331Y-4.2291
X3.0354Y-5.7244
X3.0756Y-6.8165
X3.0803Y-3.5165
X3.0807Y-5.0193
X3.126Y-5.7283
X3.1272Y-4.2272
X3.15Y-7.024
X3.1524Y-7.0953
X3.1795Y-7.026
X3.185Y-6.7598
X3.1913Y-7.161
X3.2098Y-7.028
X3.2299Y-6.9972
X3.2335Y-7.1827
X3.274Y-7.2421
X3.2961Y-4.4
X3.2992Y-5.8976
X3.3161Y-3.7197
X3.3173Y-5.2201
X3.3791Y-3.6898
X3.3791Y-5.1898
X3.4098Y-7.0414
X3.4331Y-6.5394
X3.437Y-3.2748
X3.4476Y-2.8823
X3.448Y-2.9205
X3.452Y-3.0776
X3.4638Y-3.1681
X3.5232Y-3.0035
X3.528Y-4.6831
X3.5319Y-3.9311
X3.5319Y-5.435
X3.5319Y-6.187
X3.5461Y-2.9228
X3.6487Y-5.9462
X3.6487Y-5.1962
X3.6487Y-3.6962
X3.6506Y-4.4462
X3.6693Y-6.7402
X3.7232Y-3.1008
X3.7331Y-3.2772
X3.7362Y-6.7126
X3.7839Y-4.0409
X3.7874Y-5.5394
X3.8299Y-3.3311
X3.8311Y-4.8299
X3.8772Y-4.0398
X3.878Y-5.5433
X4.0472Y-4.2118
X4.0472Y-5.7126
X4.0673Y-5.0323
X4.0677Y-3.5319
X4.1327Y-3.502
X4.1335Y-5.0028
X4.1618Y-7.0413
X4.185Y-6.5354
X4.2472Y-4.2713
X4.2472Y-5.0213
X4.2472Y-5.7713
X4.2512Y-3.5217
X4.3283Y-5.098
X4.3366Y-4.3575
X4.3484Y-3.5929
X4.363Y-3.9673
X4.3654Y-5.2366
X4.3748Y-3.5622
X4.3748Y-4.4988
X4.3803Y-5.889
X4.4008Y-3.5398
X4.4213Y-6.7402
X4.4244Y-3.5732
X4.4843Y-6.7126
X4.5335Y-4.2287
X4.5354Y-5.7283
X4.5795Y-3.5197
X4.5807Y-5.0197
X4.626Y-5.7283
X4.6276Y-4.2272
X4.6654Y-3.4724
X4.689Y-3.3819
X4.7063Y-3.1512
X4.7075Y-3.1106
X4.7953Y-5.8976
X4.798Y-4.4
X4.8071Y-3.1575
X4.8169Y-3.7201
X4.8173Y-5.2201
X4.8654Y-3.161
X4.8673Y-3.026
X4.8807Y-3.6898
X4.8843Y-5.1898
X4.8894Y-3.0484
X4.9091Y-3.1618
X4.9094Y-2.6929
X4.9335Y-3.5201
X4.9344Y-7.0853
X4.9398Y-3.1634
X4.961Y-3.2791
X4.9654Y-3.4091
X4.9854Y-3.3386
X4.9992Y-3.4094
X5.028Y-4.6831
X5.028Y-5.435
X5.0319Y-3.9311
X5.0319Y-6.1831
X5.0827Y-6.6024
X5.0858Y-2.7453
X5.1487Y-6.2279
X5.1487Y-3.9779
X5.1487Y-4.7279
X5.1515Y-5.4807
X5.2827Y-3.2917
X5.2831Y-4.3217
X5.2831Y-5.8228
X5.2913Y-6.8622
X5.3303Y-3.6134
X5.3307Y-5.1142
X5.3469Y-4.3445
X5.3583Y-6.8307
X5.3815Y-5.8217
X5.4157Y-3.0236
X5.5465Y-4.4941
X5.5465Y-5.9925
X5.5654Y-5.3138
X5.5673Y-3.8134
X5.5794Y-7.1447
X5.613Y-3.6858
X5.6154Y-4.3992
X5.6327Y-3.7846
X5.6335Y-5.2839
X5.6437Y-7.339
X5.7209Y-5.7303
X5.7252Y-3.1909
X5.7681Y-5.3264
X5.7681Y-5.6831
X5.8252Y-5.3248
X5.8256Y-4.613
X5.8413Y-3.7138
X5.8697Y-3.735
X5.8938Y-2.7681
X5.8978Y-2.7917
X5.8978Y-2.8154
X5.8987Y-4.2847
X5.8987Y-5.0347
X5.8987Y-5.7847
X5.9468Y-3.7343
X5.9544Y-6.4952
X5.9976Y-3.7866
X6.026Y-4.0331
X6.0339Y-3.4783
X6.0343Y-5.3772
X6.0346Y-4.6272
X6.0697Y-3.7346
X6.0791Y-3.9181
X6.0827Y-7.2205
X6.1072Y-2.8626
X6.1102Y-3.0118
X6.122Y-6.1772
X6.1272Y-4.6272
X6.1276Y-5.3791
X6.1323Y-3.4768
X6.1358Y-3.6063
X6.1358Y-3.6535
X6.1378Y-7.185
X6.1394Y-3.687
X6.1496Y-6.2441
X6.1732Y-3.7244
X6.186Y-2.9492
X6.2224Y-2.7874
X6.2283Y-7.185
X6.2521Y-7.5683
X6.2618Y-7.772
X6.2638Y-3.7362
X6.2835Y-3.5689
X6.2858Y-3.0327
X6.2866Y-3.0693
X6.2866Y-3.535
X6.2878Y-3.1087
X6.2923Y-2.8075
X6.2972Y-4.7996
X6.2976Y-5.55
X6.2992Y-7.252
X6.3169Y-4.1209
X6.3435Y-2.8075
X6.3551Y-3.9823
X6.3563Y-3.5846
X6.3671Y-2.8075
X6.3799Y-4.098
X6.3907Y-2.8114
X6.3937Y-2.9646
X6.3946Y-2.8626
X6.3986Y-2.8351
X6.4094Y-6.4961
X6.4394Y-6.1213
X6.4598Y-6.0921
X6.4791Y-4.478
X6.485Y-6.0677
X6.4878Y-5.9681
X6.4902Y-3.8004
X6.5395Y-2.8547
X6.5434Y-2.8823
X6.5474Y-2.9099
X6.6Y-6.0476
X6.6016Y-6.0106
X6.6047Y-3.0413
X6.6378Y-7.437
X6.6465Y-5.9437
X6.6575Y-3.2445
X6.6606Y-6.1606
X6.6713Y-3.1654
X6.689Y-6.4134
X6.6965Y-2.9424
X6.7224Y-6.1374
X6.7441Y-7.7638
X6.7626Y-3.1429
X6.7824Y-7.038
X6.811Y-7.7362
X6.822Y-6.0528
X6.8387Y-2.9059
X6.8425Y-6.4094
X6.8505Y-2.8508
X6.8505Y-2.8784
X6.8744Y-6.2331
X7.0157Y-7.5748
X7.0197Y-6.7717
X7.0472Y-6.8386
X7.2283Y-7.1496
X7.2303Y-4.2638
X7.2598Y-4.063
X7.3031Y-7.2992
X7.3346Y-4.122
X7.3406Y-4.2638
X7.3697Y-4.1937
X7.3701Y-4.2638
X7.4154Y-6.2618
X7.4587Y-6.2618
X7.4878Y-6.0598
X7.5138Y-6.2421
X7.5335Y-4.2638
X7.5807Y-6.2421
X7.6535Y-6.8878
X9.3499Y-3.3046
X9.405Y-4.2652
X9.4365Y-4.0605
X9.4601Y-3.1629
X9.5152Y-4.1235
X9.5152Y-4.2652
X9.5467Y-4.2652
X9.5571Y-6.2559
X9.5984Y-6.2559
X9.6236Y-7.0614
X9.6319Y-6.1791
X9.657Y-4.1077
X9.657Y-4.1707
X9.6732Y-6.2638
X9.7121Y-4.2495
X9.72Y-4.0369
X9.72Y-4.0999
X9.7835Y-6.2244
X9.8223Y-2.7928
X9.8228Y-2.7165
X9.8681Y-5.9843
X9.913Y-7.0457
X9.9326Y-2.7928
X9.9382Y-6.9807
X10.06Y-6.0217
X10.0764Y-7.5717
X10.0817Y-6.2776
X10.0986Y-2.8547
X10.1025Y-2.8784
X10.1064Y-2.902
X10.1441Y-7.5063
X10.1604Y-6.0551
X10.1752Y-6.4183
X10.1772Y-6.6177
X10.2372Y-5.9469
X10.2421Y-6.1457
X10.2425Y-6.6181
X10.2556Y-3.1904
X10.2595Y-2.9384
X10.2598Y-3.5965
X10.2628Y-6.1161
X10.2711Y-3.3262
X10.2874Y-5.939
X10.2884Y-6.0906
X10.2894Y-6.0571
X10.2904Y-5.7451
X10.2948Y-3.3518
X10.2972Y-3.6102
X10.3287Y-6.4173
X10.3341Y-3.3755
X10.3366Y-5.7618
X10.3386Y-5.8917
X10.3415Y-6.2303
X10.3465Y-5.3445
X10.3504Y-3.248
X10.376Y-3.2717
X10.3965Y-7.5287
X10.405Y-3.3046
X10.4096Y-2.8469
X10.4096Y-2.8941
X10.4096Y-2.8705
X10.4173Y-6.1683
X10.4183Y-6.1378
X10.4193Y-6.1053
X10.4203Y-6.0738
X10.4618Y-6.3764
X10.5134Y-7.2787
X10.5551Y-5.5768
X10.5563Y-7.2394
X10.5984Y-5.3768
X10.5988Y-3.8783
X10.6417Y-5.6161
X10.6461Y-4.6701
X10.6933Y-5.3783
X10.6941Y-3.8791
X10.6963Y-3.2101
X10.6988Y-3.3031
X10.7421Y-3.4429
X10.7449Y-6.4362
X10.7618Y-3.3327
X10.7728Y-6.9925
X10.7756Y-3.3602
X10.7815Y-3.4803
X10.789Y-6.3811
X10.8248Y-3.2913
X10.8341Y-3.4621
X10.8366Y-3.5945
X10.8539Y-6.9429
X10.8583Y-3.2579
X10.863Y-4.0484
X10.8638Y-5.55
X10.8843Y-4.8709
X10.9188Y-3.4621
X10.9198Y-3.2819
X10.9217Y-4.8705
X10.9316Y-3.3223
X10.9469Y-2.9705
X10.9508Y-3.372
X10.9522Y-3.4709
X10.9862Y-2.9697
X11.0113Y-3.2101
X11.0408Y-3.2613
X11.0428Y-3.029
X11.0428Y-3.1412
X11.0519Y-4.7071
X11.0519Y-5.4571
X11.0886Y-7.0291
X11.124Y-3.2909
X11.1465Y-3.8031
X11.1756Y-3.8409
X11.2244Y-2.6969
X11.2244Y-2.7382
X11.2386Y-4.5236
X11.2386Y-5.2736
X11.2413Y-5.9996
X11.2421Y-6.0449
X11.2594Y-3.7122
X11.2614Y-3.7583
X11.3492Y-5.0732
X11.3783Y-3.5441
X11.3957Y-5.8634
X11.398Y-4.363
X11.4425Y-3.5724
X11.4433Y-5.0717
X11.5854Y-6.6173
X11.6126Y-3.7413
X11.6134Y-5.2449
X11.6323Y-4.5634
X11.6335Y-6.0638
X11.6713Y-4.5642
X11.6713Y-6.5945
X11.6717Y-6.0638
X11.819Y-2.7603
X11.819Y-2.8232
X11.8269Y-2.7917
X11.8327Y-3.25
X11.8356Y-3.0915
X11.889Y-6.7311
X12.0059Y-3.0787
X12.0177Y-3.2717
X12.0728Y-3.1614
X12.0984Y-3.4783
X12.0984Y-4.9768
X12.1181Y-2.939
X12.1465Y-4.2661
X12.1472Y-5.7705
X12.1535Y-3.0591
X12.1929Y-2.9094
X12.1939Y-3.4774
X12.1949Y-4.9787
X12.2077Y-2.9478
X12.2205Y-2.8071
X12.2205Y-2.8268
X12.3159Y-3.4715
X12.3386Y-3.3533
X12.3402Y-6.6016
X12.3413Y-6.563
X12.3465Y-3.0689
X12.3474Y-2.9488
X12.3484Y-3.1063
X12.3622Y-3.6526
X12.363Y-5.1492
X12.3831Y-5.9709
X12.3846Y-4.4693
X12.4213Y-3.0207
X12.4217Y-5.9701
X12.422Y-4.4697
X12.4222Y-3.5541
X12.438Y-3.1348
X12.4813Y-3.0374
X12.4882Y-3.5098
X12.5246Y-3.2087
X12.5579Y-4.3051
X12.5579Y-5.0551
X12.5579Y-5.8051
X12.5925Y-3.1417
X12.6171Y-3.314
X12.7583Y-6.6713
X12.761Y-4.2831
X12.761Y-5.0331
X12.761Y-5.7831
X12.7744Y-3.5358
X12.8524Y-3.3524
X12.8539Y-4.7898
X12.9008Y-4.0764
X12.9008Y-5.5827
X12.9476Y-4.7906
X12.9478Y-3.2884
X13.0898Y-6.5622
X13.0913Y-6.6012
X13.1181Y-3.4626
X13.1181Y-4.9602
X13.1374Y-4.278
X13.1378Y-5.7835
X13.1744Y-5.7819
X13.176Y-4.2776
X13.2274Y-2.9429
X13.2283Y-2.9045
X13.2323Y-3.2913
X13.2559Y-3.189
X13.3238Y-2.9764
X13.373Y-2.9793
X13.4547Y-2.8632
X13.4774Y-2.9774
X13.502Y-3.1496
X13.5087Y-6.6693
X13.5207Y-2.9144
X13.5384Y-3.311
X13.5837Y-2.9774
X13.5965Y-3.4793
X13.5992Y-4.9764
X13.6461Y-5.7693
X13.6465Y-4.2705
X13.6496Y-6.5823
X13.6941Y-4.978
X13.6949Y-3.4783
X13.8071Y-6.4488
X13.8094Y-6.8476
X13.8169Y-6.3937
X13.8356Y-6.4882
X13.8406Y-7.0807
X13.8415Y-6.7697
X13.8508Y-7.1598
X13.8583Y-7.2598
X13.8612Y-3.6545
X13.8634Y-5.1484
X13.874Y-6.7697
X13.875Y-7.0138
X13.8831Y-4.4705
X13.8831Y-5.9693
X13.9217Y-4.4709
X13.9224Y-5.9693
X13.95Y-4.3063
X13.95Y-5.0563
X13.95Y-5.8063
X13.9518Y-3.5561
X13.9933Y-6.8441
X14.0049Y-6.4882
X14.0797Y-6.6585
X14.1551Y-6.8067
X14.2205Y-6.8358
X14.2583Y-7.0232
X14.2589Y-4.0138
X14.2673Y-4.7528
X14.2673Y-5.5028
X14.2673Y-6.2528
X14.3488Y-5.3535
X14.3504Y-3.8524
X14.3965Y-6.1445
X14.4437Y-5.3528
X14.4439Y-3.8524
X14.4618Y-7.0283
X14.6122Y-5.524
X14.6132Y-4.0315
X14.6331Y-6.3437
X14.6343Y-4.8457
X14.6406Y-7.0283
X14.6717Y-4.8441
X14.672Y-6.3461
X14.7175Y-3.4665
X14.7195Y-3.5049
X14.7398Y-6.852
X14.753Y-3.749
X14.8189Y-3.5364
X14.8425Y-6.5591
X14.8433Y-6.8528
X14.8441Y-5.0579
X14.8461Y-4.3087
X14.8465Y-3.8307
X14.8476Y-5.8114
X14.9055Y-3.8278
X14.935Y-3.3671
X14.9649Y-4.2589
X14.967Y-5.011
X14.9676Y-5.7616
X14.9685Y-6.5118
X15.001Y-3.7136
X15.0098Y-7.0236
X15.0839Y-6.9264
X15.0992Y-5.3524
X15.0994Y-3.8524
X15.1102Y-3.6063
X15.1465Y-6.1445
X15.1939Y-3.8533
X15.1945Y-5.3535
X15.2362Y-7.3071
X15.3618Y-5.5228
X15.3622Y-4.0295
X15.3632Y-3.9314
X15.3835Y-4.8461
X15.3835Y-6.3476
X15.4217Y-6.3449
X15.4224Y-4.8453
X15.5555Y-4.9571
X15.5555Y-5.2157
X15.5677Y-6.3465
T2
X5.9173Y-2.8957
X5.9173Y-2.9291
X5.9193Y-2.8622
X6.1083Y-3.1929
X6.4764Y-3.4665
X6.6441Y-4.8445
X6.6815Y-4.8882
X6.685Y-4.8083
X6.8413Y-4.8866
X6.8469Y-4.8094
X6.8776Y-4.8472
X6.9823Y-2.6732
X7.3583Y-4.4567
X7.4094Y-3.002
X7.4508Y-4.3858
X7.4783Y-3.061
X7.5039Y-3.1831
X7.6831Y-2.7638
X7.7913Y-2.815
X9.3465Y-6.9409
X9.5472Y-4.1909
X9.751Y-7.4464
X10.2814Y-7.9767
X10.4649Y-4.2847
X10.4649Y-5.0347
X10.4869Y-6.7835
X10.622Y-5.9219
X10.868Y-7.4391
X11.5652Y-7.0622
X11.8381Y-2.8636
X11.8381Y-2.8951
X11.8381Y-2.9266
X11.8425Y-4.0236
X11.8425Y-5.5276
X11.8504Y-4.7717
X11.8504Y-6.2756
X11.9252Y-3.2598
X11.9649Y-3.8855
X11.9649Y-4.6339
X11.9649Y-5.3839
X11.9649Y-6.1339
X11.9843Y-3.2717
X12.0827Y-3.3701
X12.2494Y-3.0247
X12.2815Y-3.0256
X12.2848Y-3.0561
X12.3606Y-6.9046
X12.3622Y-3.0236
X12.7717Y-3.4429
X13.1106Y-6.9046
X13.3543Y-3.7402
X13.3543Y-4.4961
X13.3543Y-5.2441
X13.3543Y-5.9921
X13.4649Y-6.1339
X13.4649Y-5.3839
X13.4649Y-4.6374
X13.4649Y-3.8839
X13.9429Y-6.5157
X13.9744Y-6.5157
X14.3957Y-4.6417
X14.9783Y-3.3642
X15.1476Y-4.6417
X15.5118Y-7.1732
T3
X6.1654Y-2.6339
X6.3189Y-2.6339
X6.4094Y-2.6299
X12.0728Y-2.7087
X12.0748Y-2.8346
X12.439Y-2.8346
X12.5768Y-2.8327
T5
X6.5161Y-3.1358
X6.5854Y-4.0291
X6.5915Y-3.9154
X6.5915Y-3.5154
X10.5459Y-3.6772
X10.9459Y-3.6772
X11.0597Y-3.6833
X12.3398Y-2.7854
T6
X7.082Y-2.9207
X7.182Y-2.9207
X7.282Y-2.9207
X7.382Y-2.9207
X7.482Y-2.9207
X7.5816Y-2.9211
X7.6816Y-2.9211
X9.2593Y-2.9183
X9.3593Y-2.9183
X9.4593Y-2.9183
X9.5593Y-2.9183
X9.6593Y-2.9183
X9.7589Y-2.9187
X9.8589Y-2.9187
T4
G00X6.5279Y-2.6299
M15
G01X6.5279Y-2.6063
M16
G05
G00X6.5279Y-2.8043
M15
G01X6.5279Y-2.761
M16
G05
G00X6.8681Y-2.6299
M15
G01X6.8681Y-2.6063
M16
G05
G00X6.8681Y-2.8043
M15
G01X6.8681Y-2.761
M16
G05
G00X10.0877Y-2.6279
M15
G01X10.0877Y-2.6043
M16
G05
G00X10.0877Y-2.8024
M15
G01X10.0877Y-2.759
M16
G05
G00X10.4279Y-2.6279
M15
G01X10.4279Y-2.6043
M16
G05
G00X10.4279Y-2.8024
M15
G01X10.4279Y-2.759
M16
G05
T0
M30
