%TF.GenerationSoftware,KiCad,Pcbnew,(6.0.5)*%
%TF.CreationDate,2022-08-12T23:05:57+08:00*%
%TF.ProjectId,ChunkyXiao,4368756e-6b79-4586-9961-6f2e6b696361,rev?*%
%TF.SameCoordinates,Original*%
%TF.FileFunction,Profile,NP*%
%FSLAX46Y46*%
G04 Gerber Fmt 4.6, Leading zero omitted, Abs format (unit mm)*
G04 Created by KiCad (PCBNEW (6.0.5)) date 2022-08-12 23:05:57*
%MOMM*%
%LPD*%
G01*
G04 APERTURE LIST*
%TA.AperFunction,Profile*%
%ADD10C,0.100000*%
%TD*%
%TA.AperFunction,Profile*%
%ADD11C,0.120000*%
%TD*%
G04 APERTURE END LIST*
D10*
X312362103Y-65319149D02*
X312362104Y-63373772D01*
X327116538Y-65319150D02*
X318362100Y-65319156D01*
X215533046Y-166865904D02*
X201092897Y-181306547D01*
X180846785Y-120431396D02*
X180846785Y-123431396D01*
X162328528Y-212991714D02*
G75*
G03*
X168845193Y-212513060I2981072J4014114D01*
G01*
X397342791Y-58373775D02*
X30350790Y-58373774D01*
X40024747Y-85457142D02*
G75*
G03*
X30350795Y-99479742I5326093J-14022628D01*
G01*
X387505414Y-199836780D02*
G75*
G03*
X399996383Y-187336841I-9014J12499980D01*
G01*
X201092897Y-181306547D02*
X200082331Y-180296014D01*
X358588674Y-201755156D02*
G75*
G03*
X361717691Y-202855290I3129026J3899756D01*
G01*
X248686889Y-116336492D02*
X248686889Y-120336492D01*
X387505411Y-216851750D02*
X387505414Y-202836722D01*
X268018655Y-209991713D02*
X292147306Y-192072642D01*
X190729530Y-65319152D02*
X164012793Y-65319151D01*
X235878067Y-183888277D02*
X234217028Y-185549263D01*
X321544843Y-190100884D02*
X344286527Y-190100892D01*
X158012797Y-63373772D02*
X121548609Y-63373775D01*
X321544843Y-190100884D02*
X321544838Y-193100886D01*
X298109462Y-190100889D02*
X315544840Y-190100886D01*
X86060654Y-193100858D02*
G75*
G03*
X79802579Y-195301112I-54J-9999742D01*
G01*
X68544838Y-202855289D02*
X68629492Y-202855288D01*
X68544838Y-202855289D02*
X48841770Y-202841054D01*
X266390305Y-65319155D02*
X239617652Y-65319149D01*
X259632793Y-210964156D02*
X249555162Y-200886865D01*
X225042793Y-173052642D02*
X231635352Y-179645425D01*
X196850330Y-185549253D02*
X194829194Y-183528192D01*
X266390310Y-63373769D02*
X266390305Y-65319155D01*
X236136889Y-123336492D02*
X248686889Y-123336492D01*
X68629494Y-199855304D02*
G75*
G03*
X71758529Y-198755171I6J4999904D01*
G01*
X180846785Y-123431396D02*
X193396785Y-123431396D01*
X164012795Y-63373773D02*
X266390310Y-63373769D01*
X261501985Y-212513071D02*
X259632793Y-210964156D01*
X199071759Y-179285483D02*
X205304394Y-173052640D01*
X181700000Y-148590000D02*
X193200000Y-148590000D01*
X193200000Y-148590000D02*
X193200000Y-143540000D01*
X193200000Y-143540000D02*
X181700000Y-143540000D01*
X181700000Y-143540000D02*
X181700000Y-148590000D01*
X205304394Y-173052640D02*
X209295584Y-168991626D01*
X399996391Y-186372638D02*
X399996386Y-99479741D01*
X30350788Y-186622641D02*
X30350798Y-187336837D01*
X246267766Y-197599581D02*
X247928391Y-195939014D01*
X115548613Y-65319157D02*
X103230640Y-65319150D01*
X169542293Y-208815947D02*
X168845193Y-209513067D01*
X239617652Y-65319157D02*
G75*
G03*
X219617657Y-85319154I-52J-19999943D01*
G01*
X86060655Y-190100864D02*
G75*
G03*
X79802582Y-192301113I45J-10000036D01*
G01*
X315544840Y-190100886D02*
X315544845Y-193100888D01*
X350544595Y-192301114D02*
X358588649Y-198755181D01*
X298109462Y-190100866D02*
G75*
G03*
X292147306Y-192072642I38J-10000034D01*
G01*
X193396785Y-120431396D02*
X193396785Y-123431396D01*
X221051599Y-168991631D02*
X225042793Y-173052642D01*
X180846785Y-120431396D02*
X180846785Y-116181396D01*
X361802345Y-202855287D02*
X381505413Y-202841061D01*
X381505413Y-202841061D02*
X381503247Y-199841057D01*
X30350801Y-187336837D02*
G75*
G03*
X42841772Y-199836726I12499999J107D01*
G01*
X200082331Y-180296014D02*
X199071759Y-179285483D01*
X162328526Y-209991717D02*
G75*
G03*
X168845193Y-209513067I2981074J4014117D01*
G01*
X30350790Y-58373774D02*
X30350791Y-63373770D01*
X48841770Y-202841054D02*
X48843938Y-199841051D01*
X83523425Y-68935539D02*
X40024749Y-85457147D01*
X180846783Y-116181402D02*
G75*
G03*
X193396785Y-116431395I6622717J17330902D01*
G01*
X358588662Y-198755165D02*
G75*
G03*
X361717693Y-199855283I3129038J3899865D01*
G01*
X236136889Y-120336492D02*
X236136889Y-116086492D01*
X346823759Y-68935540D02*
G75*
G03*
X327116538Y-65319150I-19706359J-51883560D01*
G01*
X318362100Y-63373777D02*
X397342794Y-63373779D01*
X209295591Y-168991633D02*
G75*
G03*
X210729529Y-165486887I-3566291J3504833D01*
G01*
X397342794Y-63373779D02*
X397342791Y-58373775D01*
X68629494Y-199855287D02*
X68544842Y-199855291D01*
X235986889Y-148636492D02*
X247486889Y-148636492D01*
X247486889Y-148636492D02*
X247486889Y-143586492D01*
X247486889Y-143586492D02*
X235986889Y-143586492D01*
X235986889Y-143586492D02*
X235986889Y-148636492D01*
X138199868Y-195072649D02*
G75*
G03*
X132237723Y-193100887I-5962168J-8028251D01*
G01*
X100544838Y-193100890D02*
X86060654Y-193100887D01*
X79802582Y-192301113D02*
X71758529Y-198755171D01*
X292147307Y-195072643D02*
X268018660Y-212991712D01*
X361717691Y-202855290D02*
X361802345Y-202855287D01*
X182779278Y-195578516D02*
X184800404Y-197599584D01*
X100544835Y-190100886D02*
X100544838Y-193100890D01*
X318362100Y-65319156D02*
X318362100Y-63373777D01*
X260804887Y-208815939D02*
X261501991Y-209513067D01*
X236136889Y-120336492D02*
X236136889Y-123336492D01*
X350544605Y-195301113D02*
X358588659Y-201755175D01*
X115548615Y-63373771D02*
X115548613Y-65319157D01*
X162328525Y-209991718D02*
X138199878Y-192072639D01*
X249555162Y-200886865D02*
X251215672Y-199226406D01*
X158012795Y-65319150D02*
X158012797Y-63373772D01*
X229974172Y-181306544D02*
X215533046Y-166865904D01*
X121548609Y-63373775D02*
X121548611Y-65319155D01*
X251215672Y-199226406D02*
X260804887Y-208815939D01*
X361717693Y-199855283D02*
X361802338Y-199855283D01*
X132237723Y-193100887D02*
X106544839Y-193100888D01*
X180502735Y-201897394D02*
X178481605Y-199876337D01*
X399996383Y-187336841D02*
X399996393Y-186622643D01*
X184800404Y-197599584D02*
X196850330Y-185549253D01*
X194829194Y-183528192D02*
X182779278Y-195578516D01*
X30350791Y-63373770D02*
X115548615Y-63373771D01*
X248686889Y-120336492D02*
X248686889Y-123336492D01*
X42841772Y-199836726D02*
X42841769Y-202836718D01*
X315544845Y-193100888D02*
X298109462Y-193100887D01*
X100544835Y-190100886D02*
X86060655Y-190100887D01*
X193396785Y-116431396D02*
X193396785Y-120431396D01*
X387505414Y-202836722D02*
X387505414Y-199836720D01*
X132237719Y-190100890D02*
X106544837Y-190100890D01*
X171436287Y-210964156D02*
X180502735Y-201897394D01*
X103230640Y-65319137D02*
G75*
G03*
X83523425Y-68935539I-840J-55499863D01*
G01*
X272390307Y-63373774D02*
X272390309Y-65319149D01*
X210729538Y-85319152D02*
G75*
G03*
X190729530Y-65319152I-19999998J2D01*
G01*
X231635352Y-179645425D02*
X229974172Y-181306544D01*
X68629494Y-202855259D02*
G75*
G03*
X71758529Y-201755175I-94J5000359D01*
G01*
X219617657Y-85319154D02*
X219617653Y-165486881D01*
X168845193Y-212513060D02*
X171436287Y-210964156D01*
X210729529Y-165486887D02*
X210729529Y-85319152D01*
X247928391Y-195939014D02*
X235878067Y-183888277D01*
X42841769Y-202836718D02*
X42465752Y-217100949D01*
X272390309Y-65319149D02*
X312362103Y-65319149D01*
X79802579Y-195301112D02*
X71758529Y-201755175D01*
X138199872Y-195072644D02*
X162328525Y-212991718D01*
X390322429Y-85457142D02*
X346823757Y-68935546D01*
X30350793Y-186372639D02*
X30350788Y-186622641D01*
X164012793Y-65319151D02*
X164012795Y-63373773D01*
X261502010Y-209513048D02*
G75*
G03*
X268018655Y-209991713I3535590J3535448D01*
G01*
X106544837Y-190100890D02*
X106544839Y-193100883D01*
X350544587Y-192301124D02*
G75*
G03*
X344286527Y-190100892I-6258087J-7799776D01*
G01*
X121548611Y-65319155D02*
X158012795Y-65319150D01*
X298109462Y-193100867D02*
G75*
G03*
X292147307Y-195072643I38J-10000033D01*
G01*
X219617621Y-165486881D02*
G75*
G03*
X221051599Y-168991631I4999879J-19D01*
G01*
X399996393Y-186622643D02*
X399996391Y-186372638D01*
X350544610Y-195301107D02*
G75*
G03*
X344286527Y-193100887I-6258110J-7799893D01*
G01*
X178481605Y-199876337D02*
X169542293Y-208815947D01*
X261502000Y-212513056D02*
G75*
G03*
X268018660Y-212991712I3535600J3535556D01*
G01*
X68544842Y-199855291D02*
X48843938Y-199841051D01*
X42465752Y-217100949D02*
X387505411Y-216851750D01*
X312362104Y-63373772D02*
X272390307Y-63373774D01*
X321544838Y-193100886D02*
X344286527Y-193100887D01*
X234217028Y-185549263D02*
X246267766Y-197599581D01*
X138199868Y-192072653D02*
G75*
G03*
X132237719Y-190100890I-5962168J-8028247D01*
G01*
X236136885Y-116086501D02*
G75*
G03*
X248686889Y-116336491I6622715J17330901D01*
G01*
X30350795Y-99479742D02*
X30350793Y-186372639D01*
X361802338Y-199855283D02*
X381503247Y-199841057D01*
X399996451Y-99479741D02*
G75*
G03*
X390322429Y-85457142I-15000051J-59D01*
G01*
D11*
%TO.C,SW18*%
X101841889Y-125913492D02*
X101841889Y-122813492D01*
X98241889Y-122813492D02*
X98241889Y-125913492D01*
X98241889Y-125913492D02*
X101841889Y-125913492D01*
X101841889Y-122813492D02*
X98241889Y-122813492D01*
%TO.C,SW62*%
X347574888Y-127581497D02*
X347574888Y-130681497D01*
X351174888Y-127581497D02*
X347574888Y-127581497D01*
X351174888Y-130681497D02*
X351174888Y-127581497D01*
X347574888Y-130681497D02*
X351174888Y-130681497D01*
%TO.C,SW19*%
X101841888Y-144963491D02*
X101841888Y-141863491D01*
X98241888Y-141863491D02*
X98241888Y-144963491D01*
X101841888Y-141863491D02*
X98241888Y-141863491D01*
X98241888Y-144963491D02*
X101841888Y-144963491D01*
%TO.C,SW21*%
X120891892Y-92581493D02*
X120891892Y-89481493D01*
X117291892Y-89481493D02*
X117291892Y-92581493D01*
X120891892Y-89481493D02*
X117291892Y-89481493D01*
X117291892Y-92581493D02*
X120891892Y-92581493D01*
%TO.C,SW50*%
X309474890Y-89481495D02*
X309474890Y-92581495D01*
X313074890Y-89481495D02*
X309474890Y-89481495D01*
X309474890Y-92581495D02*
X313074890Y-92581495D01*
X313074890Y-92581495D02*
X313074890Y-89481495D01*
%TO.C,SW15*%
X72741890Y-178306494D02*
X72741890Y-175206494D01*
X69141890Y-178306494D02*
X72741890Y-178306494D01*
X69141890Y-175206494D02*
X69141890Y-178306494D01*
X72741890Y-175206494D02*
X69141890Y-175206494D01*
%TO.C,SW12*%
X79191888Y-108531493D02*
X79191888Y-111631493D01*
X82791888Y-108531493D02*
X79191888Y-108531493D01*
X79191888Y-111631493D02*
X82791888Y-111631493D01*
X82791888Y-111631493D02*
X82791888Y-108531493D01*
%TO.C,SW66*%
X370224889Y-121156492D02*
X370224889Y-118056492D01*
X366624889Y-118056492D02*
X366624889Y-121156492D01*
X366624889Y-121156492D02*
X370224889Y-121156492D01*
X370224889Y-118056492D02*
X366624889Y-118056492D01*
%TO.C,SW43*%
X266603041Y-161576744D02*
X268153041Y-164261422D01*
X269720733Y-159776744D02*
X266603041Y-161576744D01*
X268153041Y-164261422D02*
X271270733Y-162461422D01*
X271270733Y-162461422D02*
X269720733Y-159776744D01*
%TO.C,SW20*%
X91791890Y-169306494D02*
X91791890Y-166206494D01*
X88191890Y-169306494D02*
X91791890Y-169306494D01*
X88191890Y-166206494D02*
X88191890Y-169306494D01*
X91791890Y-166206494D02*
X88191890Y-166206494D01*
%TO.C,SW38*%
X245127978Y-178718167D02*
X247320009Y-180910198D01*
X249865593Y-178364614D02*
X247673562Y-176172583D01*
X247320009Y-180910198D02*
X249865593Y-178364614D01*
X247673562Y-176172583D02*
X245127978Y-178718167D01*
%TO.C,SW13*%
X82791888Y-130681495D02*
X82791888Y-127581495D01*
X79191888Y-127581495D02*
X79191888Y-130681495D01*
X82791888Y-127581495D02*
X79191888Y-127581495D01*
X79191888Y-130681495D02*
X82791888Y-130681495D01*
%TO.C,SW10*%
X53691889Y-175206494D02*
X50091889Y-175206494D01*
X53691889Y-178306494D02*
X53691889Y-175206494D01*
X50091889Y-175206494D02*
X50091889Y-178306494D01*
X50091889Y-178306494D02*
X53691889Y-178306494D01*
%TO.C,SW31*%
X158991888Y-102761491D02*
X158991888Y-99661491D01*
X155391888Y-99661491D02*
X155391888Y-102761491D01*
X155391888Y-102761491D02*
X158991888Y-102761491D01*
X158991888Y-99661491D02*
X155391888Y-99661491D01*
%TO.C,SW34*%
X163763733Y-161619744D02*
X160646041Y-159819744D01*
X162213733Y-164304422D02*
X163763733Y-161619744D01*
X159096041Y-162504422D02*
X162213733Y-164304422D01*
X160646041Y-159819744D02*
X159096041Y-162504422D01*
%TO.C,SW7*%
X60141889Y-118056493D02*
X60141889Y-121156493D01*
X63741889Y-118056493D02*
X60141889Y-118056493D01*
X60141889Y-121156493D02*
X63741889Y-121156493D01*
X63741889Y-121156493D02*
X63741889Y-118056493D01*
%TO.C,SW45*%
X294024889Y-94967496D02*
X294024889Y-91867496D01*
X294024889Y-91867496D02*
X290424889Y-91867496D01*
X290424889Y-94967496D02*
X294024889Y-94967496D01*
X290424889Y-91867496D02*
X290424889Y-94967496D01*
%TO.C,SW27*%
X136341888Y-110917495D02*
X136341888Y-114017495D01*
X139941888Y-114017495D02*
X139941888Y-110917495D01*
X139941888Y-110917495D02*
X136341888Y-110917495D01*
X136341888Y-114017495D02*
X139941888Y-114017495D01*
%TO.C,SW48*%
X290424889Y-152117496D02*
X294024889Y-152117496D01*
X290424889Y-149017496D02*
X290424889Y-152117496D01*
X294024889Y-152117496D02*
X294024889Y-149017496D01*
X294024889Y-149017496D02*
X290424889Y-149017496D01*
%TO.C,SW6*%
X60141889Y-99006494D02*
X60141889Y-102106494D01*
X63741889Y-99006494D02*
X60141889Y-99006494D01*
X63741889Y-102106494D02*
X63741889Y-99006494D01*
X60141889Y-102106494D02*
X63741889Y-102106494D01*
%TO.C,SW54*%
X319524889Y-166206495D02*
X319524889Y-169306495D01*
X319524889Y-169306495D02*
X323124889Y-169306495D01*
X323124889Y-169306495D02*
X323124889Y-166206495D01*
X323124889Y-166206495D02*
X319524889Y-166206495D01*
%TO.C,SW53*%
X309474894Y-149731493D02*
X313074894Y-149731493D01*
X313074894Y-146631493D02*
X309474894Y-146631493D01*
X313074894Y-149731493D02*
X313074894Y-146631493D01*
X309474894Y-146631493D02*
X309474894Y-149731493D01*
%TO.C,SW57*%
X328624887Y-122813491D02*
X328624887Y-125913491D01*
X328624887Y-125913491D02*
X332224887Y-125913491D01*
X332224887Y-122813491D02*
X328624887Y-122813491D01*
X332224887Y-125913491D02*
X332224887Y-122813491D01*
%TO.C,SW24*%
X117291889Y-149731493D02*
X120891889Y-149731493D01*
X117291889Y-146631493D02*
X117291889Y-149731493D01*
X120891889Y-146631493D02*
X117291889Y-146631493D01*
X120891889Y-149731493D02*
X120891889Y-146631493D01*
%TO.C,SW69*%
X376674888Y-178306494D02*
X380274888Y-178306494D01*
X376674888Y-175206494D02*
X376674888Y-178306494D01*
X380274888Y-178306494D02*
X380274888Y-175206494D01*
X380274888Y-175206494D02*
X376674888Y-175206494D01*
%TO.C,SW32*%
X155391888Y-121811495D02*
X158991888Y-121811495D01*
X158991888Y-118711495D02*
X155391888Y-118711495D01*
X155391888Y-118711495D02*
X155391888Y-121811495D01*
X158991888Y-121811495D02*
X158991888Y-118711495D01*
%TO.C,SW56*%
X328624889Y-103763494D02*
X328624889Y-106863494D01*
X328624889Y-106863494D02*
X332224889Y-106863494D01*
X332224889Y-103763494D02*
X328624889Y-103763494D01*
X332224889Y-106863494D02*
X332224889Y-103763494D01*
%TO.C,SW59*%
X342174890Y-169306495D02*
X342174890Y-166206495D01*
X338574890Y-166206495D02*
X338574890Y-169306495D01*
X342174890Y-166206495D02*
X338574890Y-166206495D01*
X338574890Y-169306495D02*
X342174890Y-169306495D01*
%TO.C,SW58*%
X328624891Y-141863494D02*
X328624891Y-144963494D01*
X328624891Y-144963494D02*
X332224891Y-144963494D01*
X332224891Y-141863494D02*
X328624891Y-141863494D01*
X332224891Y-144963494D02*
X332224891Y-141863494D01*
%TO.C,SW46*%
X290424890Y-110917495D02*
X290424890Y-114017495D01*
X294024890Y-110917495D02*
X290424890Y-110917495D01*
X294024890Y-114017495D02*
X294024890Y-110917495D01*
X290424890Y-114017495D02*
X294024890Y-114017495D01*
%TO.C,SW33*%
X155391889Y-140861493D02*
X158991889Y-140861493D01*
X158991889Y-140861493D02*
X158991889Y-137761493D01*
X155391889Y-137761493D02*
X155391889Y-140861493D01*
X158991889Y-137761493D02*
X155391889Y-137761493D01*
%TO.C,SW68*%
X366624887Y-159256493D02*
X370224887Y-159256493D01*
X370224887Y-156156493D02*
X366624887Y-156156493D01*
X366624887Y-156156493D02*
X366624887Y-159256493D01*
X370224887Y-159256493D02*
X370224887Y-156156493D01*
%TO.C,SW71*%
X385674887Y-121156492D02*
X389274887Y-121156492D01*
X389274887Y-121156492D02*
X389274887Y-118056492D01*
X389274887Y-118056492D02*
X385674887Y-118056492D01*
X385674887Y-118056492D02*
X385674887Y-121156492D01*
%TO.C,SW8*%
X60141889Y-137106495D02*
X60141889Y-140206495D01*
X63741889Y-140206495D02*
X63741889Y-137106495D01*
X60141889Y-140206495D02*
X63741889Y-140206495D01*
X63741889Y-137106495D02*
X60141889Y-137106495D01*
%TO.C,SW29*%
X139941886Y-149017497D02*
X136341886Y-149017497D01*
X139941886Y-152117497D02*
X139941886Y-149017497D01*
X136341886Y-149017497D02*
X136341886Y-152117497D01*
X136341886Y-152117497D02*
X139941886Y-152117497D01*
%TO.C,SW55*%
X332224890Y-87813493D02*
X332224890Y-84713493D01*
X332224890Y-84713493D02*
X328624890Y-84713493D01*
X328624890Y-84713493D02*
X328624890Y-87813493D01*
X328624890Y-87813493D02*
X332224890Y-87813493D01*
%TO.C,SW26*%
X139941888Y-94967495D02*
X139941888Y-91867495D01*
X139941888Y-91867495D02*
X136341888Y-91867495D01*
X136341888Y-91867495D02*
X136341888Y-94967495D01*
X136341888Y-94967495D02*
X139941888Y-94967495D01*
%TO.C,SW9*%
X60141887Y-156156494D02*
X60141887Y-159256494D01*
X63741887Y-156156494D02*
X60141887Y-156156494D01*
X60141887Y-159256494D02*
X63741887Y-159256494D01*
X63741887Y-159256494D02*
X63741887Y-156156494D01*
%TO.C,SW63*%
X347574887Y-146631497D02*
X347574887Y-149731497D01*
X347574887Y-149731497D02*
X351174887Y-149731497D01*
X351174887Y-149731497D02*
X351174887Y-146631497D01*
X351174887Y-146631497D02*
X347574887Y-146631497D01*
%TO.C,SW23*%
X120891889Y-130681490D02*
X120891889Y-127581490D01*
X120891889Y-127581490D02*
X117291889Y-127581490D01*
X117291889Y-130681490D02*
X120891889Y-130681490D01*
X117291889Y-127581490D02*
X117291889Y-130681490D01*
%TO.C,SW61*%
X347574890Y-108531495D02*
X347574890Y-111631495D01*
X351174890Y-108531495D02*
X347574890Y-108531495D01*
X347574890Y-111631495D02*
X351174890Y-111631495D01*
X351174890Y-111631495D02*
X351174890Y-108531495D01*
%TO.C,SW70*%
X389274888Y-102106491D02*
X389274888Y-99006491D01*
X389274888Y-99006491D02*
X385674888Y-99006491D01*
X385674888Y-99006491D02*
X385674888Y-102106491D01*
X385674888Y-102106491D02*
X389274888Y-102106491D01*
%TO.C,SW42*%
X274974889Y-137761493D02*
X271374889Y-137761493D01*
X271374889Y-140861493D02*
X274974889Y-140861493D01*
X271374889Y-137761493D02*
X271374889Y-140861493D01*
X274974889Y-140861493D02*
X274974889Y-137761493D01*
%TO.C,SW51*%
X309474891Y-111631495D02*
X313074891Y-111631495D01*
X313074891Y-108531495D02*
X309474891Y-108531495D01*
X309474891Y-108531495D02*
X309474891Y-111631495D01*
X313074891Y-111631495D02*
X313074891Y-108531495D01*
%TO.C,SW14*%
X82791886Y-149731495D02*
X82791886Y-146631495D01*
X82791886Y-146631495D02*
X79191886Y-146631495D01*
X79191886Y-149731495D02*
X82791886Y-149731495D01*
X79191886Y-146631495D02*
X79191886Y-149731495D01*
%TO.C,SW73*%
X385674889Y-159256490D02*
X389274889Y-159256490D01*
X385674889Y-156156490D02*
X385674889Y-159256490D01*
X389274889Y-159256490D02*
X389274889Y-156156490D01*
X389274889Y-156156490D02*
X385674889Y-156156490D01*
%TO.C,SW28*%
X139941888Y-129967496D02*
X136341888Y-129967496D01*
X136341888Y-133067496D02*
X139941888Y-133067496D01*
X139941888Y-133067496D02*
X139941888Y-129967496D01*
X136341888Y-129967496D02*
X136341888Y-133067496D01*
%TO.C,SW39*%
X263335977Y-191834997D02*
X261143946Y-189642966D01*
X258598362Y-192188550D02*
X260790393Y-194380581D01*
X260790393Y-194380581D02*
X263335977Y-191834997D01*
X261143946Y-189642966D02*
X258598362Y-192188550D01*
%TO.C,SW52*%
X309474892Y-130681493D02*
X313074892Y-130681493D01*
X313074892Y-130681493D02*
X313074892Y-127581493D01*
X309474892Y-127581493D02*
X309474892Y-130681493D01*
X313074892Y-127581493D02*
X309474892Y-127581493D01*
%TO.C,SW72*%
X385674888Y-140206493D02*
X389274888Y-140206493D01*
X385674888Y-137106493D02*
X385674888Y-140206493D01*
X389274888Y-137106493D02*
X385674888Y-137106493D01*
X389274888Y-140206493D02*
X389274888Y-137106493D01*
%TO.C,SW11*%
X79191889Y-92581494D02*
X82791889Y-92581494D01*
X82791889Y-92581494D02*
X82791889Y-89481494D01*
X79191889Y-89481494D02*
X79191889Y-92581494D01*
X82791889Y-89481494D02*
X79191889Y-89481494D01*
%TO.C,SW37*%
X167030800Y-191877998D02*
X169576384Y-194423582D01*
X171768415Y-192231551D02*
X169222831Y-189685967D01*
X169576384Y-194423582D02*
X171768415Y-192231551D01*
X169222831Y-189685967D02*
X167030800Y-191877998D01*
%TO.C,SW41*%
X274974891Y-118711492D02*
X271374891Y-118711492D01*
X271374891Y-118711492D02*
X271374891Y-121811492D01*
X271374891Y-121811492D02*
X274974891Y-121811492D01*
X274974891Y-121811492D02*
X274974891Y-118711492D01*
%TO.C,SW17*%
X101841888Y-106863494D02*
X101841888Y-103763494D01*
X101841888Y-103763494D02*
X98241888Y-103763494D01*
X98241888Y-103763494D02*
X98241888Y-106863494D01*
X98241888Y-106863494D02*
X101841888Y-106863494D01*
%TO.C,SW40*%
X274974889Y-99661494D02*
X271374889Y-99661494D01*
X271374889Y-99661494D02*
X271374889Y-102761494D01*
X274974889Y-102761494D02*
X274974889Y-99661494D01*
X271374889Y-102761494D02*
X274974889Y-102761494D01*
%TO.C,SW67*%
X366624889Y-140206493D02*
X370224889Y-140206493D01*
X366624889Y-137106493D02*
X366624889Y-140206493D01*
X370224889Y-137106493D02*
X366624889Y-137106493D01*
X370224889Y-140206493D02*
X370224889Y-137106493D01*
%TO.C,SW25*%
X107241890Y-166206493D02*
X107241890Y-169306493D01*
X110841890Y-166206493D02*
X107241890Y-166206493D01*
X110841890Y-169306493D02*
X110841890Y-166206493D01*
X107241890Y-169306493D02*
X110841890Y-169306493D01*
%TO.C,SW3*%
X44691892Y-137106491D02*
X41091892Y-137106491D01*
X41091892Y-137106491D02*
X41091892Y-140206491D01*
X41091892Y-140206491D02*
X44691892Y-140206491D01*
X44691892Y-140206491D02*
X44691892Y-137106491D01*
%TO.C,SW49*%
X301039923Y-171144904D02*
X300237584Y-168150533D01*
X297562590Y-172076652D02*
X301039923Y-171144904D01*
X300237584Y-168150533D02*
X296760251Y-169082282D01*
X296760251Y-169082282D02*
X297562590Y-172076652D01*
%TO.C,SW47*%
X290424891Y-133067495D02*
X294024891Y-133067495D01*
X290424891Y-129967495D02*
X290424891Y-133067495D01*
X294024891Y-129967495D02*
X290424891Y-129967495D01*
X294024891Y-133067495D02*
X294024891Y-129967495D01*
%TO.C,SW1*%
X44691888Y-99006493D02*
X41091888Y-99006493D01*
X44691888Y-102106493D02*
X44691888Y-99006493D01*
X41091888Y-99006493D02*
X41091888Y-102106493D01*
X41091888Y-102106493D02*
X44691888Y-102106493D01*
%TO.C,SW60*%
X347574891Y-89481494D02*
X347574891Y-92581494D01*
X347574891Y-92581494D02*
X351174891Y-92581494D01*
X351174891Y-89481494D02*
X347574891Y-89481494D01*
X351174891Y-92581494D02*
X351174891Y-89481494D01*
%TO.C,SW4*%
X44691888Y-159256490D02*
X44691888Y-156156490D01*
X44691888Y-156156490D02*
X41091888Y-156156490D01*
X41091888Y-159256490D02*
X44691888Y-159256490D01*
X41091888Y-156156490D02*
X41091888Y-159256490D01*
%TO.C,SW35*%
X154238734Y-178117529D02*
X151121042Y-176317529D01*
X152688734Y-180802207D02*
X154238734Y-178117529D01*
X151121042Y-176317529D02*
X149571042Y-179002207D01*
X149571042Y-179002207D02*
X152688734Y-180802207D01*
%TO.C,SW22*%
X120891890Y-108531492D02*
X117291890Y-108531492D01*
X117291890Y-111631492D02*
X120891890Y-111631492D01*
X117291890Y-108531492D02*
X117291890Y-111631492D01*
X120891890Y-111631492D02*
X120891890Y-108531492D01*
%TO.C,SW30*%
X132804189Y-172076651D02*
X133606528Y-169082281D01*
X129326856Y-171144903D02*
X132804189Y-172076651D01*
X133606528Y-169082281D02*
X130129195Y-168150532D01*
X130129195Y-168150532D02*
X129326856Y-171144903D01*
%TO.C,SW64*%
X357624888Y-175206494D02*
X357624888Y-178306494D01*
X361224888Y-175206494D02*
X357624888Y-175206494D01*
X357624888Y-178306494D02*
X361224888Y-178306494D01*
X361224888Y-178306494D02*
X361224888Y-175206494D01*
%TO.C,SW65*%
X370224889Y-99006493D02*
X366624889Y-99006493D01*
X366624889Y-99006493D02*
X366624889Y-102106493D01*
X370224889Y-102106493D02*
X370224889Y-99006493D01*
X366624889Y-102106493D02*
X370224889Y-102106493D01*
%TO.C,SW44*%
X276128041Y-178074529D02*
X277678041Y-180759207D01*
X279245733Y-176274529D02*
X276128041Y-178074529D01*
X277678041Y-180759207D02*
X280795733Y-178959207D01*
X280795733Y-178959207D02*
X279245733Y-176274529D01*
%TO.C,SW16*%
X98241891Y-84713490D02*
X98241891Y-87813490D01*
X101841891Y-87813490D02*
X101841891Y-84713490D01*
X98241891Y-87813490D02*
X101841891Y-87813490D01*
X101841891Y-84713490D02*
X98241891Y-84713490D01*
%TO.C,SW36*%
X180501184Y-178407614D02*
X183046768Y-180953198D01*
X182693215Y-176215583D02*
X180501184Y-178407614D01*
X183046768Y-180953198D02*
X185238799Y-178761167D01*
X185238799Y-178761167D02*
X182693215Y-176215583D01*
%TO.C,SW2*%
X44691889Y-118056490D02*
X41091889Y-118056490D01*
X41091889Y-118056490D02*
X41091889Y-121156490D01*
X41091889Y-121156490D02*
X44691889Y-121156490D01*
X44691889Y-121156490D02*
X44691889Y-118056490D01*
%TD*%
M02*
